<?xml version="1.0" encoding="UTF-8"?>
<svg id="Layer_2" data-name="Layer 2" xmlns="http://www.w3.org/2000/svg" viewBox="0 0 51.87 50.34">
  <defs>
    <style>
      .cls-1 {
        fill: #fff;
      }
    </style>
  </defs>
  <g id="Layer_1-2" data-name="Layer 1">
    <g>
      <path class="cls-1" d="M48.85,11.55c-.52-.9-1.49-1.41-2.33-1.23-8.54,1.82-14.99,7.43-18.18,15.8-3.18,8.35-9.44,14.38-17.62,16.99-.69.22-1.1.88-1.05,1.7.03.47.2.94.49,1.34.21.29.47.54.77.72,8.72,5.27,20.17,4.51,29.16-1.94,11.27-8.08,15.03-22.42,8.76-33.37ZM16.85,45.33c6.91-3.43,12.19-9.34,15.12-17.03,2.62-6.86,7.73-11.62,14.5-13.54,3.83,8.71.13,20.05-8.95,26.56-6.28,4.5-14.07,5.91-20.67,4Z"/>
      <path class="cls-1" d="M41.29,7.28c.66-.24,1.05-.9,1-1.71-.05-.8-.54-1.59-1.25-2.03C32.3-1.79,20.82-1.05,11.78,5.42.54,13.49-3.24,27.81,2.99,38.74c.05.08.1.16.15.24.52.73,1.35,1.14,2.11,1.01,9.03-1.49,16.12-7.35,19.45-16.08,3.04-7.98,8.93-13.89,16.58-16.64ZM5.41,35.6c-3.85-8.71-.14-20.07,8.94-26.59,6.4-4.59,14.35-5.96,21.02-3.9-6.49,3.48-11.49,9.25-14.3,16.61-2.75,7.21-8.41,12.2-15.66,13.88Z"/>
    </g>
  </g>
</svg>