<?xml version="1.0" encoding="UTF-8"?>
<svg id="Layer_2" data-name="Layer 2" xmlns="http://www.w3.org/2000/svg" viewBox="0 0 1367.56 506.74">
  <defs>
    <style>
      .cls-1 {
        fill: #444240;
      }
    </style>
  </defs>
  <g id="Layer_1-2" data-name="Layer 1">
    <g id="ohhdVU.tif">
      <path class="cls-1" d="M1367.56,65.42v441.32H0V93.07c.78-.33,1.5-.67,2.23-.96,2.87-1.23,5.76-2.37,8.61-3.69,1.82-.83,3.57-.85,5.38.01,1.79.87,3.32,2.22,4.62,4.14,1.49,2.21,3.36,3.35,5.44,3.5,2.7.2,5.4-.09,8.09.54,1.95.46,3.93.69,5.89,1.02.36.06.71.19,1.06.21,2.44.17,4.89.35,7.33.43.91.03,1.82-.34,2.73-.32,1.33.03,2.46-.65,3.63-1.42,1.05-.71,2.2-1.12,3.29-1.69,1.18-.64,2.45-.81,3.56-1.79,1.72-1.5,3.6-2.43,5.62-2.53,1.77-.1,3.54.09,5.2,1.28,1.54,1.09,3.1,2.27,4.74,2.94,1.64.65,3.2,1.35,4.58,2.81.99,1.04,2,2.06,3.12,2.48,1-.23,1.93-.3,2.8-.67,1.84-.79,3.67-1.69,5.48-2.61,4.01-2.03,7.7-4.93,11.17-8.45,2.23-2.26,4.74-3.6,7.57-3.65,2.36-.04,4.67.34,6.95,1.15,1.77.61,3.47.59,5.21-.42,2.64-1.54,5.37-2.75,7.99-4.33,2.86-1.73,5.71-3.53,8.42-5.67,2.99-2.34,5.83-5.09,8.73-7.68,1.83-1.63,3.75-2.75,5.9-3.36,2.38-.67,4.52-.04,6.73.95,1.45.64,2.96,1.03,4.45,1.37,2.17.49,4.23-.68,6.34-1.09,1.63-.3,3.19-1.3,4.78-2.02.68-.3,1.39-.55,2.01-1.02,1.92-1.46,4.03-1.9,6.11-2.46.94-.27,1.89-.09,2.83.52,1.82,1.17,3.8,1.65,5.74,2.04,2.01.42,4.04.56,6.04,1.23.88.29,1.77.44,2.66.86,1.12.52,2.33.37,3.44-.29,1.48-.86,2.97-1.4,4.59-1.44,2.52-.06,4.98.42,7.32,1.68,1.81.97,3.51,2.34,5.25,3.57,1.63,1.16,3.22,2.49,4.87,3.58,2.02,1.34,4.08,2.58,6.16,3.75,2.69,1.5,5.42,2.91,8.14,4.3,1.63.83,3.33,1.41,4.9,2.4,2.52,1.59,5.02,3.22,7.71,4.07,1.78.55,3.59.93,5.38,1.44,2.24.62,4.52,1.11,6.69,2.04,1.58.69,2.93.65,4.37-.48,2.21-1.73,4.61-2.08,7.08-1.66,2.58.46,5.11-.27,7.56-1.13,3.54-1.23,7-2.96,10.48-4.52,1.79-.81,3.6-1.61,5.34-2.61,2.84-1.63,5.46-3.89,8.04-6.26,3.32-3.03,6.85-5.36,10.73-6.68,2.09-.72,4.23-.54,6.31-1.44,2.51-1.11,5.17-1.5,7.74-2.34,1.83-.59,3.65-1.3,5.42-2.15,2.16-1.06,4.26-2.37,6.4-3.52,1.71-.92,3.33-2.11,4.8-3.69.98-1.04,2.02-1.98,3.04-2.94.55-.52,1.12-.48,1.75-.16,1.49.74,2.99,1.38,4.58,1.52.7.06,1.41.35,2.07.68,1.05.53,2.06,1.23,3.11,1.74.61.31,1.29.62,1.91.55,1.92-.23,3.89-.35,5.73-1.05,2.54-.95,5.07-.8,7.61-.61,1.45.1,2.83.86,4.02,2.34,1.99,2.48,4,4.91,6.22,7.01,2.32,2.19,4.79,3.24,7.45,3.27,2.88.06,5.66.92,8.47,1.59.57.13,1.06.22,1.62-.08,1.33-.68,2.69-1.31,4.04-1.92,2.3-1.04,4.45-.14,5.47,2.91.19.57.55,1.03.85,1.58.93,0,1.79.02,2.66,0,1.33-.03,2.64.07,3.91.76,1.8.98,3.61,1.89,5.42,2.83.62.33,1.3.52,1.85,1.02,1.14,1.04,2.38,1.53,3.69,1.86,1.71.41,3.4.68,5.15.18,1.29-.37,2.63-.41,3.95-.51,1.61-.11,3.2-.05,4.8-.86,2-1,4.01-.11,5.86,1.21,1.33.92,2.69.85,4,.22,1.64-.81,3.26-1.7,4.81-2.8,2.17-1.52,4.42-1.11,6.6-.61,1.68.4,3.28,1.52,4.88,2.48,1.45.86,2.84,1.95,4.26,2.92,1.02.69,2.12,1.29,3.23.9,1.43-.49,2.95-.26,4.33-1.2.73-.49,1.54-.73,2.32-1.08.91-.4,1.83-.85,2.76-1.18,1.73-.59,3.48-1.04,5.2-1.64,2.37-.85,4.73-1.75,7.22-1.51,1.37.12,2.76.04,4.14.06.4.02.82.02,1.21.16,2.07.77,4.16,1.42,6.18,2.41,2.17,1.05,4.33,2.22,6.36,3.72,2.98,2.19,6.18,3.76,8.97,6.54,1.69,1.69,3.68,2.35,5.81,2.23,2.9-.15,5.82-.19,8.73-.04,2.57.14,5.07-.56,7.59-1.04,2.31-.46,4.6-1.13,6.9-1.66,2.06-.48,4.12-.86,6.17-1.38,1.1-.27,2.21-.61,3.26-1.12,3.36-1.65,6.81-2.96,10-5.32.57-.43,1.23-.63,1.93-.32.87.36,1.79.53,2.67.84,2.46.89,4.96,1.53,7.35,2.81.81.44,1.67.87,2.51.9,2.25.11,4.5.09,6.74-.04,1.88-.13,3.74-.5,5.62-.74,1.62-.2,3.24-.35,4.86-.54.51-.07,1.01-.23,1.51-.35,1.81-.36,3.64-.58,5.42-1.15,1.54-.5,3.08-.85,4.65-1.12,1.13-.19,2.26-.79,3.33-1.39,1.02-.6,1.99-.97,3.1-.6,1.29.45,2.59,1.04,3.89,1.05,3.09.05,6.22.59,9.28-.64.24-.11.51-.09.77-.08,2.18.1,4.22-.63,6.2-1.9.92-.6,1.96-.78,2.91-1.27,1.38-.71,2.85-1.01,4.13-2.14.78-.69,1.61-1.26,2.42-1.86,2.57-1.92,5.3-3.44,7.52-6.23.63-.78,1.42-.87,2.18-.62,1.19.41,2.38.83,3.53,1.41,2.19,1.1,4.35,2.28,6.64,3.03,3.62,1.2,7.06.49,10.51-.93,1.12-.45,2.21-1.08,3.34-1.39,1.9-.5,3.79-1.03,5.54-2.23,2.05-1.39,4.32-2.18,6.08-4.42.8-1.03,1.75-1,2.74-.52.66.32,2.76.15,3.52.15,1.19,0,2.17-.81,3.18-1.44,2.77-1.72,5.64-2.8,8.61-3.54,2.15-.52,4.29-1.19,6.4-1.96,1.95-.73,3.72-2.29,5.74-2.77,1.59-.4,3.13-1.32,4.78-.5.52.27,1.07.41,1.6.63,1.22.52,2.45.99,3.65,1.59,1.48.72,2.97,1.44,4.4,2.35,1.84,1.22,3.59,2.72,5.45,3.91,1.24.79,2.64,1.06,3.88,1.85,2.13,1.37,4.32,2.62,6.05,4.99.44.61.86,1.25,1.31,1.85.26.33.54.74.86.85,1.37.52,2.5,1.63,3.56,2.86,1.57,1.85,3.09,3.81,5.14,5.14,1.66,0,3.5-.02,5.34,0,1.7.02,3.3-.79,4.91-1.4,1.62-.6,3.21-.66,4.8.01,1.75.75,3.47,1.6,5.2,2.42,1.23.58,2.42.28,3.61-.25,1.97-.86,3.96-1.67,5.91-2.68,1.51-.79,3.05-1.64,4.42-2.82,4.06-3.48,8.08-7.07,12.04-10.76,3.85-3.58,7.63-7.31,11.4-11.04,2.31-2.29,4.49-4.83,6.38-7.82.89-1.41,1.77-2.86,2.52-4.41,1.25-2.6,2.92-4.46,4.81-5.95,1.71-1.34,3.46-2.32,5.51-2.07,2.09.27,4.03-.89,5.77-2.43,3.04-2.67,6.23-4.86,9.52-6.8,2.4-1.4,4.74-2.98,7.14-4.37,2.12-1.23,4.27-2.35,6.43-3.42,1.24-.62,2.55-.96,3.79-1.58,2.3-1.15,4.59-2.38,6.87-3.6,1.71-.92,3.47-1.69,5.1-2.85,1.35-.98,2.61-1.2,4.1-.88,2.54.56,4.73,2.04,6.71,4.34.47.54.98,1.03,1.49,1.47,2.23,2,4.89,2.35,7.25,3.87,1.27.81,2.68,1.22,4.04,1.75.54.22,1.1.32,1.65.44.95.21,1.9.38,2.86.56.75.13,1.51.25,2.27.35,1.31.19,2.65.19,3.94.58,1.34.39,2.64.39,3.92-.16,1.21-.5,2.41-.48,3.75-.32.7,1.03,1.44,2.14,2.19,3.24,1.8,2.6,4.14,3.67,6.5,4.54,1.72.61,3.51.77,5.25,1.22,1.87.47,3.73.77,5.62.68,1.54-.07,3.07-.03,4.6-.05.46,0,.92-.04,1.38-.1,1.46-.25,2.92-.51,4.38-.75.61-.08,1.24,0,1.83-.19,1.43-.46,2.84-1.04,4.26-1.57,1.57-.61,3.14-1.2,4.7-1.82,1.03-.4,2.04-.88,3.07-1.25,1.32-.49,2.67-.85,3.98-1.36,2.84-1.12,5.64-2.38,8.48-3.47,1.76-.66,3.56-1.1,5.52-1.71.05.02.29.19.53.25,2.52.61,4.92,1.76,7.24,3.22,1.17.72,2.25,1.71,3.41,2.47.87.58,1.77,1.2,2.71,1.4,1.5.32,3.04.34,4.56.48.41.04.82.09,1.22.13,1.82.24,3.64.54,5.47.71,1.07.08,2.15.03,3.21-.06,1.37-.15,2.74-.38,4.1-.61.9-.15,1.79-.55,2.7-.58,2.45-.06,4.9,0,7.35.02.41,0,.82.03,1.21.17,1.88.62,3.77,1.21,5.62,1.98,1.6.66,3.21,1.36,4.71,2.37,4.28,2.91,8.73,5.17,13.14,7.6,2.8,1.53,5.58,3.11,8.11,5.5,1.14,1.07,2.39,1.91,3.65,2.69,1.77,1.12,3.6,2.01,5.38,3.1,3.73,2.28,7.45,4.62,11.18,6.91,2.48,1.51,4.95,3.02,7.46,4.39,3.41,1.86,6.67,4.29,10.26,5.48,2.21.75,4.37,1.84,6.55,2.82,1.98.9,3.95,1.86,5.92,2.76,1.55.73,3.08,1.51,4.64,2.07,2.27.82,4.55,1.59,6.85,2.1,1.11.24,2.17.67,3.25,1.04,1.24.42,2.49.73,3.7,1.25,1.94.82,3.84,1.85,5.79,2.69,2.19.94,4.28,2.26,6.31,3.75.71.52,1.38.73,2.19.5,1.59-.46,3.2-.9,4.82-1.06,2.29-.25,4.51-1.02,6.72-1.78.69-.22,1.35-.64,2.01-1,1.19-.64,2.36-1.17,3.66-1.39,1.92-.3,3.81-.89,5.76-.89.34,0,.68-.25,1.02-.39,2.19-1,4.39-1.91,6.73-1.66,1.66.19,3.21-.68,4.78-1.19,2.34-.76,4.34-2.68,6.25-4.81,2.78-3.07,5.74-5.7,9.15-7.22,2.87-1.27,5.75-1.11,8.62-.47,2.41.55,4.69,1.8,6.85,3.47,1.61,1.26,3.24,2.62,5.06,3.05,2.29.56,4.09,2.1,5.61,4.51,1.15,1.84,2.72,2.64,4.34,2.66,3.46,0,6.93-.27,10.39-.47,1.57-.09,3.15-.26,4.72-.45.55-.06,1.1-.21,1.63-.43,2.05-.85,4.06-1.78,6.26-1.75,2.49.03,5,.31,7.48-.37.34-.09.71.03,1.06.09.61.07,1.21.24,1.82.26,1.79.04,3.57.02,5.36.05,1.38.03,2.76,0,4.14.15,2.58.31,5.16.68,7.73,1.11,1.77.31,3.53.64,5.27,1.14,1.89.54,3.74,1.29,5.61,1.94,1.58.55,3.16,1.12,4.74,1.65.34.1.71.08,1.06.14,1.11.2,2.21.44,3.32.65.35.06.7.21,1.05.21,2.65.06,5.29.12,7.91.89,2.09.62,4.22.86,6.32,1.4,1.74.46,3.44,1.27,5.19,1.65,1.73.37,3.32,1.32,4.99,1.94,1.45.56,2.86,1.57,4.44,1.25.25-.05.53-.05.76.04,1.01.42,1.88.05,2.76-.65,3.69-2.96,7.62-5.15,11.51-7.48,2.15-1.27,4.31-2.5,6.43-3.88,1.1-.72,2.1-1.76,3.19-2.52Z"/>
    </g>
  </g>
</svg>