<?xml version="1.0" encoding="UTF-8"?>
<svg id="Layer_2" data-name="Layer 2" xmlns="http://www.w3.org/2000/svg" viewBox="0 0 1368.8 803.42">
  <defs>
    <style>
      .cls-1 {
        fill: #232321;
      }

      .cls-2 {
        fill: #94c35f;
      }
    </style>
  </defs>
  <g id="Layer_1-2" data-name="Layer 1">
    <path class="cls-2" d="M529.31,507.42c-.42-.2.8-2.87.65-1.42s-1.11,2.88-1.25,3.85c-.1.72.23,2.32.02,3.25.44,1.27,1.75,1.73,2.88.98-.79-2.71.22-7.1,1.51-9.62,1.14-2.22,3.22-4.04,4.98-5.76l3.05,9.48c.31,1.24.35,4.6.99,5.5.59.84,2.63.17,3.5.25-.59-1.91-2.11-3.74-2.61-5.71-.54-2.08-.52-4.97-.39-7.12.04-.61.42-4.07.53-4.25.27-.47.43-.15.72-.07,2.23.61,4.19,2.02,6.84,2.1,3.53.1,7.4-2.38,10.14,1.2.05.54-1.05,3.16-1.15,3.85-.11.74.3,2.24.2,3.4-.1,1.2-1.11,3.87-1.01,4.68.03.21.6.18.65.42.22,1.05-1.02,1.87.75,2.03,1.04.1,1.99-.31,3.01-.3-2.18-2.06-2.1-5.17-1.32-7.9.13-.47,1.62-4.23,1.82-4.37,1.99-1.34,2.97,4.07,2.14,5.88-.24.52-1.52,1.75-1.8,2.31-.59,1.19-.29,3.37,1.47,2.86.23-.07,2.77-3.68,2.81-3.93.11-.74-.38-1.78-.3-2.82.09-1.09.94-2.26.96-3.15.01-.82-.94-2.12-.85-2.5.12-.51,2.51-1.26,3.17-1.87.88-.81,1.55-2.51,2.58-3.42.42-.37,2.47-1.71,2.94-1.66.71.07,1.36,1.1,1.98,1.49.66.41,1.43.64,2.07,1.02.35.21.25.84,1.01.98,1,.2,2.66-.77,3.11-1.63.53-1.03-1.29-3.49-1.3-5.16,0-1.13.79-1.71.63-2.73-.16-1.06-1.53-2.2-1.73-3.02-.26-1.07.35-2.17-.81-2.95-1.6-1.09-1.83,1.43-2.63,1.9-.93.55-3.93-.04-4.82-.56-.58-.34-.57-1.05-.63-1.1-.6-.5-.62.49-.69.55-.34.3-6.66-3.24-8.28-3.48-6.63-.97-14.11-.17-20.79-.93-3.11-.35-6-1.45-9.46-1.07-6.14.68-4.09,9.88-4.44,14.31-.25,3.1-1.79,5.9-1.67,8.8.06,1.47,1.57,2.52,1.1,4.69-.17.81-1.52,2.12-.27,2.76ZM531.01,498.61c.67-2.82-.27-5.77.09-8.69l.69-3.92,1.69,10.55-2.48,2.06Z"/>
    <path class="cls-2" d="M199.61,430.59c-.83.57-2.06,2.06-3.34,2.53-3.42,1.26-6.73-.67-7.64,4.37l.95-1.41.47,1.41.47-1.41c1.71-1.86,2.22,8.04,2.57,8.5.62.8,3.89.4,4.41,1.01.26.31.61,3.66,1.75,5.08.95,1.17,2.99,1.41,3.07,1.72.35,1.24-.48,3.27-.52,4.64-.08,2.35.47,5.1.4,7.09-.16,4.13-1.34,8.14-.87,12.75.56,5.57,2.1,8.27,1.44,14.59-.39,3.68-2.81,1.71-4.71,3.99,3.42,1.26,6.86-.39,10.36,0-1.1-2.57.15-4.99.03-7.29-.1-1.84-1.54-3.79-.96-5.9.53-.61,3.69,3.05,4.23,3.54,1.69,1.51,3.79,1.84,3.98,4.4.08,1.14-1.08,4.92,1.38,4.25.56-.15,2.33-2.68,2.47-3.23.33-1.28-.05-1.97.56-4.14s-2.01-2.3-3.44-3.4-2.84-3.15-4.51-4.45c-1.25-.98-3.72-1.15-3.71-3.33.01-1.9,3.8-7.68,3.69-10.33l1.46-.28c-.38-3.33-1.19-7.29-.96-10.62.21-2.97,1.7-5.81,1.43-8.93-.24-2.77-3.74-5.7-1.17-8.29.43-.43,1.13.09,1.16.04.08-.14-.14-2.98-.2-3.3-.64-3.02-2.56-1.89-4.63-2.47-1.22-.34-2.49-1.63-3.82-1.33-.35.08-.26,1.01-.52.97-1.58-.27-2.8-2.48-5.28-.78Z"/>
    <path class="cls-2" d="M721.94,492.65c-.49-.05-.33.08-.45.31-.47.92-.38,1.94-.42,2.93-1.59-1.32-3.27-2.96-3.31-5.18-.29-.09-.13.88-.59.47-.12-.11.21-.83-.47-.59l-.07.42c-.5-.32-.31-.96-.55-1.43l-.51.26c-.15-.76-.41-1.3-.19-2.09l-.74,1.12-.4-2.07-.38.45c-.01-.68-.16-2.04-.75-2.46-1.29-.94-5.79,2.39-5.45-.88.11-1.11,2.91-3.09,3.43-4.1.39-.75,1.06-1.86,1.36-2.54.43-.97.45-2.19.83-3.18.76-2.02,4.23-4.06,5.94-5.48.87-.72,2.78-2.83,3.55-3.22.09-.05.34-.09.32.07-.59.66-1.11,1.4-1.71,2.05-1.8,1.97-4.41,3.98-6.01,6-.28.36-.63,1.07.02,1.16.34.04,1.81-1.09,2.3-1.35,2.35-1.24,5.99-2.39,7.72-4.38.62-.72.88-1.78,1.57-2.46-.44,2.44-2.36,4.57-4.33,5.96-.52.37-2.89,1.46-2.96,1.98-.03.25.41.58.47.98.08.53-.17,1.37-.44,1.84.68-.26,1.17.32,1.54.71-.75-.06-.3.62.1.93.18.14,1.72.84,1.84.8l.25-.87c.1-.11,1.13.4,1.6.23.12-.04.06-.32.18-.36s.58.12.65.09c.14-.06.04-.38.07-.4.12-.1.36.32.55.31.13,0,.62-.54,1.05-.62.17-.03,1.71-.21,1.8-.21.08,0,.79.76,1.44.52l-.38.45c1.23-.45,2.14.36,3.12.55,2.17.42,5.65-.79,8.12-.68,2.24.1,5.57,1.46,7.97,1.58,1.24.46,4.88,4.42,5.55,5.63.96,1.74.77,3.73.51,5.65-.07.52-.63,3.23-.87,3.44-.03.03-.74-.27-.85-.14-.06.07.2,1.01-.32,1.08l-.25-.4c.18,1.11-.55.63-.57.68-.49.98,2.43,3,2.65,3.88l-.85,10.51c.04.52-.57.4-.78.69-.5.7.18,1.33-1.58,1.6-1.78.28-.42-.53-.15-.91,1.08-1.56,1.18-4.26,1.13-6.22-.04-1.52-.12-2.76-.99-4.02-.27-.17-2.09,4.6-2.26,4.98-.4.88-.91,1.71-1.32,2.57-.75,1.57-.13.98-1.47,2.26-.23.22-.22.62-.5.79-.26.16-1.69.53-1.72.06,0-.14,1.46-1.7,1.74-2.22.56-1.04,2.51-6.26,2.47-7.23-.04-.76-.41-2.71-1.43-2.07l.13-.85-.59.47c.6-1.84-.87-2.49-1.86-3.68-.42-.5-.52-1.16-1.05-1.51-.38-.05-2.88,1.53-3.67,1.72-1.13.28-5.55.22-5.98,1-.26.48-.06,1.97-.13,2.6-.22,1.92-.45,2.58-.16,4.7.17,1.24,1,3.54,1.02,4.54,0,.22-.67,2.22-.79,2.29-.29.17-1.86.56-1.94.07.14-.74.88-.68,1.25-1.26-.15-1.94-.04-4.03-.68-5.91-.19-.56-.66-1.14-.88-1.72-.26-.67-.38-2.11-.81-2.5-.69-.63-.87.78-1.14,1.17s-1.08.68-1.11.86c-.12.79.3,2.54.32,3.52.02,1.18.08,3.65-.16,4.7-.08.35-1.28,2.48-1.5,2.61-.49.3-1.31.16-1.87.27.32-.46.81-.74,1.15-1.26,2.24-3.5.03-11.55.09-15.6-.93-1.51-1.23.87-1.99,1.33.13-.76.22-1.36-.2-2.07-.7-.15-.93.37-1.39.74-.04-.6.59-1.1.17-1.71-.46-.57-1.45.52-1.84.8-.34-.11.06-.49.06-.53l-.27-3.03Z"/>
    <path class="cls-2" d="M1275.08,461.08c.4.63,1.02,1.87,1.57,2.1,1.81-3.09,1.8-8.2,3.47-11.01,1.88-3.17,7.2-5.56,9.17-8.98-6.33-.51-12.37,1.78-18.4,2.92-.66.12-2.13.33-2.12-.56.02-1.62,20.86-4.03,23.15-4.21,2.99-1.41-.59-8.48,4.16-9.51,1.05-.23,3.17,1.87,4.76,1.37.24,2.89-.08,5.85-1.55,8.39,2.26.17,16.59,1.33,17.37,2.12.54.54,0,.99-.68,1.19-.64.19-7.92-1.47-9.66-1.66-2.66-.29-5.43-.1-8.09-.59.88,4.82,2.03,8.33,7.34,9.24,5.36.92,9.7,1.27,8.46-5.55l.53,4.73h.52s.53-4.21.53-4.21c-.39,1.28.79,6.22,0,6.84-.07.05-.96-.59-1.03-.53-1.79,6.53-5.69,12.7-6.33,19.47,1.83.27.74-2.05,1.83-3.17,1.43-1.48,2.54.33,3.17.35.48,0,1.71-1.31,2.64-1.21,1.1.11,1.71,2.28,1.89,2.4.09.06,1.9-.47,1.97-.55,1.44-1.52-2.52-11.58-3.19-13.77-.16-.51-.86-1.6-.16-1.95,2.51,2.45,4.08,16.84,5.57,17.87.63.44,4.55-3.37,3.52,2.28-.22,1.22-1.13,2.06-1.33,2.89-.31,1.3,0,2.63-.27,3.94-2.58,12.84-19.92,10.76-21.91-2.55-.72-4.8.8-4.63,2.16-7.72,1.33-3.03,1.67-6.96,3.84-9.85,1.03-1.12.96-.32.57.56-.9,2.01-3.7,6.57-3.49,8.61.04.39,2.53,1.12,2.56-.05,1.13-5.62,4.97-10.75,4.84-16.5h-11.32c-.98,0-2.69-1.97-3.42-2.63-.06,3.24-2.3,13.41-.79,15.79.79,1.24,3.24,3.8,3.83,5.66.9,2.84-.08,6.55.11,9.34.11,1.63,1.2,6.81,2.47,7.54,1.04.6,2.93.15,3.32,1.15-1.06.17-7.04.72-7.32.48-.65-.57-.03-3.06-.17-3.77-.57-2.87-3.23-5.93-1.98-9.86-10.75-2.3-10.91,8.44-16.27,14.54-.25,1.64,2.83,1.07,3.11,2.3-1.12.14-7.37-.4-7.36-1.31.66-.61,1.23-1.21,1.67-2,2.67-4.82,4.4-10.01,5.95-15.1.59-1.92,3.22-5.85,1.89-7.59-.44-.58-1.5-.03-1.66-.61-.69-2.49,1.71-14.18,1.03-14.91-.06-.07-1.69-.44-1.81-.42-1.55.23-3.6,9.61-4.19,11.4-.37,1.13-1.58,2.33-1.73,3.03-.12.58.98,5.14,1.31,5.8.42.85,1.46.84,1.69,1.52.44,1.3-.52,2.3-.49,3.05.02.43,1.36-.15.99,1.49-.81,3.54-6.51,10.29-10.21,10.88-7.34,1.16-16-6.13-13.8-13.8.49-1.69,3.59-7.26,4.62-9.33-.28.88-1.83,6.07-1.58,6.31l4.21,1.05c-.26-2.1,1.12-5.05,3.41-3.12.33.27-.02,1.23.79,1.01l1.58-18.94c-1.4,1.38-2.53,3.15-3.68,4.74,1.33-2.61,2.72-5.23,3.95-7.89,1.47,3.7,3.68,7.15,4.48,11.05l-4.21-7.89-1.09,17.07c2.55-.17,2.75,2.02,3.26,2.37.33.23,1.41-.74,2.55-.25.91.39,1.68,2.47,1.86,2.39,1.88-.81.47-4.69-.15-6.17-1.64-3.93-1.35-3.25-2.22-7.52Z"/>
    <path class="cls-2" d="M1059.89,402.78c.36.36,1.21,3.72,2.51,3.52,1.46-.23,1.54-1.55,1.67-2.72,1.67,3.32-.03,5.06,4.97,4.38-.16.99-2.64,2.13-2.75,2.62-.17.73,2.05,3.66,1.56,4.13-.08.08-.84-.16-1.1.07-1.53,1.36,2.91,9.53,3.6,11.55,1.28,3.75,1.62,9.78,3.13,12.78.36.71,8.5,10.67,9.29,11.39,4.62,4.19,10.03,1.99,14.68,8.79,4.37,6.4.99,11.91,1.82,18.86.21,1.74,1.53,2.32,1.61,3.18.39,4.46-.48,9.92,0,14.7.28,2.8,1.78,6.21,1.97,8.41.09,1.09-.45,1.98-.38,2.72s1.69,2.05.13,2.54c-1.25.4-2.76-.7-4.11.05-.22-1.4,1.33-2.13,1.57-3.4.53-2.88-.63-9.91-1.3-12.98-.36-1.64-.89-3.14-1.47-4.7l-.82,8.55c.01,1.93,1,5.84.76,7.47-.14.95-1.23,1.45-1.44,2.15-.18.59,0,2.03-.08,2.11-.14.14-3.93.53-3.97-.2-.02-.32,2.38-2.72,2.68-4.47,1.32-7.86-1.52-18.19-4.61-25.43-.4-.94-2.8-6.04-3.25-6.32-1.39-.88-2.69,1.65-2.85,1.74-1.46.88-1.94-1.24-2.58-1.45-.7-.23-1.69.02-2.55-.24-1.12-.33-2.17-1.17-2.97-1.41-.74-.22-.53.13-.59.58-.79,5.92-.42,16.94,0,23.07.17,2.44,1.44,6.07,1.47,8.03.02,1.01-.8,1.85-.67,3.08.09.88,1,1.61.79,2.62h-5.56c.1-1.23,1.33-1.58,1.79-2.77.98-2.53.8-12.36-.44-14.69-.25-.48-.8-.82-1.16-1.22-.03,1.76-.53,3.63-.61,5.35-.11,2.28.47,5.97.21,7.84-.11.79-.81,1.36-.96,2.14-.12.6.08,2.47-.02,2.57-.16.15-3.69.21-4.38.39,2.31-2.12,2.61-4.72,2.8-7.73.71-11.07-1.03-22.85-3.37-33.65-.42-1.95-1.78-4.2-1.83-6.16-.05-2.48,2.28-4.18,2.37-6.38.1-2.25-2.12-8.29-2.35-11.51-.72-9.83,2.75-17.29-2.31-27.12-.3-.59-1.11-1.15-1.22-1.6-.21-.82.44-1.56.29-2.22-.34-1.44-3.71-3.12-3.91-4.06-.4-1.84,3.2,1.25,3.97.6-.23-1.55-.7-3.44-.8-4.97-.04-.68.41-.97.79-.59Z"/>
    <path class="cls-2" d="M968.54,500.49c.29,2.03,1.69,3,2.94,4.41-.86.29-3.9.99-4.17-.24-.09-.4.47-1.12.41-1.59-.02-.18-1.47-.68-1.72-3.01-.54-5.09.87-10.34-1.27-15.36l-1.68,3.78c-1.09-.29.21-2.23,0-2.94l-1.26,1.26c-.45-1.81.79-4.53.82-5.71,0-.2-.81-.1-.83-.43-.02-.26.51-.78.35-.97-.11-.14-.69.02-.76-.05-.25-.27,2.32-2.31,2.54-2.71,1.72-3-2.17-9.97-1.2-14.24.15-.65,3.73-5.18,4.36-5.74,2.65-2.31,8.28-3.67,11.5-5.75,2.76-1.79,4.32-4.77,7.33-6.14,2.68-1.23,6.32-1.51,9.34-2.86,7.19-3.2,12.73-9.28,17.69-15.17.62-.55-.87-1.53-.66-1.67,2.52.9,3.07-1.1,3.9-1.42.75-.3,1.5.31,2.21-.22,1.4-1.03.73-4.07,1.68-4.25,1.82-.36.72,4.74,1.04,5.05.19.19,2.08-.41,2.75.4.13.15.17,2.78.66,3.98.31.76,1.63,3.05,2.12,3.77s1.64.85,1.65,1.73c-1.45,3.14-2.49.75-3.84.04-1.1-.59-2.63-.45-3.76-.87-1.45-.54-2.58-2.5-4.18-1.26-1.12.86-3.02,5.3-4.06,6.9-2.35,3.63-5.26,7.56-8.37,10.57-1.99,1.93-7.99,5.52-7.72,8.51.08.91.93,1.88,1.09,2.73.64,3.39-1.69,5.37-2.65,8.09-2.25,6.38-5.19,25.78-3.96,32.19.35,1.81,1.77,2.02,2.08,3.6-.66-.05-3.43.39-3.79,0-.15-.16.41-.98.33-1.42-.09-.52-1.2-1.1-1.37-2.3-.27-1.9.59-5.04.64-6.99.13-5.13-.79-10.24-.44-15.38-.65.1-.67,1.8-.77,2.38-.28,1.64-.21,4.46-.57,5.74-.17.61-1.1,1.19-1.49,2.3-.5,1.43-.83,4.97-.95,6.63-.08,1.08-.35,5.93-.21,6.57.21.96,1.53,1.58,1.89,2.47-1.01-.09-2.18.16-3.16,0-1.63-.25-.48-1.22-.64-2.26-.69-4.68.42-6.81.84-11.42.15-1.66-.13-3.38,0-5.04.4-4.7,1.03-9.39,1.26-14.1l-6.51,1.64c-3.42-2.01-5.04.45-5.59,3.71-1.07,6.32.74,18.28,3.38,24.2.22.5,2.59,3.55,2.41,3.68h-4.21c1.22-1.82-.35-2.15-.74-3.25-1.48-4.1-1.4-9.54-3.79-13.88-.27-.49.03-.71-.94-.54.4,3.98-.55,8.99,0,12.84ZM964.75,471.66v10.1c.41-.12,1.38-1.89,1.45-2.13.58-1.95.52-6.81-1.45-7.97Z"/>
    <path class="cls-2" d="M248.05,490.41c-.5.04-.59-.57-.92-.75-1.14-.64-2.41-1.6-3.4-2.53-.69-.65-1.12-1.51-1.68-2.19-.17-.21-.22-.39-.55-.34-.12.72-.23,3.57-.56,4.03-.08.11-1.04.18-1.37.62s-.28,1.37-.33,1.42c-.1.08-2.51.13-2.51-.3.28-1.5,1.76-1.65,2.4-2.7.96-1.56.9-4.95.9-6.81,0-.97-.13-6-.43-6.5-.21-.35-1.39-1.33-1.82-1.89-.67-.88-1.1-1.92-1.92-2.71-1.06-1.02-5.67-3.72-7.03-3.37-.25.06-3.23,3.03-3.73,3.48s-1.17.75-1.57,1.13-.8,1.32-1.13,1.49c-.17.09-1.66.02-1.89-.03-.8-.17-1.06-1.61-1.09-2.3-.05-1.59,1.98-5.94,2.84-7.47.24-.43,1.48-1.91,1.44-2.13-.05-.3-.71-.32-.75-.37-.05-.06.59-.85-.7-1.03l1-.31c-.13-.39-.8-.23.04-.48l-.55-.44.6-.15-.71-.94c1.03.2.36-.26.47-.52.02-.06.91-.68.96-.71.16-.07.51-.01.77-.11.47-.18,1.37-1.04,1.24-.14h.19c-.04-.6.3-.15.37-.19.1-.06.11-.4.4-.48.45-.13,3.83.14,3.96.29.05.06-.1.75-.08.97l.64-.73-.09,1.16c.42-.03.38-1.03.78-1.11.47-.09.48.73.41,1.01.4.08.14-.67.25-.76.17-.15,3.82.74,4.45.56l-.06.78c.35.07.03-.35.5-.37,1.01-.03,3.07.36,4.01.75,1.01.42,1.84,1.99,3.03,2.33.62.18,1.28.08,1.89.2,4.09.8,8.2,1.25,12.4,1.4,4.42.15,8.27-1.12,11.91,2.18.74.67,1.85,2.49,2.3,2.84.28.21,1.88.51,2.55.81,1.99.92,3.69,2.57,4.78,4.43l-.4.16c.44.5,1.14,1.31.92,1.93l-.97-1.25c.15,1.07.78,2.09.71,3.18-.36-.18-.03-.56-.74-.45-.1,2.04-.33,4-.3,6.04l-.48-1.21c-.29.8.59,1.97-.5,1.33.14.53.21,1.02.43,1.54.4.96,1.5,1.59,1,2.49-1.07-1.28-2.13-1.5-2.42-3.27-.07-.4.03-.82.05-1.22l-.46.94c-.22-1.96.61-3.77.85-5.7.33-2.58.43-4.11-1.15-6.25-.83-1.13-1.9-2.31-3.44-2.23-.1,1.78-.68,3.74-1.57,5.28-.47.81-1.52,1.73-1.76,2.6-.62,2.26,1.26,4,2.18,5.83.66,1.32.07,2.84.08,4.27.01,1.71.33,3.45.54,5.14-1.05,1.07-1.66,1.9-1.83,3.45l-2.72-.22c.27-.97,1.78-2.05,1.98-2.88.32-1.33.15-5.27-.32-6.57-.56-1.55-1.95-2.81-2.78-4.14-.52-.85-.77-1.83-1.37-2.63-.43.26-.57.58-.76,1.02-.54,1.25-.65,3.58-1.11,4.44-.34.64-2.33,1.97-2.99,2.65-.8.81-3.13,4.24-3.58,4.51-.41.24-1,0-1.33.35-.37.38-.22,1.47-.29,1.46l-3.11-.25c.4-1.58,2.26-2.28,3.28-3.27.43-.42,3.76-4.1,3.88-4.37.58-1.3.78-3.15,1.06-4.5.38-1.82.92-3.39.63-5.33-1.31.4-2.47,1.2-3.77,1.62-3.62,1.17-7.68.05-11.35-.48-.16.66-.55,1.23-.92,1.79-.65.99-2.7,3.32-3.01,4.11-.86,2.18,1.68,3.69,3.11,4.79.23.18.26.54.5.66.38.19,1.89.21,1.85.77l-.23,2.82Z"/>
    <path class="cls-1" d="M673.85,443.73c-1.04,2.01-2.22,2.6-3.56,1.78.95-.66,1.2-1.76,1.79-2.17.8-.57,1.54.42,1.77.39Z"/>
    <g>
      <path class="cls-1" d="M890.34,222.69c-.73.22-1.15.76-1.45,1.41.14-.47.33-.94.56-1.41-2.69,1.81-1.29,4.96-1.81,7.38-.06.27-3.05,3.57-3.53,4.2v-2.68s-2.68,1.79-2.68,1.79c.9.8,1.73,1.26,2.46,1.38-.22.14-.45.27-.68.4.49.43,2.28-.51,2.22,2.66,3.91-1.29.36-2.34,1.77-6.25,1.08-2.97,1.46,2.66,3.14.9.35-.37-2.95-5.84,0-9.79ZM887.49,230.81c.01-.05.03-.1.04-.16h.04c-.02.06-.05.11-.08.16ZM888.45,228.02c-.07-1.13,0-2.23.27-3.33.03,1.19-.06,2.3-.27,3.33ZM771.83,287.71c-3.41-2.11-5.03,6.14-.89,3.57-.04-4.51-1.27,1.06-1.77-.01-.81-3.64,1.73-2.88,2.66-3.56ZM462.66,381.23c-.15.01-1.1-1.38-1.78.89.61,1.8.92,7.75.51,9.84-.81,4.06-4.84,10.17-7.62,13.32,1.31-8.6.56-17.52,3.56-25.83-2.38-2.28-3.66-5.85-6.76-3.83,2.4-1.3,5.53,5.08,4.08,7.39-1.31-.36-4.9-6.71-4.45-7.13-.92.7-1.43,1.59-1.78,2.67.76.86,3.57,7.58,3.57,8.46v18.7c0,1.16-1.56,6.37-1.78,9.36-.02.22.77,1.13.78,2.1v.02c-.09.52-.16,1.04-.23,1.56v.02c-.84,3.52-3.45,8.27.34,11.44-.68-6.27.6-14.51,3.38-20.23,1.17-2.39,8.59-15.1,9.98-16.75,1.72-2.07,5.11-3.78,7.14-5.78-.41-.41-.82-1.7-1.78-2.66-5.55,7.27-6.5,4.36-7.13-3.57Z"/>
      <path class="cls-1" d="M681.18,273.42l.23,1.82c1.21-.83,7.29-1.53,7.57-1.8.17-.17-1.46-3.45.42-4.44,3.96,2.45,8.26,4.24,12.39,6.37.95.49,1.13,1.94,2.13,2.5,8.67,4.9,29.92,6.05,39.84,5.36,8.07-.55,15.95-4.11,23.18-3.73,1.05.06,2.03-.79,3.11-.71.6.58-3.85,5.5-.43,6.23,1.76.37,2.7-3.26,4.89-2.66-.76,1.45,1.18,7.74-2.67,5.34-.93.67-3.48-.08-2.66,3.56.5,1.07,1.73-4.5,1.77.01,1.52-1.53.37-2.51,3.56-.46l-4.44,8.47,4.9-5.34c1.17,1.41-1.28,2.46-1.42,4.88-.17,2.77,3.31,10.22-.8,10.27-.43,1.73,1.96-.02,1.77,1.76h-4.46v4.47c4.4-1.08.07-2.48,4.45-3.57,2.27,3.43-3.76,6.09-2.65,7.12.9.84,5.13-4.16,3.55.44-.26.76-11.42,2-11.58,7.12l7.13-1.32c.65,1.45-2.76,3.49-1.77,4.45,1.39,1.35,3.42-2.29,4.44-2.66,1.1,3.2-3.04,3.49-3.48,5.03-.35,1.2,1.19,3.5.82,3.87-.34.33-3.4-.61-3.62,2.23-.1,1.37.58,4.84,2.71,4.01l1.78-4.45c-.16,4.36-1.9,8-1.77,12.46l3.56-.88c1.13,6.23-1.64,3.8-4.41,5.83-1.67,1.23-2.92,5.85-.5,4.85,2.27-.94,2.24-4.81,4.91-4.44-1.42,9.19.66,18.29-.01,27.6l-.88-3.56c-5.87,3.27.04,4.32.01,4.9-.01.4-4.63,2.27-2.67,6.68l3.57-2.22-1.31,84.23c-2.49-.29-4.93,1.33-6.4,1.5-4.07.47-7.04-5.15-6.56,6.45-3.85-3.16-8.72-2.42-8.92,3.1-.04,1.33,1.01,2.8.95,3.51-.05.74-1.78.68-2.25,1.4-1.15,1.76.73,4.64-2.55,3.45-1.5-.55-2-2.86-4.57-2.62-2.78.26-1.97,4.09-3.64,4.43-1.26.26-3.54-1.75-5.75-.37-1.2.75-1.53,3.87-3.04,4.98-3.42,2.5-7.48-.03-4.97,7.96-3.51-2.34-7.38-2.3-11.34-1.1-.86.26-1.97,1.85-2.46,1.85-.45,0-4.48-4.6-6.47-5.07-1.74-.4-3.63.89-3.77.76-1.33-1.24-.38-9.75.21-11.82.61-2.13,3.17-3.68,2.01-5.11l-3.12,3.56c.15-4.91,1.32-9.83,1.76-14.7.59-6.4-1.9-11.16,3.1-16.5,5.91-6.31,12.93-9.06,21.41-8.86,6.69.14,3.89,0,9.25-1.32,3.92-.97,7.62,1.3,10.39,1.4,2.74.1,3.72-1.69,5.29-1.79.79-.05,2.01,1.08,2.25.81.8-.91-1.13-5.91-.89-6.22,1.12-1.45,11.28-1.07,5.35-7.13h3.58c-1.69-2.98,2.7-5.55-1.26-6.15-3.55-.53-3.2,1.58-5.45-3.66-1.16-.29-4.36,3.15-4.88.43-.39-2.05,4.56-1.85,2.27-4.93-.28-.38-6.36-3.85-7.87-5.26-2.89-2.71-5.85-6.32-9.07-9-.95-.79-2.58-.61-3.03-.97-.1-.08-.26-2.46-.15-2.52.55-.32,2.63.2,3.59-.01.45-7-8.5-1.79-11.85-2.79-1.8-.54-1.82-2.48-2.65-3.19-3.34-2.76-8.73-.11-11.64-.53-1.61-.23-5.42-.58-6.21-.75-1.43-.31-2.76-3.28-5.59-3.43-2.19-.12-3.54,1.67-5.25,1.7-1.95.04-3.7-1.95-5.85-1.34-1.5.42-2.62,2.28-4.22,2.95-2.55,1.08-5.75.57-7.65,1.29-1.23.47-1.19,2.02-1.66,2.31-1.29.79-5.37-.84-2.93,2.88.19.29,5.32,2.99,1.78,3.56-1.02.17-2.66-.99-3.51-.78-1.11.26-1.05,2.48-1.95,2.63-1.38.23-3.84-1.64-5.99-.89-2.14.75-1.36,5.15-2.53,5.98-1.61,1.14-7.6,2.36-9.61,1.07-.86,1.63,2,4.14,1.77,4.44-1.55,2.09-6.09.91-7.11,1.32-1.24.49-2.74,3.66-4.16,3.91-1.41.26-2.78-1.78-4.2-1.52-1.3.23-2.37,2.96-3.86,3.31-1.35.3-2.62-1.08-3.85-.33-2.89,1.76,2.64,4.49,2.65,5.36l-6.2,2.67c1.78,2.82,4.94,1.99,7.62,3.05,5.84,2.29.26,4.48,1.27,8.97,6.81-1.01,4.24.89,6.6,3.64,3.08,3.59,4.71.93,7.38.26,1.19-.3,3.1,1.31,3.84-1.22.95-1.41,3.2-.95,6.76,1.36,2.1.87,3.42.71,3.94-.47-1.92-3.75,1.22-1.74,3-1.87,2.01-.14,3.76-1.5,5.91.09.05-.53.27-.95.89-.89,1.34.82,2.52.23,3.57-1.78,1.98,1.08,3.17,1.08,3.57,0,1.34-.06,4.16.03,4.71-.11,1.38-.37,2.87-3.69,4.99-2.45.65.38,8,11.78,8.31,12.61,1.79,4.69-.13,7.23-.11,10.99.02,3.09,1.55,6.72.8,10.15-.67.03-1.37-.85-1.77-.89-.9-4.17-1.79-4.46-2.67-.89-.77-.02-2.31-2.22-2.66-1.78,1.31,2.25.02,5.06.26,6.56,1.33,8.5,6.14,13.05,2.88,22.86-1.63,4.89-3.48,1.23-5.53,1.03-1.49-.15-2.78,1.72-3.88,1.23-2.06-.94-1.42-4.46-2.6-6.35-1.62-2.62-4.86-1.85-5.29-2.28-.38-.39.26-2.99-1.81-4.87-3.48-3.14-6.92.87-7.2.53-.16-.19.27-1.63-.23-2.4-.43-.66-1.91-.82-2.47-1.56-2.85-3.75-2.35-7.13-8.87-3.17,3.73-12-11.62-12-9.82,0-5.65-2.98-6.63,2.41-6.24,7.12-2.68.19-3.65-2.04-6.57-1.78-3.55.31-6.43,4.84-9.46,4.02l4.45-9.35c-3.53-.4-6.93,2.14-9.4,4.4-1.37,1.25-1.63,3.17-3.07,3.61.84-5.31,2.86-10.43,5.34-15.14-4.28.75-7.11,3.86-9.1,7.41-.63,1.12-.79,5.44-2.54,2.74-1.16-1.77-.85-6.81-4.4-6.59l.88,12.46c-1.49-.75-1.72-2.87-3.1-4.48-.57-.67-3.25-3.54-4.03-2.64-.26,5.53,2.22,10.36,4.45,15.14-4.99-4.7-10.79-6.14-16.92-2.65,3.85,3.74,10.65,5.2,11.57,11.57-3.63-2.8-11.83-6.65-15.64-2.72-1.4,1.44-1.15,3.49-1.29,3.62-.39.37-5.86-2.36-7.72-2.39-2.86-.03-4.61,2.54-6.89,2.4-1.38-.08-2.55-1.32-3.85-1.59-4.45-.96-6.42-.29-10.06-4.4-.12-9.41-1.84-16.46,1.91-25.52,3.09-7.44,7.91-10.13,15.23-12.4,6.26-1.94,14.83-3.85,21.16-2.02,1.69.49,4,2.74,4.93,2.82,1.31.11,3.08-1.5,4.39-1.48.46.01.64,2.76,3.48,2.48,3.35-.32,8.63-6.68,8.58-9.95-.07-3.91-4.55-3.92-5.2-6.49-.57-2.24,3.18-5.07,1.22-8.26-.95-1.55-7.41-3.78-7.49-4.89-.11-1.33,3.92-3.71,1.93-8.24-1.99-4.54-7.1-3.58-8.94-4.88-.58-.41-.72-2.64-2-3.81-1.08-.99-3.43-1.22-3.55-1.37-.26-.32,2.86-4.54-.81-7.62-5.74-4.83-13.73,3.58-15.22,2.3-.19-.17-.05-3.87-1.77-4.92-2.47-1.5-5.24.64-6.62.32-1.72-.39-2.69-8.25-9.43-4.31-1.47-15.75-16.87-10.63-14.27,3.56-5.32-2.4-10.16,3.88-8.01,8.91-4.22-5.25-7.37.13-9.19-.14-2.77-.42-3.67-5.17-10.46-3.01-5.74,1.81-2.48,6.98-3,7.65-1.23,1.58-6.58.26-7.63,4.9-1.22,5.44,3.21,3.71,4.44,7.94-6.47,3.29-14.97,5.29-15.23,14.27-.24,8.7,5.57,5.27,8.16,7.07,1.07.74.7,5.69,4.15,6.6,4.16,1.1,7.49-4.25,9.58-4.31,1.63-.04,3.69,2,5.6,2.43,4.56,1.02,20.16,1.68,22.02,3.82,1.53,1.76,3.77,9.46,4.03,12.01.31,3.1.41,26.1-.38,27.2-.46.65-5.59,1.92-5.83,1.73-.56-.42-4.39-14.85-5.37,0-2.25-.92-2.34-4.75-5.34-4.45v4.44c-3.01.12-1.21-2.93-5.2-2.08-3.44.74-1.38,2.66-3.71,3.87l.43-8.9-7.56,5.34,7.12-13.34c-1.07-1.05-10.06,6.1-11.57,7.12l3.55-13.36c-1.69.68-3.24,1.73-4.49,3.08-1.63,1.75-1.92,3.81-3.52,4.94-.89-1.87,2.27-10.53-.45-10.67-2.48-.13-4.79,5.94-5.34,7.99-2.55-2.88-2.32-9.32-7.58-8.89l1.77,16.03-5.33-3.57-.89,4.45v-10.68c-2.32-.84-5.94,4.29-6.68,4.3-.59,0-2.48-2.39-3.59-2.31-1,.06-2.25,2.89-3.73,3.22-1.56.34-3.7-1.39-5.61.14-.63-2.11,2.3-3.96,1.77-5.75-.6-2.03-4.16.73-.89-5.82-8-.74-2.64-2.53-2.64-4.91,0-1.34-1.79-2.47-1.79-2.67,0-.55,9.07-5.61-.9-5.79,1.75-3.45-.48-2.21-.85-3.31-.5-1.45.47-3.36-1.29-4.8-2.49-2.04-6.4.51-6.76.09-.43-11.04,2-23.48,7.29-33.22,6.57-12.11,18.76-28.84,33.44-30.72,2.19-.29,5.07,1.42,7.63.72.86-.23.95-1.81,1.58-2.14,4.48-2.32,9.64-3.67,10.6-9.96.79-5.18-2.65-6.29-2.52-7.8.15-1.52,2.79-3.62,3.27-5.68.87-3.83.41-10.24-2.46-13.19-1.85-1.92-5.09-2.08-5.27-2.3-.62-.75.87-5.67-2.7-8.44-2.55-1.97-5.92-.96-6.27-1.29-.16-.15-.04-2.52-.44-3.55-1.87-4.78-6.11-3.92-8.97-6.2-1.41-1.12-2-3.45-4.02-4.89-4.42-3.16-7.02-.4-10.63-1.84-3.09-1.23-8.55-8.69-10.48-9.2-1.97-.52-3.93,1.06-5.97.77-2.14-.29-3.41-3.32-6.39-.97-1.03.8-1.14,2.65-1.26,2.74-.4.29-1.5-1.35-2.41-1.59-5.66-1.46-5.92,2.83-7.91,3.18-1.32.22-2.61-1.23-4.78-.28-4.82,2.12-2.37,7.31-2.7,7.6-.23.2-2.13-.25-3.06.05-7.3,2.4-8.65.07-13.21.99-.85.17-13.18,7.55-13.94,8.39-1.8,1.99-2.65,6.21-2.92,6.43-.5.42-2.28.12-3.34.64-2.54,1.26-4.28,7.03-4.52,9.77-.22,2.46.94,7.2.76,7.96-.23,1.01-2.02,1.14-2.59,2.01-.62.96-1.73,5.71-1.76,6.99-.13,5.24,3.98,6.25,4.29,8.07.34,2-1.63,4.59,1.04,7.74,1.2,1.41,3.09,1.02,4.45,2.01,1.29.93,1.83,3.19,3.66,4.37.9.59,9.51,2.96,10.39,2.98,2.2.05,2.72-3.21,4.79-3.03,1.39.12,8.89,3.81,10.36,4.8,7.38,4.98,19.28,32.72,20.53,41.82.23,1.61.64,10.54.23,10.9-.29.27-2.38-.39-3.37.18-1.11.65-3.23,7.92-8.2,6.06,1.1-8.53-6.19-4.79-8.95-6.64-1.1-.74-1.5-5.72-4.85-5.81-.65,0-9.13,5.24-9.46,5.68-2.37,3.07,2.03,6.04-5.26,7.32-2.39.42-2.94-1.79-5.25-2.71-.62-.25-7.12-1.34-7.49-1.25-4.13.91-2.71,5.64-3.28,8.14-.26,1.14-3.09.94-2.68,2.81.66,3.12,5.95,2.9,6.23,3.15.35.32-.98,2.3-.82,3.08.28,1.42,3.48.64,2.59,3.16-6.91-2.67-10.63,2.24-10.7,8.9-1.84-.4-.78-3.81-2.65-4.9-7.35-4.3-4.62,8.73-6.26,10.25-1.61,1.5-1.83-1.46-1.95-1.52-4.23-2.32-3.75,2.88-4.31,3.29-1.22.89-4.09-1.7-5.61-1.57-1.21.1-6.59,3.68-6.82,3.38-.22-9.35.26-18.75.03-28.1-.9-36.35-1.43-64.23,5.59-100.33,2.61-13.41,12.99-41.86,25.84-48.09,2.55-1.24,17.66-4.93,19.64-4.23,1.51.54,1.32,2.85,2.37,3.97,1.1,1.17,2.99.47,3.57.92,1.86,1.43,1.78,6.2,5.73,5.78,1.7-.19,2.22-1.84,3.2-2.23,1.46-.58,3.2-.33,4.38-.97.45-.23,5.56-3.74,5.81-3.99,1.21-1.23,2.15-8.03,1.86-9.84-.58-3.58-3.36-3.46-4.01-4.92-1.2-2.74,2.69-2.65,4.12-4.21,1.39-1.53,3.96-8.75,3.81-10.83-.1-1.43-1.45-2.68-1.45-3.61-.02-1.36,2.33-2.74,2.42-5.3.19-5.66-3.62-5.71-5.91-8.43-1.67-1.99-2.12-5.15-4.08-7.5-1.44-1.73-4.84-3.31-5.71-5.06-.75-1.53,3.49-6.13-.88-12.41-2.94-4.23-7.46-3.2-9.83-5.32-1.52-1.37-1.25-3.92-2.27-5.74-2.64-4.74-14.25-6.72-19.24-9.27-4-2.04-6.72-3.62-10.7-5.33-5.86-2.52-6.05,1.58-6.92,1.55-.71-.02-1.39-2.95-2.81-3.41-1.46-.47-3.38.14-4.99-.35-2.16-.66-4.95-3.58-7.56-4.07-1.28-.25-12.15-.06-12.7.28-1.21.74-2.82,5.15-5.01,5.56-4.98.93-11.47-4.44-15.74-3.17-4.89,1.44-2.16,6.78-3.27,7.42-1.42.83-4.36.25-6.36.79-5.46,1.46-5.47.86-9.95,1.54-4.33.66-7.95,5.88-11.43,7.36-1.39.59-5.66.89-6.06,1.52-.61.95.47,3.9-.49,5.3-.87,1.27-6.48-.1-8.12,5.22-1.35,4.37,1.16,8.13.34,10.99-1.07,3.75-10.28,6.43-10.28,12.49,0,1.76,1.65,5.13,1.36,6.34-.3,1.23-2.89,1.69-3.83,3.23-1.59,2.63-1.65,7.51-.68,10.42.75,2.22,3.09,3.81,3.57,5.35.62,1.93-.71,4.33,1.21,7.69,3.1,5.42,9.29,3.73,9.69,4.12.36.35-.81,4.7.83,5.85,1.41.99,7,.15,9.36.43,3.05.37,5.65.74,8.74,1.05,4.43.44,7.3,4.26,9.12-2.87,7.47,7.45,16.56,13.51,21.11,23.43,12.83,26.74,11.74,63.29,12.34,92.77.26,12.67-.14,25.27-.94,37.88-7.46-3.6-3.66-4.63-3.61-8.45.08-5.88-8.99-6-9.64-6.79-.55-.68.45-5.15-2.28-7.08-2.77-1.96-11.53-1.41-11.99-1.81-.66-.56.25-4.97-4.31-5.96-6.96-1.51-7.89,4.77-9.7,5.12-1.1.21-3.21-3.29-6.87-.9-1.77,1.14-2.17,6.03-2.42,6.25-.76.67-4.24-.89-5.71-.81-5.19.28-6.47,5.62-8.51,6.63-1.52.76-3.54.14-4.99,1.25-1.07.83-1.6,4.54-2.57,4.54-.8-.02-1.3-3.36-5.75-.38-4.92,3.3-1.32,6.98-1.82,7.51-.51.53-4.98-.46-6.05,4.21-1.32,5.79,2.48,7.38,2.46,7.82-.01.3-2.3,1.66-3.01,2.34-.56.55-.48,1.61-.55,1.66-.22.17-2.18-2.18-4.83-1.81-2.27.31-2.64,2.93-4.96,2.7v-29.84c0-1.96,12.27-32.7,14.1-36.67,2.75-5.98,4.74-7.98,10.87-10.52,8.67-3.58,25.83-5.95,35.22-7.53,8.17-1.38,16.47-1.33,24.46-3.63-1.97-4.39-6.3-2.9-9.76-4.05-4.19-1.37-8.12-6.93-10.79-7.92-4.14-1.55-9.92-1.71-13.94-3.88-3.56-1.9-7.52-8.35-10.08-9.52-2.6-1.18-5.62.1-8.26-.65-2.65-.75-7.85-5.6-12.74-6.04-1.96-.18-3.56.92-5.27.89-9.66-.16-19.63-4.64-29.42-5.34-11.57-.82-7.62,4.51-14.44,7.8-3.21,1.55-5.91.5-8.52,1.27-1.49.43-2.11,2.31-3.34,2.9-6.91,3.34-14.91.09-20.07,5.77-1.06,1.16-.96,3.07-1.9,3.64-3.79,2.3-17.51-.84-14.55,7.03-2.83.19-4.29,2.82-6.58,3.71-2.63,1.02-5.25.32-7.09.95-1.28.44-1.19,2.17-1.57,2.45-.64.47-3.41-2-4.22.64-1.67,5.44,4.11,2.07,7.47,2.04,2.1-.02,3.98,1.08,6.13.94,10.43-.66,20.22-1.6,30.9,1.3,2.38.65,18.34,6.06,19.08,6.76,1.52,1.47,2.84,5.63,5.33,8.03,2.47,2.39,5.64,3.36,8.05,5.31,9.13,7.37,12.04,19.42,12.9,30.74,1.08,14.07-.21,29.98-.88,44.07l-4.45-.89,3.56-8.01c-5.56-.91-7.25,2.62-10.24,6.22-.87-.02-3.32-7.34-7.12-8.01-1.52-.28-1.39.06-1.37,1.36.05,3.26,1.37,6.96,1.81,10.23-1.58.61-2.46-1.65-3.12-1.63-1.05.03-4.78,8.58-7.13-1.03-2.66,1.62-.88,6.23-4.47,5.36-2.37-.58-1.97-2.38-3.16-3.12-.78-.48-2.11-.36-3.25-.82-.51-.21.35-2.2-2.93-.54.67-3.42,4.86-4.24,0-6.67,7.59-5.41-.13-10.88-7.13-9.37,5.74-5.13-.07-12.48-7.13-10.69,1.85-2,1.9-3.96.66-6.44-1.47-2.94-3.62-2.03-4.09-2.59-.61-.74.57-3.71-1.38-5.3-3.27-2.63-5.88,1.09-7.1.89-1.25-.2-2.34-3.3-4.62-3.52-4.2-.42-4.24,5.61-6.33,6.19-1.26.35-3.34-1.03-5.16-.83-4.6.5-2.65,6.55-3.21,7.12-.14.15-2.87.1-4.19.7-5.81,2.63-2.51,8.76-2.9,9.12-.69.61-4.78-1.65-6.92,2.42-3.34,6.33,2.42,7.56,2.45,8.71.06,2.53-6.03-.02-7.97.86-2.64,1.2-2.8,5.43-5.37,6.7-.54-7.49-1.42-15.17-1.83-22.67-1.95-36.49-1.87-63.37,10.72-98.03,1.87-5.16,5.4-10.73,6.89-15.38,2.13-6.63,1.7-15.27,3.79-22.94,5.3-19.55,9.95-28.91,28.82-37.99,6.84-3.3,10.27-1.7,16.85-2.75,6.03-.95,12.2-3.93,17.3-4.83,7.76-1.37,20.59.8,29.24-.32,3.61-.46,9.04-3.16,12.96-3.52-.26-4.53-5.27-3.2-8.51-4.4-1.66-.62-10.62-5.68-11.95-6.76-1.76-1.42-2.05-3.55-4.23-4.68-3.81-1.99-14.61-1.47-18.34-4.59-1.65-1.39-1.21-4.12-1.58-4.45-1.03-.9-5.6,1.1-7.46.85-2.02-.27-3.17-2.85-5.57-3.41-1.64-.37-17.95-2.09-19.41-2.02-2.53.12-8.41,3.61-8.92,3.61-1.99-.12-1.27-5.92-1.1-7.32,1.17-9.18,7.24-19.98,8.6-29.48,9.08-4.99,16.9-11.83,25.64-17.34,3.57-2.25,8.47-3.64,11.8-6.02,7.23-5.2,14.45-21.73,24.55-20.93,3.13.24,4.72,2.14,8.94,1.9,3.99-.22,5.95-2.54,10.61-1.79,3.61.57,6.34,5.11,9.03,5.32,2.68.22,3.21-2.27,4.5-2.53,1.3-.26,2.99,1.27,4.46,1.35,1.32.06,2.75-.69,4.29-.66,2.99.05,4.53,2.49,7.17-.88.75-.96,1.26-3.39,1.41-3.5.68-.49,2.78.74,3.94.68,8.71-.46,8.39-1.12,15.1-4.33,3.44-1.64,9.74-1.63,12.08-3.07,1.81-1.11-2.17-5.34-3.12-5.9-1.81-1.08-2.99.22-3.11.11-.16-.16-.53-4.15-.94-4.45-.89-.65-4.4,1.8-6.25.5-1.08-.77-.97-3.44-1.99-4.72-2.38-2.98-6.24-.51-8.12-1.94-.98-.75-.33-2.63-.95-3.67-.71-1.18-10.59.44-11.1-.03-.3-.28,0-3-1.42-3.52-1.81-.54-3.35,1.76-3.55,1.76-.61,0-4.46-8.93-6.68-10.3-1.21-.74-3.19.91-3.55.52-.16-.17.16-1.85-.46-2.67-.72-.93-2.27-.59-2.86-1.15-.92-.88-.96-4.13-4.51-4.94-2.71-.62-3.55,1.41-4.24,1.43-.46,0-7.49-4.95-7.97-4.95-.6.01-1.58,1.94-3.41,1.5-1.15-.27-2.44-2.57-2.85-2.57-.67.02-.95,2.7-2.97,3.08-.47.09-6.32.37-6.65.32-1.67-.25-3.03-2.52-4.48-2.38-1.41.14-2.86,2.23-3.71,2.24-.7,0-2.79-2.08-4.62-2.17-1.74-.08-9.01,2.92-11.04,2.92-4.02,0-4.31-3.05-5.01-3.2-1.79-.39-5.16,1.63-7.41.96v-3.58c-1.85-.7-3.67,1.92-4.79,1.72-1.54-.26-3.31-5.14-4.55-5.1-.23.01-1.48,1.24-3.3,1.44-2.87.32-4.65-1.79-6.45-1.65-1.34.1-2.76,1.7-4.23,2.1-5.07,1.39-8.64-1-13.74-1.03-1.81-.01-6.69,1.31-7.04,1.26-.87-.12-1.44-1.37-2.67-1.45-.54-.03-.44,1.83-.9,1.86-1.86.13-3.71-2.77-5.38-2.76-1.85.01-1.69,1.92-2.45,2.43-4.44,2.98-5.36-2.01-8.13-1.56-1.54.25.32,4.76-5.39.07-1.49,1.85-3.5,5.02-5.83,5.81-1.13.39-1.97-1.58-3.09-1.36-1.23.24-1.14,3.15-1.47,3.44-.65.59-3.94-.25-5.54.27-1.57.52-2.37,4.01-4.18,4.8-1.69.75-3.22-.71-5.07.13-1.75.8-2.32,3.14-4.46,4.52-5,3.24-6.27-.16-9.59.19-1.86.2-2.45,2.21-3.76,2.54-1.12.29-2.35-.66-4.44-.09-6.18,1.7-6.65,6.81-7.44,7.35-.12.09-1.74-.96-2.87-.72-1.28.26-2.43,1.64-3.79,1.6-1.37-.04-2.43-1.98-4.38-1.8-.89.09-4.1,1.58-6.99,2.06-4.69.78-10.45,2.63-14.55,3.32-2.99.5-6.79-2.44-4.81,4.46-9.29-3.71-6.93.33-9.41,6.19-.56,1.32-5.4,4.99-1.59,6.17.84.26,10.09-.55,11.41-.81,1.76-.35,2.66-1.81,4.04-2.2,6.65-1.88,12.07.16,18.77,1.74,4.78,1.13,16.24,5.64,20.15,5.66,1.39,0,2.16-1.75,4.09-1.5,1.83.24,3.88,3.03,6,3.92,5.93,2.46,12.57,1.95,19.62,5.32,24.51,11.71,29.71,30.42,27.6,56.13-.08.96.52,2.99-1.32,2.22-2.03-.85-12.58-12.93-15.59-15.6-7.83-6.92-21.66-14.5-25.15-24.73-2.52-7.38,2.72-3.84,6.64-4.36,1-.14,10.99-2.96,11.37-3.42.28-.33.18-2.74-.91-3.09-6.51-1.18-12.75-3.08-19.06-5-5.37-1.63-8.08-2.37-13.2-3.66-1.65-.41-4.07-2.96-6.89-3.87-2.25-.72-8.94-1.45-11.21-1.19-.49.06-9.08,2.32-9.52,2.56-1.61.9-6.99,5.38-7.8,5.78-1.41.71-4.02.07-4.98,1.3-.84,1.08.92,3.23.51,3.59-.51.45-7.38-2.01-9.41.85-2.94,4.18,7.26,3.69,10.07,5.11,1.32.67,1.37,2.09,2.6,2.77,5.09,2.83,20.65-.54,27.24.37,3.17.43,11.11,5.26,14.31,7.11,15.55,8.98,31.46,22.47,44.28,35,5.6,5.47,12.62,10.26,8.82,19.09-.59.41-12.68-1.53-14.2-2.13-1.83-.73-2.74-2.44-4.2-2.93-2.89-.97-8.46,1.47-11.26,1.28-3.28-.22-4.81-3.34-6.74-3.79-.97-.23-2.25,1.45-4.05,1.49-2.17.05-3.91-1.85-6.26-1.93-1.83-.07-9.12-.08-10.61.06-2.25.21-3.51,2.3-4.69,2.5-1.49.26-3.16-2.08-5.05-1.54-1.89.55-1.96,3.92-2.47,4.29-1.73,1.24-5.03-1.75-6.42-1.5-1.35.24-4.01,3.16-6.56,3.19-1.82.03-3.34-2.7-5.06-2.36-1.69.33-2.23,3.71-3.84,4.24-2.25.75-4.63-1.35-6.51-.39-2.08,1.07-2.47,4.79-2.7,4.95-1.05.78-7.93-5.68-7.12,2.67-3.94-2.94-6.4.51-10.69,0-.03,1-.18,1.78.41,2.7.36.56,10.95,5.81,11.8,6.02,5.89,1.44,13.36,1.6,19.91,3.26,6.32,1.6,12.85,3.73,18.95,6.88,3.36,1.74,7.58,4.43,10.41,6.96-4.39,1.34-11.7-3.35-15.47-2.73-.86.14-.82,1.89-1.44,2.32-2.57,1.77-6.45-2.55-8.69-3-3.54-.72-8.48,1.59-10.34,1.46-2.51-.18-6.35-3.46-11.62-2.25-1.55.35-2.23,2.74-3.63,2.95-2.98.47-8.5-2.28-8.97-2.24-.72.06-1.04,2.68-3.04,3.17-2.1.5-5.76-.56-8.07-.55v32.06c2.98,1.42,8.07,1.1,10.67,2.25,1.35.6,4.85,4.37,6.86,5.61,8.6,5.29,17.03,3.76,25.85,8,6.04,2.9,9.35,7.82,14.8,11.03,7.73,4.53,12.93,3.22,19.17,11.12,15.78,19.95,26.18,62.9,25.09,88.02-.32,7.5-2.28,15.75-2.7,23.13-.52,9.35,1.73,17.93-.85,27.2-2.95.69-1.18-2.07-2.19-3.59-1.21-1.8-7.2-1.88-9.39-1.77l5.63-3.71c11.85-1.73-1.79-7.59-6.25-7.61-2.56-.02-3.26,2.51-5.62,2.41,4.05-5.17,10.49-7.87,16.03-11.12-6.28-6.16-14.06-4.51-20.47.44,1.12-6.63,8.59-8.13,13.34-11.14-8.61-5.62-12.19-7.18-16.03,4.01-4.8-4-8.49-9.84-14.23-3.12.03,1.29,11.28,5.47,10.67,9.36-5-4.84-11.56-4.52-16.9-.44,2.29,3.47,5.61,2.66,8.91,3.55.83.21,2,.23,1.75,1.34-5.53-.54-11.52.84-15.15,5.35h12.92c.15,0,1.4,1.2,1.33,1.77-3.68-.23-10.63-.62-9.87,4.82.05.37,5.71,2.6-2.6,3.21-.2-.18,1.48-4-.2-5.15-.21-.14-4.49-1.62-4.74-1.64-1.41-.1-2.76,2.35-4.4,2.37-.86.01-7.29-12.18-5.82,6.2-8.64-7.81-8.04-1.2-8.01,7.12-1.96.17-3.78-1.17-5.74-.91-2.61.34-3.14,3.75-5.84,3.59-.6-3.64-1.25-7.44-1.28-11.13-.17-20.08,11.48-30.01,24.01-43.19,6.25-6.57,12.21-17.51,23.21-16.11,3.51.45,2.73,2.7,3.63,2.82.91.12,2.55-1.12,2.9-.88.3.2.33,2.14,1.52,2.53,1.85.6,4.43-2.03,4.79-1.73.47.38-.43,2.7,3.13,2.74,5.76.05,5.23-4.35,6.87-7.52.88-1.71,3.18-.7,2.58-4.58-.31-2.07-2.11-1.4-2.6-2.79-.62-1.78.17-3.7-1.13-6.02-1.13-2.01-3.9-2.68-5.24-4.55,0-1.15,6.63-2.97,4.05-6.73-1.36-1.96-3.68.01-4.54-.11-1.72-.23-.46-2.89-1.21-3.9-1.29-1.72-7.18-4.02-9.44-4.04-1.12,0-3.02,1.09-3.13.96-1.77-2.26,1.46-9.94-8.9-4.45-1.83-8.96-9.31-4.26-11.63,1.76-14.84-9.19-9.26,2-9.76,2.67-1.19,1.58-15.94,3.29-18.95,5.34-.86.58-1.46,2.65-1.99,2.67-.33,0-2.69-3.12-5.05-3.85-2.61-.81-5.2-.64-7.87-.59v35.63c4.51-2.15,5.08.55,3.55,4.45l-3.54-2.66c-1.54,7.47,4.36,11.67,4.46,19.13-.06,1.27-3.64-.01-4.46-.43-1.35,5.19,4.48,3.84,7.14,7.55,5.02,6.98,1.53,14.29.88,21.42-.35,3.72.77,10.2-.15,13.2-1.17,3.82-7.08-2.08-7.88-1.19v105.17s0,100.17.02,200.33h1368.26l.27-199.23v-.29s0-108.66,0-108.66c-3.32.58-.31-1.67-1.25-2.71-.78-.87-2.74-.59-3.09-.97-1.16-1.33,2.01-4.41-3.01-3.19-4.46,1.08-5.73-.01-9.11.65-1.72.33-2.27,2-4.04,1.76,4.28-9.56.05-13.94-9.81-14.25,3.75-4.12,6.27-10.01,1.8-14.7-2.69-2.83-6.85-1.95-7.13-2.23-.34-.34.9-6.2-3.83-8.23-4.17-1.79-5.64,1.91-8.65,3.8-.51-2.96-1.64-5.1-4.88-5.41-5.27-.49-4.42,2.48-5.56,2.75-4.47,1.08-6.3-1.72-5.62,6.22-11.53-3.52-15.53,11.87-7.11,18.7-4.93-.16-12.74-.93-10.32,6.3.67,1.98,4.45,3.03,3.19,4.39-1.31,1.4-12.46-.85-4.46,8.01-3.98,1.22-2.43-3.43-5.05-4.32-2.39-.81-4.3.61-6.53.75.36-1.38,5.44-4.54,2.2-5.33-4.48-1.09-7.47,5.67-9.72,1.71-2.64-4.68-1.46-30.42-.45-36.85,1.06-6.75,6.32-3.53,7.07-4.07-3.03-3.41-1.51-4.13.89-7.1-1.23-1.15-7.73,7.26-8.03,8.88-1.46.24-.82-1.2-.87-2.2-.55-9.81,5.28-21.07,12.91-27.18,5.32-4.24,6.29-2.57,11.55-2.62,2.28-.02,15.96-.65,16.52-.05.24.26-.28,2.82.1,3.9.74,2.07,4.89.18,3.47,5.03,2.41.7,4.19-1.26,5.99-1.61,1.17-.23,2.53.73,3.29.56,1.34-.32,1.54-2.95,2.69-3.14,2.74-.45,4.54,3.21,4.97-3.84.48-.5,6.6,8.37,10.82-1.19,3.69-8.33-1.07-9.84-2.81-17.51,3.55.75,6.6-1.01,6.29-4.9-.26-3.24-4.04-1.82-4.51-2.24-.36-.31,2.35-5.06-1.26-8.97-1.68-1.82-8.19-4.41-9.49-5.88-1.21-1.39-2.39-6.14-4-8.25-2.36-3.14-4.5-3.75-6.8-8.34-1.87-3.74-1.26-8.75-6.71-9.34-1.61-.17-3.5,1.21-4.74.35-.9-.62-1.09-3.22-1.87-4.41-3.75-5.65-5.19-1.34-9.72-2.73-2.25-.69-3.55-3.32-5.36-4.47-1.44-.9-10.68-6.43-11.32-6.58-2.5-.6-3.48,1.11-5.08,1.21-3.83.26-8.32-2.57-11.54-2.24-3.42.34-4.49,3.66-6.5,4.27-3.53,1.08-7.57-1.45-11.38-.7-1.66.32-7.39,4.33-8.37,5.9-.69,1.11-.8,3.42-1.16,3.73-.53.46-3.13.13-4.66,1.13-1.25.81-1.49,2.8-2.91,3.32-1.98.73-3.97-.32-6.5,1.51-1.89,1.37-1.96,3.48-3.2,4.83-1.48,1.62-4.58,2.4-5.64,4.16-1.24,2.04-.56,4.62-1.15,5.54-.41.65-6.02,2.36-7.01,3.46-2.87,3.18.13,5.23-.12,6.79-.23,1.42-3.8,4.99-4.12,6.6-.28,1.43,1.2,4.14.71,4.67-.36.38-4.69.08-5.34,4.08-.86,5.25,3.73,7.56,4.33,10.86.39,2.15-1.77,6.92,2.54,8.12,2.49.69,4.76-1.52,6.07-1.37,1.16.13,1.78,2.93,5.27,2.39,1.14-.17,2.2-1.49,2.74-1.49,1.52-.03,3.98,5.09,6.47-.05.81-1.65.79-4.78,1.26-5.42.5-.68,4.13-.84,5.71-2.75,2.75-3.35-1.26-5.91,6.65-4.15,4.8,1.06,12.3,4.78,14.94,9.11,2.45,4.03,8.82,16.85,9.11,21.2.1,1.54-.18,13.23-.48,13.85-.18.36-1.05,1.09-1.34.87l-2.67-4.45c.14,3.8,2.95,6.51,3.48,10.32,1.67,12.23-.76,30.34-3.93,42.23-3.17,2.52,1.08-3.29-1.3-4.96-1.78-1.25-4.34.79-6.27.5,10.72-10.43-1.07-17.5-9.8-8.01,1.46-6.37,6.28-11.68,5.33-18.7-2.68.86-5.02,2.09-6.63,4.5-1.59,2.39-1.96,8.93-4.13,6.52-2.1-2.33-3.91-9.29-8.81-7.01-7.04,3.26,2.85,6.3,3.55,10.24-2.36-.2-3.51-2.54-6.24-1.77-.52,3.9.2,6.38,1.77,9.8-2.6-1.66-4.4-4.92-8-4.45,1.77,4.19.11,1.85-1.74,3.13-3.66,2.54,3.34,5.64,4.41,7.55-3.93-1.08-6.21.28-4.46,4.46-1.26-2.8-8.44-3.34-8.79-3.68-.47-.46-.41-5.72-1.42-7.03-1.27-1.64-4.59-.53-4.93-.86-.2-.2.2-3.65-.05-4.87-.27-1.33-1.18-2.44-1.31-3.57-.24-1.96,1.28-3.87.01-6.71-1.28-2.86-6.43-3.28-6.66-3.58-.6-.8,9.6-14.76-1.55-16.78-3.64-.66-11.88,5.06-12.7.3-.84-4.8.24-12.53.03-17.84-.8-20.32-2.65-44.7-.81-64.88,1.14-12.5,19.56-52.53,25.85-65.9,3.39-7.2,9.5-22.61,19.47-18.37.51.69-5.83,6.17-2.44,9.56,3.26,3.26,6.45-1.87,6.88-1.55.12.09.23,2.31,1.39,2.66,3.15.97,2.34-4.71,6.2,1.77l5.35-5.31c3.34,6.93,2.53,3.37,6.41,2.8,1.98-.29,6.25,2.32,7.3-1.64.76-2.88-2.42-2.73-3.05-3.81-.47-.82,1.63-4.41-2.26-7.56-2.8-2.27-8.51-1.97-8.85-2.28-.33-.3,2.53-7.31-1.44-7.97-.34-.05-5.19,2.99-5.91,3.5-.75.51-4.42,4.22-4.79,4.35-1.77.64-4.6-.11-6.57.12-.92-.67,10.26-8.17,11.12-8.91,2.19-1.86,10.3-11.96,12.94-9.78l-.89,2.66c7.89-3.07,1.48,3.41,7.13,2.68-6.29,5.88,4.34,7.83,3.57,14.24.6.66,4.83-2.77,6.61-2.71.57.02,5.97,8.48,7.22-.81.28-2.06.72-5.24.9-7.11.12-1.24-1.42-1.65-.74-3.34,1.58-3.92,2.55-.08,4.16-.33.95-.15,4.39-5.42,3.88.24-.21,2.35-2.14,2.71,2.02,2.48,1.59,1.51-9.36,6.46-1.77,6.24.33.31-4.4,3.49,1.77,3.57.34.36-4.08,7.37-.92,9.43,1.01.66,2.44-.25,3.12-.04,4.36,1.37,7.21,2.59,12.06,1.29.82-2.12-4.32-7.25-3.56-8.01,2.02-2,4.9,5.33,8.5,5.34,3.3.01.02-4.33,3.51-4.45,2.85,2.35-.69,6.33,4.03,5.35-.45,1.44-2.26,1.84-1.78,3.56,4.1-.93,2.21,2.85,3.74,5.65.56,1.03,1.92,1.28,2.19,1.76,1.08,1.87,1.1,5.71,4.17,5.78,2.81.07,2.57-2.84,3.46-4.51,1.45-2.74,3.52-2.73,1.6-6.9l2.65-.46-2.66-3.56,2.67-.44-1.77-4.45c1.29,1.04,3.15-.05,3.92.18,2.79.85,1.93,10.13,7.65,6.94v3.57c.99.35,3.2-.99,3.47-.8.68.47,2.38,6.68,4.11,1.69,6.76,9.94,4.4-9.04,4.98-9.73.34-.39,4.95-.46,5.31-4.13.49-5.05-7.13-2.66-7.19-7.94-.01-.97,2.71-.4,3.6-2.02.88-1.62,1.33-7.73.75-9.47-.79-2.41-5.67-1.14-8.13-1.65-1.59-.32-9.75-4.7-5.47-5.16,3.31-.36,8.36.63,9.28-4.03,1.55-7.95-5.31-6.29-6.72-8.39-1.25-1.86.65-5.77-1.26-7.63-.34-.33-8.08-3.89-8.54-3.97-2.22-.38-6.35,1.08-6.61.88-.24-.18-1.02-4.53-1.76-5.61-.79-1.16-2.79-1.26-3.52-2.95-2.27-5.28,9.12.9,10.61.15,1.2-.61,2.69-4.15,2.62-5.45-.12-2.11-2.97-2.84-2.62-4.39.41-1.78,5.91-1.32,6.27-2.82.65-2.7-.3-8.01-2.2-10.17-.96-1.09-3.15-1.78-3.62-2.62-.94-1.67-.18-5.17-1.24-6.6-.36-.5-7.18-1.06-8.11-4.54l8.37-3.19c2.57-1.59,1.55-6.63-.31-8.43-1.8-1.74-4.3-1.09-4.52-1.28-.37-.33,3.11-5.64-2.41-8.7-2.31-1.29-6.25-1.32-8.25-2.46-1.97-1.13-3.77-5.24-8.03-6.29-2.82-.7-3.28,1.62-5.07.8-2.36-1.08-3.13-5.04-6.47-6.1-3.25-1.03-9.99-.56-12.84-2.3-2.11-1.29-1.04-4.5-3.63-6.16-3.25-2.1-5.7.43-7.61-.36-1.83-.76-2.55-4.5-5.31-5.43-6.84-2.33-8.7,5.9-13.41,3.63-3.64-1.75.23-4.36-.15-6.93-1.22-8.31-13.95-1.13-15-4.69-1.15-3.92,6.86-3.25,7.11-9.88.13-3.45-6.18-7.27-9.15-6.45-1.57.44-2.59,3.07-3.89,3.31-1.42.27-3.61-2.48-6.82-1.51-2.15.65-4.49,7.52-9.54,6.1-.35-3.59-.29-8.86-4.86-8.95-1.47-.03-4.3,1.94-4.91-.48-.31-1.25,1.17-3.52.71-5.94-1.37-7.19-6.53-2.34-8.16-2.61-1.49-.25-3.92-3.59-5.39-3.33-1.58.28-2.37,3.91-3.81,4.31-1.51.41-3.22-1.47-5.63-.38-3.75,1.69-4.49,8.51-6.72,8.52-3.64.02-3.43-9.14-9.14-10.57-5.09-1.27-4.42,5.52-6.87,5.79-3.9.43-7.85-5.98-9.83-5.99-4.2-.02-5.12,10.93-8.9,9.83-1.68-.49-1.55-5.59-2.35-6.12-1.4-.91-5.27,1.82-3.26-4.82.57-1.86,3.16-3,3.31-6.49.08-1.62-.98-5.55-1.81-6.95-1.81-3.03-6.57-3.46-7.48-4.99-1.18-1.98.23-6.34-1.83-9.75-1.45-2.39-6.57-5.12-8.84-7.2-1.19-1.08-2.01-3.5-3.13-4.06-1.29-.65-3.47.95-5.59.37-1.79-.49-2.95-3.6-4.84-4.15-3.53-1.03-5.44,1.83-4.72-3.75l-11.97.86c-1.43-4.7-2.77-2.38-4.1-3.13-.95-.54-4.15-5.66-6.8-7.37-1.43-.94-13.11-6.38-13.86-6.22-2.83.63-3.91,3.09-8.49.95-4.72-2.18-1.61-7.01-2.36-8.26-.67-1.09-3.97-1.62-5.43-2.64-1.58-1.1-3.04-4.15-3.3-4.28-1.16-.63-2.96.25-4.1-.36-.64-.35-1.48-3.73-2.13-4.1-1.42-.81-4.48.52-6.1-.59-.98-.66-.55-3.19-2.83-4.3-3.96-1.92-8.42.5-10.83.04-1.18-.23-2.4-2.53-4.08-2.97-1.3-.34-2.57.54-3.85.32-2.87-.5-6.08-3.55-10.25-4.04-3.38-.39-5.78.86-7.74.66-2.01-.22-3.04-2.91-6.45-.59-.8.54-.59,2.42-2.48,2.44-.79,0-6.87-4.49-8.94-4.53-1.79-.03-2.63,2.44-3.66,2.61-1.19.19-2.14-2.07-4.09-1.57-1.51.39-6.35,1.77-7.61,2.3-3.21,1.34-2.86,5.64-9.12,6.12-2.28.18-3.13-1.79-5.72-1.46-2.46.31-5.96,4.51-10.1,5.16-3.93.62-7.08-1.29-10.25-.49-.86.23-12.55,9.06-14.46,10.52-1.77,1.35-4.35,5.07-5.83,5.75-4.75,2.19-11.34-5.55-11.57,5.81-6.25-4.28-6.26,1.01-8.94,3.96-.24.26-5.07,4.22-5.37,4.41-2.64,1.68-6.98,1.27-9.33,3.18-1.55,1.26-1.95,4.27-3.08,4.99-2.21,1.44-4.49-1.96-6.56-1.32-1.1.35-1.63,2.5-2.9,3.4-1.64,1.15-4.11,1.14-6.16,2.75-3.99,3.16-3.54,10.16-4.06,10.64-1.66,1.55-15.67-.71-12.41,9.87-4.77-.74-7.94-4.15-12.42-1.28-4.81,3.07-5.13,8.9-6.27,9.82-.58.46-2-.3-2.71.02-.82.36-4.69,2.73-6.13,3.55-4.51,2.54-1.39,5.15-2.24,6.6-.68,1.14-5.26,2.49-4.83,4.73.16.84,1.62,1.72,1.63,1.96.03,1.03-4.26,1.99-4.9,3.1-.95,1.62.14,4.21-1.23,5.9-1.4,1.75-6.6,1.25-7.08,3.56-.21,1.02,1.26,3.1.72,3.86-.28.39-7.42,2.38-7.98,4.98-.65,3.06,3.96,1.47,4.5,1.77,1.05.56,2.49,4.86,5.04,5.6,3.25.94,8.62-.63,11.3.13.9.25.35,2.44,1.93,3.57.34.24,7.55,2.65,7.96,2.66,3.88.04,4.46-4.05,4.93-4.39.69-.51,2.8,1.47,4.03,1.74,6.34,1.4,2.33-2.19,5.32-5.31l9.79,6.21c3.33-.78,5.29-10.33,5.81-10.67,2.71-1.8,3.53,2.95,4.4,4.05,2.64,3.26,4.28-.97,6.54-.4,1.59.4,2.36,3.33,4.46,3.31,5.2-.04,4.81-6,7.47-6.78,2.62-.78,14.59-1.78,17.65-1.77,2.02.01,4.41,1.24,6.69.72-3.97,9.98,8.08,18.13,13.8,8.02,1.99,1.35,3.33,6.23,6.2,5.31,1.26-.4.69-2.89,2.64-2.68.85.09,15.11,4.65,16.3,5.19.75.34,4.77,3.29,5.1,3.81.88,1.37.34,3.88,2.27,4.87,2.5,1.29,4.75-.84,7.16-.12,1.86.56,11.05,8.85,12.45,10.79,5.58,7.66,7.04,24.04,9.8,33.4-4.15-3.8-12.76-13.95-17.81-7.13,9.97-1.64,17.29,8.14,19.2,16.89,3.06,14.04-.01,27.46-.53,41.43-2.19,58.49-4.97,117.03-6.24,175.46-.45,20.63-.31,41.42-1.75,61.94-4.69-3.24-7.74,3.21-9.47,3.52-1.55.27-3.24-4.36-7.47-2.19-2.43,1.24-2.25,7.21-2.67,7.57-.97.84-4.69-1.82-5.79-.02-.64,1.04-1.23,7.32-2.24,8.04-.13.09-1.98-.99-3.07-.92-3.68.21-6.23,2.63-6.7,6.27l-4-5.33c-2.82,3.06-2.15,10.52-7.87,8.85-1.01-.3-.88-1.85-1.43-2.21-1.28-.82-3.43,2.87-2.72-3.1-2.53-1.14-6.05,4.3-7.6,1.81-3.5-5.63,2.95-19.52,7.16-24.07,2.11-2.27,12.66-10.2,15.37-10.58,2.63-.37,3.69,2.8,6.22,3.32,3.48.69,3.5-1.61,5.64-2.92,1.13-.69,2.82-.32,3.98-1.39.8-.74.76-2.52,1.54-3.34,2.06-2.16,7.21-1.56,6.95-6.94-.13-2.69-2.47-3.98-2.61-5.47-.12-1.31,6.36-6.95,1.26-11.91-1.38-1.34-3.22-.45-4.71-1.11-.3-.13-.38-1.72-1.93-2.04-1.81-.37-3.6.79-5.42.52-1.84-1.85,7.17-16.62.21-20.3-5.68-3-6.84,5.02-11.79,5.16,3.49-9.73,3.57-25.73-10.69-17.81-.44-6-2.86-11.69-9.29-7.01-1.31.96-1.32,2.46-1.43,2.54-2.27,1.7-1.35-2.44-2.24-2.71-6.74-2.02-12.37,8.16-7.54,13.4-8.85-3.16-13.68,1.82-12.48,10.7-1.08,1.23-16.07-9.37-16.08.47-.01,1.82,1.42,4.59.57,5.8-.99,1.4-7.78,1.89-9.84,4.48-2.45,3.1.56,5.01.28,6.5-.2,1.06-2.38,1.79-2.58,3.72-.53,4.9,5.87,7.56,6.15,8.99.35,1.79-3,4.91-3.41,7.05-.71,3.79-.4,12.22,4.16,13.58,2.19.65,10.55-1.07,12.69-2.08,1.72-.82,3.93-5.08,5.39-4.45,5.24,4.81,9.43,10.79,12.01,17.42,2.33,5.99,8.57,23.01-3.1,20.46,2.12-5.76.13-7.87-4.46-3.56.8-5.63-1.41-2.56-3.37-3.77-.97-.59-1.16-4.31-5.57-2.04-1.54.78-1.09,3.11-2.64,3.13,1.17-4.9-2.8-3.85-3.45-4.56-.68-.76.89-7.51-3.26-7.96-2.11-.22-2.97.78-3.13,2.73-6.1-7.16-10.92,4.09-11.58,9.79l-2.77-8.34c-3.67-6.93-8.57,0-9.7,4.78-1.63-.09-.63-2.27-2.15-3.63-.9-.8-2.89-1.01-4.07-1.7-1.3,2.95,1.79,6.66,1.76,8.47-.02,1.13-2.66,3.97-3.1,3.97-.34-.01-3.3-4.01-5.79-2.65.32-2,3.28-1.53,4.07-2.61,1.7-2.34-1.72-3.82-2.66-5.46-.65-1.13-.46-2.75-1.35-4-2.18-3.03-6.38-1.46-7.89-2.37-1.08-.64-.26-3.74-4.63-1.58l-1.8-95.74c2.62-2.64,2.05,6.66,4.47,3.99,1.03-1.14-3.47-5.6-3.55-5.95-.79-3.51.64-7.59.87-10.08.27-2.87-3.68-4.86,0-6.23l1.78,1.77c1.04-5.1-1.94-2.96-2.57-3.61-.24-.25-.23-4.23-.08-4.39.29-.28,6.95-.97,7.99-.02-1.58-8.04,1.26-1.4,2.24-.89,2.09,1.08,1.35-2.29-.21-3.6-6.21-5.18-13.34-1.22-10.93-14.21l3.56.89c1.34-2.19-3.58-6.94-2.66-8.01,1.36-1.61,4.01,4.83,5.35,4-1.24-2.61-.69-5.91-3.11-7.59-1.95-1.36-2.74.84-3.82-4.2-1.13-5.39-.12-8.57.68-13.58,2.65,1.62,5.51.82,2.22-1.33-.22-.14-1.46.28-1.81-.36-.43-.81-.69-3.37-.41-3.65,1.46-1.49,4.79,2.45,6.23,1.33-1.95-4.1-2.34-5.01-7.12-4.45,1.61-4.69,6.19-5.23,5.35-11.15l4.44,1.34c-1.72-2.89-2.73-5.09-6.16-2.6-.75.55-2.58,4.86-3.63,1.69-.57-1.75,1.68-1.19,2.48-2.8,3.83-7.78-2.67-5.93-3.35-6.56-.4-.39.19-4.95-.03-6.2,2.04,1.57,1.71,3.48,5.34,2.66-3.75-8.94-.4-4.42,4.89-2.65,27.82,9.31,47.02,1.32,73.07-8.03.68,1.11-1.64,1.96-2.04,3.3-1.13,3.81-.13,8.25,4.27,5.62.77.84-3.34,4.28-.45,4.43,1.79.09,5.71-2.86,4.93-5.32,1.4-.36.75,2.01,2.3,2.58,4.3,1.57,2.62-2.08,3.04-2.59.12-.15,1.97.68,3.29.23,9.1-3.14,1.67-7.43,1.45-9.56-.03-.34,1-5.34,1.22-6.73.09-.57,1.16-1.13,1.14-1.31-.09-1.05-3.92-.7-1.75-3.11-5.04,1.36-3.49-5.27-8.02-.9v-3.56c-4.71,6.11-2.9.28-4.05-.06-6.06-1.78-4.69,2.04-5.44,3.63-.45.97-1.52,1.54-2.09,3.13-.9,2.48-.15,5.72-2.32,7.47-1.23,1-21.5,8.02-23.18,8.09-1.39.05-2.66-.23-3.01-1.76l3.56.87-.88-2.65,3.56.88c-2.5-5.99,1.77-1.49,1.79-5.34l-2.67-.44,3.56-2.22-2.23-.9c3.45-3.85-.05-1.9-.26-2.01-.22-.1-.16-1.55-.68-1.6-1.09-.11-4.65,2.04-4.83,1.83-1.7-2,1.93-1.64,2.65-2.21,1.11-.86.41-2.81,1.48-3.17,3.95-1.3,9.61-1.31,13.53-2.33,12.1-3.13,20.72-7.91,29.1-17.22-.19,2.08.28,8.47,2.23,9.41,1.56.75,3.06-.58,3.45-.33.34.23-.5,2.42,1.88,1.61v-2.68c.22-.26,3.98,2.8,6.01,2.58,1.82-.19.32-2.59,3.8-.8-1.76-4.22-.17-1.79,1.46-2.93,6.18-4.32.12-5.54.31-8.18,4.12.77,3.96-7.91,2.65-9.37-.17-.2-4.1,1.17-5.32-.01-2.14-2.07,4.24-2.49,4.42-2.71.2-.23-.19-5.68-.43-6.13-1.77-3.37-4.75-.33-7.51.43-1.14.32-2.42-.55-3.57-.04-1.07.48-2.45,3-3.16,3-.59,0-1.64-2.04-2.21-1.65-.08.05.14,1.19-.24,1.51-.67.55-1.5.19-1.55.26-2.95,3.95.35,9.42,0,9.79-1.67,1.76-2.05-3.88-3.14-.9-1.41,3.91,2.13,4.96-1.77,6.25.06-3.18-1.73-2.23-2.22-2.66-.19.07-.37.14-.52.22-2.8,1.34.37,3.12.31,3.8-.06.93-11.36,10.37-14.04,9.33,1.92-2.44,7.54-3.02,3.59-6.67-.05-.73,8.07-1.7-.02-4.45,1.91-2.6,4.57-.04,7.12-.45.3-.26-1.18-5.09-.88-5.34,2.37-1.97,2.55,1.61,2.66,1.78l2.67-1.79v2.68c.48-.63,3.48-3.93,3.54-4.2.52-2.42-.88-5.57,1.81-7.38.23-1.53-.39-3.33-1.78-4.06-2.83-1.49-3.44,2.79-5.33.04l2.65-4-5.34,1.76c2.5-1.77,1.03-4.4-1.36-4.23-.83.06-2.95,3.59-3.99,2.45-1.84-2.02,3.19-3.99,3.48-5.03.14-.49-.13-9.69-.26-10.19-.37-1.52-1.79-1.53-2.03-1.97-.56-.98-.18-2.38-.72-3.37-.52-.93-2.75.82-2.25-1.69l-1.78,2.65-2.21-2.66-3.12,3.56c4.28-11.6-6.05-5.5-9.81.46-.65,1.04-.84,2.92-.96,3.03-.62.56-5.62-1.55-7.49.98l-1.79-3.56-3.12,2.65c0-1.64-.75-7.68-2.25-8.02-6.88,4.34-.04-1.92-1.32-3.56l-2.65,1.78c-1-5.28-1.6.75-3.57,1.77l-.45-3.56-2.67,5.35-3.12-5.35.88,4.45-3.55-2.66c-.58.44-.43,5.95-2.67,6.23.87-2.4-1.72-5.83-3.99-5.34-1.34.29-.62,3.54-3.15,2.66l.88-4.45-2.66.88v-3.56c-1.69-.53-2.69,2.08-3.99,1.78-1.11-.25-2.01-4.55-4.47-4.47-1.22.03-6.86,3.1-9.38,2.69,1.9,6.51-.69,1.8-2.68,3.02-1.51.93-1.38,4.71-3.11,5.87-.19-6.89-4.91-3.23-9.36-2.68.7-3.01.39-9.41-3.56-5.33.15-1.47-.87-3.98-2.25-4.45-1.77-.6-1.36,1.59-2.19,2.14-.43.29-1.35-.28-1.61-.09-.58.42-.85,2.31-1.51,2.37-.33.03-2.78-3.36-4.91-2.27-2.23,1.14-1.45,4.41-1.89,4.85-.36.36-2.35-.02-3.41.58-1.43.82-4.35,4.52-5.85,4.6-1.35.07-2.98-2.86-6.17-2.42-2.72.37-3.1,3.98-6.04,3.44-5.73-1.06-4.67-7.08-7.35-7-1.15.03-2.26,1.64-3.66,1.83-4.49.6-3-.14-8.12,1.44-5.1,1.58-7.53-.48-4.74,8.33-1.97.76-7.65-2.01-7.99-1.77-1.69,1.18.3,6-6.25,3.57l.88,3.56c-3.3-2.41-5.37,3.29-4,6.22.95,2.04,12.36,11.28-.02,6.27l-1.77,3.53c-3.78-3.88-1.99.78-2.22.9-.8.41-3.16-1.31-4.46-.88-1.43,1.32,5.32,3.92,1.36,3.56-1.95-.18-3.82-1.04-5.82-.89,1.35-2.79,4.56-.34,3.58-4.45-4.36,2.05-10.03-4.08-11.27-4.32-2.72-.53-3.47,2.93-4.03,3.33-.71.5-2.65-1.19-3.33-.74-.93.62-8.43,17.28-.99,14.64l-3.57,1.35,1.78,2.63c-6.38,2.3,2.19,1.35.89,5.37h1.32s4.03-2.66,4.03-2.66l-.89,7.11c5.2-3.06,8.84,2.09,13.34-2.66,3.41,5.52,8.95,10.51,13.36,15.61,1.86,2.15,2.08,5.54,5.37,4.89l-1.78,2.65,4.46.02-.89,2.65,5.34-.89c0,6.86,3.72.01,4.1-.02.67-.06,2.22.89,3.48.92,10.94.25,21.65,3.04,32.12,6.19,1.19.36,2.76.07,3.07,1.81-13.17,1.16-26.46,2.07-39.39-1.13-3.17-.79-24.81-8.89-24.73-10.89.02-.59,2.37-1.1,2.95-2.42,2.89-6.67-2.2-4.82-3.44-6.93-.69-1.17-.17-2.95-.48-3.54-.15-.29-4.59.19-5.75-2.68-.91-.41-.42,4.19-2.65,3.56-.5-.14-4.09-7.77-4.03-.89-1.83-.98-2.8-3.27-5.34-2.66l1.78,3.55c-5.83-1.74-2.65,2.48-2.68,4.82-.01.51-8.24,4.89.9,4.99,1.08,2.29-2.64,2.07-2.66,3.12,0,.12.8,2.14.88,2.23.2.2,4.39-1.62,5.34-1.78-1.68,4.26-3.4,9.71,1.78,3.57.61.74-3.76,7.05,3.57.88l.23,1.76ZM891.7,467.62c.99-.18,3.16,2.32,4.88,1.79-9.04,11.58-7.07-1.4-4.88-1.79ZM810.16,278.79c.1-1.25,4.02-1.57,5.01-1.66,1.89-.18,3.78-.17,5.67-.1-2.64,4.05-6.83,2.12-10.68,1.76ZM816.45,262.38c-3.3.74-7.32.58-10.75,1.26l10.48-5.17,6.44.73c-.79,1.49-4.66,2.82-6.17,3.18ZM800.86,258.38l6.61-.95c-2.97,3.01-9.27,3.44-13.35,3.55l6.74-2.59ZM794.12,254.74c.02-1.26,2.52-1.75,3.59-2.18,3.71-1.52,7.7-2.93,11.55-4.04-3.05,4.5-10.18,5.13-15.13,6.22ZM825.32,268.12c.15-.18,2.32-1.05,3.08-.01.73,1.04,2.11,4.96.01,5.34-2.2.39-4.01-4.24-3.09-5.33ZM827.97,275.25l10.7,3.55c-5.22-.14-9.28,3.66-10.7-3.55ZM855.59,239.62c-3.89,7.08-8.9,14.31-16.92,16.92-.65-.67,3.25-5.39,3.99-6.25,1.56-1.83,11.14-12.08,12.93-10.67ZM844.9,231.59c2.55.3-1.2,6.23,1.33,6.22.53-.01,4.74-4.68,5.79-.89l-3.56,1.35c4.38,1.74.99,1.8-.43,3.1-7.55,6.86-13.95,15.41-25.41,15.16-.32-1.57.81-2.19,1.76-3.13,6.81-6.62,18.51-10.87,20.51-21.81ZM840.45,236.05c.62.65-5.64,7.59-7.12,8.01l1.76-3.13c1.16.04,4.01-6.3,5.36-4.89ZM819.04,241.82c1.04-.69,3.03-.26,4.45-.9,1.2-.54,2.56-2.83,4.17-3.86,1.53-.97,4.11-1.12,5.08-1.83.82-.61,1.37-4.43,2.8-4.51,3.26-.19-1.06,5.32-1.65,5.9-4.28,4.25-12.55,7.29-17.49,11-.32-.37,2.25-5.55,2.64-5.8ZM815.48,251.62l13.37-6.65c-4.17,5.17-10.67,10.85-17.81,9.78l4.44-3.13ZM812.81,228.92c.22,3.73-3.25,6.71-5.8,8.88-1.48,1.25-3.85,3.3-5.77,3.58l11.57-12.46ZM802.56,227.15c.97.2,1.54,1.46.92,2.67-.47.91-6.76,6.94-8.03,8-1,.84-1.45,2.16-3.13,1.77,1.05-2,8.4-12.84,10.24-12.45ZM802.53,268.14c2.03,0,13.32-2.27,13.85-1.81.38.34-1.45,3.91-.89,4.45.17.16,3.62-.5,3.55,2.23-.11,4.73-28.58.9-31.16-5.35,4.71-2.34,9.88.47,14.65.48ZM688.99,228.46l5.33-1.31c.86,2.54-4.57,2.88-5.33,1.31ZM689.87,232.47c-2.72-2.12,5.85-2.02,6.24-1.76-3.03,6.07,1.96,1.48,2.64,4.02.42,1.54.06,3.04-1.32,3.99-2.58.52-4.05-4.8-4.82-5.68-.95-1.07-2.48-.36-2.74-.56ZM706.79,254.76l1.78,2.65c-4.01,1.96-18.33-9.99-18.49-12-.05-.64,1.57-3.12,2-3.12,1.61.72,4.51,7.03,5.34,7.05.3,0,2.79-3.12,5.59-1.44.71.43-.56,2.38,3.78.61l-1.78,2.65,5.34-2.66c-.21,5.25,8,8.84-3.56,6.25ZM752.68,235.15c3.76,3.16,7.05,6.97,11.14,9.8-6.3-1.45-10.62-6.63-14.25-11.56,1.67-.39,2.11.92,3.12,1.76ZM753.96,247.23c3.92,2.12,9.15,3.49,13.41,4.86.03,1.72-3.74.86-4.68.67-9.66-1.98-18.2-7.9-23.83-15.82,6.16.82,9.43,7.2,15.1,10.29ZM736.18,238.72c.31.28,4.16,6.04,4.46,7.12-1.37-1.12-5.69-4.55-6.22-5.81-.62-1.48,1.21-1.79,1.76-1.31ZM735.3,244.96l-5.34-5.34c2.93-.65,4.92,2.93,5.34,5.34ZM721.95,236.05c2.34-.34,2.72,1.99,3.88,3.26.66.72,2.27.84,2.35,2.07-3.59-.62-7.17-.67-6.23-5.33ZM727.73,267.22c-.45-.13-6.91-5.78-7.13-6.19-.37-.66,1.33-4.68-1.53-6.89-.34-.26-1.81.75-2.45-.73l3.1-2.23c2,4.25,6.32,6.19,9.99,8.74l16.31,7.3c-4.82-.87-14.1,1.18-18.27,0ZM740.66,270.77l32.06-2.64c-7.89,10.88-21.34,4.69-32.06,2.64ZM762.48,264.54c-6.1,3.12-37.79-9.42-38.75-13.81l3.51-3.53c.34-3.27-8.89-3.06-3.93-4.96,5.46,3.12,12.89,5.45,15.56,11.16l-3.55,3.13c1.58.49,6.25-1.56,7.12-.88,1.95,1.56-2.76,1.88-1.77,2.65,2.56,1.51,4.13-1.06,6.46-.74,3,.42,8.44,5.21,12.69,5.21h12.91l-10.25,1.77ZM721.43,446.37c3.43.35,6.03-.12,9.43-.11-1.96,3.35-7.46,1.22-10.69,1.77-.02-1.69-.53-1.85,1.26-1.66ZM694.31,447.14c-1.44-.22-6.8-6.68-6.23-7.11,4.54-.72,6.52,3.08,6.23,7.11ZM696.1,440.01c-2.29.45-6.07-5.61-3.1-6.22,2.46-.51,3.72,4.28,3.1,6.22ZM568.55,459.02c.79-1.27,3.53-10.16,5.48-8.31-.88,2.69,3.31,4.69,3.52,5.9.56,3.18-10.16,8.05-13.3,7.45,1.02-2,3.12-3.13,4.31-5.04ZM278.63,398.19c3.38-.28,6.81-1.96,10.29-1.81-.11,1.29-3.37,2.03-4.4,2.26-3.78.87-7.9.73-11.63,2.18-.31-5.52,2.92-2.4,5.74-2.63ZM259.97,392.81c1.6,3.88,5.47,4.94,9.36,5.35l-12.46,9.79c.22-2.6,1.27-14.3,3.11-15.13ZM207.84,399.93c-.5.5-10.38-1.64-11.58-3.12,3.64.6,7.95-4.62,10.47-2,1.09,1.13,1.14,3.6,1.11,5.12ZM85.77,201.3l-15.14-7.13c.7-1.55,5.39-2.52,6.78-2.59,1.32-.06,2.63.22,3.66,1.09.66.55,5.28,8.06,4.7,8.63ZM1301.97,415.08h-14.25c.77-1.63,5.2-2.67,6.71-2.71,1.53-.05,3.83.51,5.38.91,1.49.39,2.59-.91,2.16,1.8ZM1305.53,411.51c-.93.07-8.11-.13-7.11-2.21,1.28-2.7,7.33-1.05,7.11,2.21ZM1300.18,404.83c-.94,1.78-9.74,6.72-10.67,5.79,1.95-9.16,1.81-15.14,10.67-5.79ZM1280.66,398.72c.82-2.89,3.47-.22,5.04.13,1.69.37,4.01-1.86,3.78,2.32-.23,4.05-3.79,8.22-7.1,10.34,1.51-3.59-2.43-10.28-1.71-12.79ZM1271.69,391.03c.9-1.14,11.24,7.43,2.14,8.01-5.08.33-1.4-4.86-2.14-8.01ZM1278.8,400.82c3.03,13.64-6.72,17.53-13.8,26.7-3.89-5.14,1.22-12.04,3.17-17.31,2.65-7.22-.08-9.14,10.64-9.4ZM1268.98,389.7c.62,3.11-2.5,20.12-4.43,22.27-.81.9-1.29,1.61-2.67,1.32-.73-9.35,5.18-17.31,4.89-26.71,1.08.93,1.91,1.62,2.21,3.13ZM1261.09,388.01c.12-1.02.38-4.73,2.11-4.11,1.81.66.39,10.8-2.2,11.58.03-2.48-.19-4.99.09-7.47ZM1252.96,398.15l-7.11-10.68c7.31-.66,6.65,4.86,7.11,10.68ZM1226.24,393.71c5.34-.2,9.69-1,12.47,4.43-4-1.6-9.71-.68-12.47-4.43ZM1235.65,389.19l-1.39-4.4c4.37-1.62,7.53,2.68,10.26,5.33l11.12,18.71-19.98-19.64ZM1256.08,400.83c-.98-4.3-1.89-10.39-1.33-14.72.17-1.29.67-2.76,1.77-1.31l.89,18.69c-1.32.23-1.1-1.66-1.33-2.65ZM1207.39,271.02c-.62,3.09-6.5,7.14-8.61,10.17-8.09,11.59-13.34,31.6-21.07,44.84-1.93,3.31-3.52,7.17-7.15,8.86-1.91-1.2-.75-1.53-.71-2.45.51-13.55-.09-28.98,4.47-41.87,1.76-4.97,4.98-8.27,6.94-12.66,1.63-3.68,5.07-20.44,8.82-20.45,1.11,0,2.42,1.03,3.57.93.49-.04.64-3.45,2.29-1.85.23.21.59,4.57,2.03,5.99,2.36,2.3,10.52,3.08,9.43,8.49ZM1225.34,243.16c-2.71.44-1.41-.69-1.76-2.2-1.6-7.05,3.09-3.13,1.76,2.2ZM1218.21,236.93c1,.94,2.61,10.64,1.78,11.58-7.79.18-4.46-14.09-1.78-11.58ZM1220.2,257.17c1.9-1.09,4.72-9.22,5.16-9.54,1.18-.88,4.33,4.35,7.11,1.78,1.17,1.14-5.37,6.37-6.22,7.57-1.72.86-12.51,10.18-13.37,9.34-1.27-1.23,7.31-7.21,7.32-9.16ZM1209.78,236.06c4.05-2.11,2.76,3.33,1.99,5.56-1.3,3.82-3.83,1.26-6.26,1.68-2.51.43-3.46,3.46-6,3.43,2.49-4.64,5.62-8.24,10.27-10.67ZM1196.35,235.94c.83-.62,3.91-.04,4.05.11,1.19,1.25-9.52,14.37-11.58,12.45,2.48-2.55,5.14-10.76,7.53-12.56ZM1173.69,230.7c.79-.57,4.65,2.72,7.45,1.7,1.69-.62.92-4.82,4.4-4.16.75.14,4.32,2.67,4.66,3.35,2.16,4.36-6.96,16-8.94,20.48-2.41,5.43-6.8,28.1-11.78,29.26-.8.19-3.42-.44-3.7-.89-.24-.39-1.09-8.15-1.08-9.22.08-13.44,6.58-27.44,8.99-40.53ZM1168.22,229.02c.72.83-.16,6.16-.68,7.57-1.46,3.92-1.96-.6-2.6-2.02-1.14-2.57-2.23-5.05-3.74-7.42.3-.23,6.78,1.6,7.02,1.87ZM1148.27,220.92c1.16,2.1,6.44,3.6,7.34,4.68,2.74,3.3,6.51,19.75,6.5,24.29,0,1.91-2.78,13.87-3.61,14.66-1.37,1.31-1.55-.52-2.02-1.12-8.97-11.49-17.52-28.99-8.21-42.51ZM1137.59,234.28l6.89,21.6c8.43,17.62,13.11,36.26,9.59,55.87-1.62,1.76-7.03-7.06-7.58-7.99-8.09-13.56-17.69-37.1-15.5-52.94.3-2.19,5.27-16.52,6.6-16.54ZM1125.57,235.16c1.6-.04,4.72-.47,5.28,1.44.18.62-1.49,6.33-1.73,6.57-1.51,1.48-1.5-.48-1.85-1.25-.45-.97-2.09-6.4-1.69-6.76ZM1110.83,247.55c1.97-1.16,3.7,1.45,5.75-1.35,2.07-2.84-1.8-7.39,2.3-10.15,2.08-.48,3.41,3.58,3.78,5.12,1.81,7.68,3.28,19.76,3.57,27.65.04.97.09,2.77-1.11,2.83-3.33.16-24.8-17.93-14.28-24.1ZM1096.61,250.3c1.72-.49,2.09.51,2.99,1.44,6.78,7.01,10.76,16.33,19.29,23.47,2.85,2.38,7.18,3.65,9.35,6.69,1.1,1.56,6.45,13.79,6.76,15.57,1.36,7.64-8.5-2.85-9.9-4.41-3.45-3.86-6.12-9.05-9.37-12.91-4.18-4.95-11.06-10.43-14.62-15.67-.68-.99-5.62-10.64-5.72-11.27-.19-1.17.09-2.59,1.21-2.91ZM1076.56,257.42c.35-.38,7.35,1.39,10.21.85,1.65-.32,4.17-2.63,4.5-2.6,1.53.11,6.03,12.85,6.67,15.11-8.14-2.05-16.76-.83-24.74-3.31-2.27-.71-12.54-5.85-12.66-7.82-.14-2.6,4.3.96,5.08,1.14,4.35,1.01,4.82.69,5.15-3.37,5.49,10.11,5.15.7,5.8-.01ZM1069.41,121.14c2.28,3.07-7.31,9.61-8,8.9-.46-2.28,6.9-10.38,8-8.9ZM1070.31,149.64c-2.88.94-7.04-2.91-9.23-2.48-1.34.26-2.17,2.5-3.26,2.96-.24.1-4.99.39-5.21.25-.81-.48-.16-3.45-5.01-2.52-3.35.64-2.44,5.45-4.46,4.47-1.08-.52-2.63-4.34-4.41-5.38-6.02-3.55-14.22,6.42-9.41,12.05-1.04,2-3.33.36-4.79,1.38-2.88,2-.71,3.22-.64,4.94.02.47-1.64.29-1.63.75.02,1.05,1.5,3.25.81,4.97l-9.36-4.43c-1.66.67-.32,2.57-.44,2.63-1.9,1.03-7.24-2.55-9.76-1.73-1.16,1.41.17,5.95-.05,6.16-.92.89-2.94-1.21-4.42,4.16-1,3.63.01,8.23,4.2,9.07,3.57.7,9.26-4.2,8.24,4.63-7.19-.25-6.64-6.22-11.15,2.67-5.97-5.18-12.73-2.28-6.67,4.89-2.95,1.04-6.47,4.18-4.34,7.47.35.53,3.48.74,4.55,1.24,1.44.66,2.22,2.22,3.85,2.46,2.88.44,4.74-2.11,7.52-1.81,1.46,9.3-10.75,7.66-12.94,9.77-3.22,3.1,1.18,9.92-1.77,10.72-3.19.86-7.04-7.35-9.82-.03-.51,1.37-.12,3.44-.84,4.5-.91,1.35-6.28,1.48-5.68,5.56.49,3.35,4.94,4.36.17,7.64-3.75,2.58-6.73.81-3.93,7.79,1.37,3.44,2.14,5.32,3.43,9.03,2.12,6.17,4,2.42,6.71,3.06,1.77.41,10.2,7.94,13.54,7.87,1.26-.03,2.18-1.72,3.41-1.63,1.81.14,3.49,2.9,6.84,1.2,3.2-1.62-.12-6.15,4.23-6.51,2.45-.2,3.67,1.73,5.95,1.59,2.75-.16,5.24-3.75,8.81-2.55,2.94.97,1.33,4.63,1.68,5.03.25.28,2.88.12,1.56,1.96-.14.2-2.83-.41-1.74,3.59l2.66-.88c-5.77,11.84,4.44,4.75,10.7,5.33-1.91-9.99,2.95.11,3.51.52.46.34,4-1.14,5.4.38-.87-2.39,1.73-4.25,1.81-5.79.04-.71-2.78.12-1.81-2.22l3.57-.02-.88-3.55c2.25-.03,4.77.3,6.91-.59,1.59-.67,1.86-3.45,3.45-3.77,1.36-.28,7.33,4.47,9.52,5.41,10.55,4.61,21.99.54,32.01,4.52,2.16.86,10.32,9.95,10.33,10.9.01.75-4.46,4.88-3.42,5.79,11.26-2.44,11.98,5.66,17.79,11.17,5.7,5.42,10.73,5.54,15.9,13.5,14.35,22.13,4.95,69.63,3.75,96.03-.3,6.66.21,13.38-.02,20.03-2.88-1.47-7.58-3.86-10.7-2.24-1.48.76-1.48,2.81-1.78,3.14-.78.83-2.02-4.36-4.87-4.43-5.36-.14-6.28,7.61-6.71,7.99-.53.49-9.7-5.54-10.68,5-.28,2.96,1.54,3.28,1.77,5.69-3.08-1.47-5.54,2.16-6.63,2.32-1.28.18-2.36-.95-4.9-.08-4.61,1.58-5.01,8.2-7.43,9.97-1.99,1.44-7.44,1.12-9.1,4.74-1.29,2.8.64,4.47.43,6.62-.16,1.7-2.85,4.02-1.77,6.71-2.03-.86-5.19-2.35-7.39-1.82-1.18.28-.67,2.63-2.84,2.72-.66.03-.15-1.82-2.17-2.32-5.69-1.41-4.24,3.04-5.63,4.77-.86,1.06-5.44,1.63-6.49,3.78-1.42,2.9,1.05,3.93,1.08,4.92.01.46-4.29,6.03-4.17,8.01-1.12,1.44-.71-2.06-3.12-2.29-2.91-.28-4.13,2.63-6.68,2.72.4-2.89-.74-5.6-.93-8.42-.98-14.61-1.68-52.7,2.3-65.46,1.44-4.63,13.47-31.33,15.99-33.9,3.78-3.85,16.87-9.37,22.11-8.03.82.21,1.11,2.17,2.43,3.1.94.66,5.5,2.39,6.59,2.28,1.42-.15,9.32-3.38,10.52-4.45.48-.43,7.65-9.6,7.91-10.19.32-.71.83-10.92.67-11.47-.58-1.97-3.24-2-3.47-3.03-.4-1.71.5-4.09-.12-5.93-.49-1.45-3.36-1.76-3.87-4.03-.37-1.63,1.01-4.08.27-6.61-.13-.43-4.86-6.99-5.18-7.3-1.45-1.38-3.95-.91-5.31-1.81-1.67-1.11-1.98-5.3-5.61-6.87-1.69-.72-3.64-.49-5.12-1.12-2.75-1.17-7.88-4.36-10.46-4.74-2.7-.41-4.54,2.48-6.54,2.09-4.7-.93-10.66-7.07-12.16-7.47-1.62-.43-3.56.76-6.14.06-2.42-.65-3.67-2.65-5.28-2.88-2.55-.37-6.5,2.02-7.92,1.68-1.1-.26-1.23-3.45-4.51-3.35-3.67.12-4.22,4.01-5.43,4.31-1.43.35-5.07-4.09-8.8.08-1,1.12-1.22,3.42-1.37,3.54-.4.32-1.53-1.4-2.43-1.64-4.87-1.3-7.15,5.09-7.98,5.26-2.95.64-4.57-2.02-8.73.84-1.13.77-5.53,6.18-6.01,7.34-.71,1.73-.36,4.22-.83,4.97-.28.45-5.12,1.73-6.6,3.64-1.39,1.79-1.09,4.14-1.37,4.42-.38.4-4.58.29-5.13,1.11-.83,1.22.82,4.19.33,5.3-.81,1.84-5.59,2.34-6.92,5.55-.93,2.24.29,3.53-.12,5.12-.72,2.82-6.29,5.1-4.56,8.84.59,1.27,3.09,1.98,3.14,4.01.04,2.2-3.54,5.84-2.49,8.74.93,1.14,4.78,7.11,5.16,7.34,1.58.92,3.78-.08,5.37.86.84.5,1.49,3.03,2.22,3.11.52.05,2.75-2.37,3.74-2.51,1.21-.17,2.99,2.61,6.77,1.46,2.59-.79,3.81-4.84,5.11-5.66.9-.56,10.17.8,12.06,1.33,3.34.94,15.88,5.77,18.18,7.65,2.46,2.02,3.32,5.32,4.24,8.23,4.8,15.11,3.96,52.42,2.96,69.26-.23,3.85-1.41,8.1-1.83,11.98l-.89-4.45-5.33,4.46c5.33-12.97-5.94,1.33-7.13-.01,1.19-5.08,3.25-10.57-4.45-8.01-.48-.47,3.62-7.9-2.66-4.88-1.23.59-1.66,2.68-3.58,2.2.84-7.53,4.13-5.2,9.41-4.49,2.98.4-.09-5.17-.99-6.15-4.39-4.72-7.38-1.59-11.08,1.73-.3-1.52,2.73-14.28,1.31-14.25-4.59,2.33-7.94,7.64-9.36,12.47l-4.46-7.54c-1.67-1.22-4.26-2.03-6.24-.92-1.67.93-.12,1.43.48,2.22,1.97,2.61,3.74,4.88,4.88,8.02-4.88-2.21-9.84-4.98-13.36.88,3.61.97,8.33,2.32,10.7,5.35-9.91-3.19-20.44-1.7-8.91,8.9-2.19-.3-4.54,1.22-6.62.91-1.32-.19-2.33-1.72-3.48-1.64-2.75.19-4.83,5.97-5.95,1.19.57-42.02-5.64-83.63-4.48-125.63,1.15-41.98,1.79-84.47,3.64-126.41,1.07-24.38-.78-32.65,12.95-53.85,9.13-14.08,25.98-31.93,42.65-36.63,5.89-1.67,14.51.51,21.42.03,2.7-.19,17.52-3.47,18.28-2.67.31.33-.69,3.88.83,4.97,3.39,2.42,15.04-3.92,11.63,7.5ZM1007.97,378.95c1.27.6,4.31,6.6,3.53,7.62-1.72-1.18-4.69-1.15-6.17-2.27-4.6-3.44,1.3-5.98,2.64-5.35ZM998.15,384.78c.32-2.55,4.8-1.45,5.34-.86,2.31,2.52-4.45,1.57-5.34.86ZM1009.74,374.11c2.07,1.03,8.66.42,9.66,1.02.73.45,5.55,13.69,6.37,15.9-9.12-.55-15.24-8.32-16.03-16.92ZM1023.1,372.33c5.79,2.21,12.55,4.66,12.52,11.98-.83,2.04,1.29,13.55-.51,13.84-1.8.29-1.99-1.75-2.47-2.85-1.26-2.91-10.47-21.96-9.54-22.97ZM1023.11,367.43c-.04-1.92,6.97-.72,7.79-.24.8.47,2.95,5.67,3.78,6.91-.89.74-11.54-5.56-11.57-6.67ZM1033.8,364.31c3.81,1.54,4.19,1.53,8,0,.47,2.2.03,14.28-3.12,14.22-1.9-.03-3.62-11.65-4.89-14.22ZM1045.27,374.45c.65-5.17-2.28-10.98,4.55-11.92,1.28,15.68,9.44,21.97,4,38.27-1.61,4.84-8.69,20.76-11.03,8.38-2.82-15.05.79-21.38,2.48-34.74ZM1073.84,371.83c-2.89,2.02-6.73,3.07-9.76,4.94-.22-2.13,2.16-13.37,4.01-13.34,1.34,3.03,3.28,4.42,5.29,6.76.52.61,2.62.14.46,1.64ZM1085.46,371.43c.35,1.67-.83,2.15-1.85,3.05-2.37,2.07-7.4,6.36-9.79,8.02-1.4.99-10.96,5.42-11.52,4.95,1.72-9.11,14.32-16.64,23.16-16.02ZM1059.85,381.87c-2.34,3.6-2.98-3.42-2.96-5.54.02-4.02,2.3-11.97,7.19-12.02-2.68,4.88-1.64,13.58-4.23,17.56ZM1054.72,370.52c-1.75.07-2.15-8.42.02-8.88,3.74-.79,2.1,8.8-.02,8.88ZM968.06,157.42c.8-4.28,17.48-26.43,21.25-29.53,4.99-4.08,11.51-4.12,17.75-4.07-.8,2.47-1.3,5.67-2.24,7.99-3.57,8.85-17.43,19.94-24.05,27.62-3.91,4.53-6.81,10.43-10.38,14.56-.79.91-.87,1.86-2.52,1.47-1.42-1.3-.29-15.42.2-18.05ZM967.86,143.41c.93-5.12,2.08-8.25,8.01-7.11-.64,1.2-6.96,8.19-8.01,7.11ZM983.81,118.02c0-3.35,1.98-20.54,6.73-19.13,5.18,1.55-4.53,20.3-4.88,24.04-2.14-.63-1.84-3.16-1.85-4.91ZM1048.31,124.53c2.01-.6,3.25-2.66,5.45-2.51,2.13.15,3.83,2.68,6.75.92,1.05,1.12-3.16,7.56-4.38,8.52-1.24.97-15.04,4.83-16.56,4.83h-12.91c-.49-2.39.63-1.53,1.75-2.21,7.92-4.77,11.17-6.95,19.89-9.55ZM1039.12,107.79c-.15,2.28.54,4.94-.45,7.11-1.19,2.64-5.62,2.11-4.91,6.64.23,1.41,2.01,2.4,1.37,3.18l-28.08,15.12c-.4-1.84.95-2.02,2.02-2.86,5.17-4.07,11.15-8.05,15.36-13.15,4.64-5.6,6.84-16,14.68-16.04ZM1019.14,106.06c2.38-2.58,13.93-8.18,12.67-2.48-.54,2.46-7.42,15.2-9.23,17.51-1.03,1.33-2.27,2.48-3.53,3.6l-11.11,8.04c-1.59-1.7,8.53-23.79,11.19-26.66ZM1011.07,106.89l4.01-1.77-8.39,15.21c-2.22,1.61-5.85.57-8.52.82l12.91-14.25ZM999.46,105.08c1.94.22,3.26,3.29,5.82,2.71.62.59-11.81,12.31-13.36,10.67.89-4.2,1.68-14.05,7.54-13.38ZM980.34,65.03c3.6,3.6,7.97,2.15,12.45.89-.16,1.24.45,3.37-.13,4.32-.4.64-12.21,5.62-13.21,4.59l.89-9.8ZM973.2,72.6c-.02-1.15-1.53-2.24-1.77-3.63-.42-2.37.79-7.59,4-6.61,2.93.89,1.14,21.38-4.89,21.37-2.09-3.79,2.68-9.7,2.66-11.13ZM972.04,99.06c.74-.38,4.33-1.18,5.03-.98.37.11,4.71,5.36,4.86,5.88,1.22,3.96-2.03,13.46-1.6,18.07-1.94.16-3.04-1.58-4.98-1.78-2.77-.29-5.77,2.88-6.47.32-.95-3.44-.14-19.81,3.17-21.51ZM958.52,77.48c3.1-.08,3.9-5.94,5.75-4.42.09.07.23,1.28.97,2.1.64.71,2.04.85,2.47,2.03,1.23,3.44-1.3,9.47-1.63,13.23-.18,2.17-.92,26.25-2.24,26.27-5.41-15.28-21.16-24.75-12.01-42.76,1.24-.92,4.15,3.61,6.69,3.54ZM948.67,65.04c1.89.47.76,1.6.61,2.33-.42,2.04-3.93,15.86-4.61,16.37-.13.09-2.53-.91-2.69-1.5-.9-3.36.82-18.67,6.69-17.2ZM934.44,63.26c.35.02,5.6,3.79,5.71,4.12.8,2.25-1.84,8.01-.82,11.01-2.66-1.99-2.89-6.61-3.99-9.81-.19-.56-4.02-5.45-.9-5.32ZM940.22,109.56c-1.24-.3-3.86-6.79-3.55-7.11,1.77-1.87,4.68,5.52,3.55,7.11ZM926.62,67.54c1.33.19,3.38-.98,3.76-.71.92.64,3.58,11.29,2.72,12.45-6.21-2.79-10.32-8.36-15.14-12.93-1.66-4.02,8.17,1.13,8.65,1.19ZM903.86,71.01c2.13-10.51,15.59,1.35,18.55,5.59-2.31-.99-5.79,1.7-7.2,1.4-1.97-.42-3.37-3.42-5.01-3.91-3.1-.91-7.5,2.64-6.34-3.09ZM860.43,80.11c2.8-3.92,13.32,4.07,14.52,6.97.39.94,1.4,7.08,1.13,7.33-5.79,1-3.55-1.11-5.75-3.59-2.37-2.65-12.59-6.98-9.91-10.72ZM875.19,113.12c-2.99-.21-7.07-1.93-8.91-4.43,4.05-1.87,6.78,1.32,8.91,4.43ZM854.49,120.02c-3.53-.55-7.42-1.83-5.93-6.32.79-2.37,4.58-1.13,6.54-1.5,1.58-.3,2.96-1.58,4.34-1.52,3.54.14,14.49,5.98,17.54,8.68-7.48-.95-15.06,1.82-22.49.66ZM887.66,118.47c-2.65,2-12.54-7.29-11.49-9.71.09-.22,3.65-2.79,3.89-2.74.82.18,7.57,7.82,9.39,8.88-4.94-1.07-1.47,3.33-1.78,3.57ZM896.26,113.84c-1.34-.27-15.07-12.24-15.54-13.8-.78-2.62.14-6.37-.18-9.18,1.96,1.25,3.75,2.63,6.02,3.38,2.52.84,3.95.2,5.56.62,4.51,1.16,10.81,10.73,13.72,14.79.57.8,2.99,3.7,2.31,4.37-2.13.07-3.77-1.65-5.87-1.73-2.27-.09-4.66,1.83-6.03,1.55ZM909.05,133.61c-.81.69-11.02-2.09-11.58-4.44,1.22-.84,14.13,2.24,11.58,4.44ZM945.57,154.1l-11.57-7.58c4.69-.21,4.92-1.15,7.67-3.94.95-.96,3.48-1.01,1.67-2.74h-4.01c-.59-1.25,1.04-4.25.89-4.42-.09-.13-2.05-.4-2.98-1.02-5.9-3.93-2.39-1.12-6.32-.86-1.08.07-4.25-1.47-4.94-.8-.28.27.24,2.39-.01,2.65-.44.46-11.16-1.84-12.25-2.89-1.29-1.23-2-6.1-4.65-7.34,13.23-7.49-1.85-15.62-5.37-24.49,6.58-.56,10.54,5.76,16.04,8.44,2.05,1,10.69,4.07,12.35,3,1.37-.88-.28-6.16,2.78-5.22,5.6,15.31,14.84,30.15,10.69,47.21ZM944.03,112.46c-.57-2.94-3.43-21.28,3.21-14.78,2.63,2.57,14.89,20.22,12.56,22.55-2.94.81-4.54,2.31-8.32,1.69-6.05-.99-6.39-3.95-7.44-9.46ZM949.22,161.6c-.83-9.56,1.95-18.48-.07-27.98,2.99.34,3.79,3.59,7.09,4.1,3.69.58,5.07-4.68,6.16,4.47.96,7.99-1.29,15.31-1.71,23.01-.16,3.1,1.1,26.28-2.18,26.3l-9.29-29.9ZM880.54,463.18c3.17.77,4.57,2.52,8,.89-.49,2.87-4.44,19.47-6.67,19.57-2.7-2.54-2.78-19.17-1.33-20.46ZM870.75,458.72c5.07.56,7.07,2.8,6.22,8.01-2.16.07-7.26-6.88-6.22-8.01ZM868.45,470.36c-1.86-3-9.53-6.54-4.86-9.86-1.07,2.28,3.64,5.43,4.47,4.46.23-.27-.13-1.96.01-2.67,1.11-1.36,10.86,18.56,8,21.37l-7.62-13.29ZM780.74,233.38c-.05,2.21.1,4.47.01,6.69-.04,1.07.67,3.31-.88,3.1.02-2.2-3.08-10.1.87-9.79ZM769.17,324.22c.12-1.64,5.08-2.96,5.34-2.66.19.23-.1,1.94,0,2.67h-5.34ZM709.48,436.9c-3.72,4.28-.24,5.82-.01,8.96.29,3.97-6.41,11.54-9.81,13.74.91-5.1-1.22-14.7,0-19.15.76-2.72,7.2-4.03,9.82-3.56ZM699.66,432.9c.31,1.22-.13,4.43-1.33,4.43-1.85,0-1.93-5.18,1.33-4.43ZM557.11,444.47c.47.53-5.94,14.78-.9,12.92,1.13-.42,6.86-5.06,5.21-.16-.28.85-8.88,14.09-9.8,15.15-2.66,3.08-3.13.69-3.43-2.52-.74-8.01.14-22,8.91-25.38ZM536.61,461.38c-7.32-1.53-16.39.28-16.92-9.79,2.53-.02,4.31,2.46,6.77,2.67,2.76.24,4.26-2.2,5.7-1.42,1.31.71,5.21,7.74,4.45,8.53ZM542.86,465.84c-1.11-3.26-2.79-7.19-4.63-10.08-.78-1.24-7.71-8.87-6.96-9.51,6.17-1.09,7.54,3.61,11.14,7.1l1.35-2.65c1.29-.14,1.58,2.32,1.67,3.2.41,3.59.73,9.74-2.57,11.94ZM486.71,384.8c4.05,11.6-2.48,11.05-10.67,15.14l3.17-6.18,7.5-8.95ZM448.41,378.56c.35-1.08.86-1.97,1.78-2.67.12-.11.24-.2.37-.26,3.1-2.02,4.38,1.54,6.76,3.83.36.35,2.89.71,3.56,2.67.68-2.27,1.63-.88,1.78-.89.55-.03,1.24-1.14,2.62-.48.35.17,3.86,3.39,4.51,4.05.96.96,1.37,2.25,1.78,2.66.99.99,1.96,2.45,2.76,3.07.83.65,2.48.41,2.58.51,1.96,1.96-23.7,34.73-25.84,39.18-3.79-3.17-1.18-7.92-.34-11.44v-.02c.07-.52.14-1.04.23-1.56v-.02c-.01-.97-.8-1.88-.78-2.1l-1.77,1.32c.19-3.28-1.89-6.12-2.45-9.13-1.96-10.53.12-19.99-1.11-30.49.5-.57,3.1,1.26,3.56,1.77ZM438.06,383.69c1.88-.35,2.5-3.8,5-3.36v16.48c0,.16-1.41,1.57-1.76,1.33l-8.92-15.13c1.77-.58,4.34.92,5.69.67ZM416.03,394.44c-6.73-4.61,1.67-2.81,4.55-4.01,1.68-.7,1.36-3.43,3.77-2.96-.29,4.32.52,8.67,2.67,12.45-.6.49-9.75-4.62-10.99-5.48ZM442.95,427.22c-6.11-12.52-16.3-25.8-16.84-40.25-.15-3.81,1.39-5.58,3.77-1.91,2.79,4.33,8.56,12.98,10.3,17.32,3.79,9.5,5.92,22.13,5.55,32.29l-2.77-7.45ZM357.77,336.49c-2.56,17.67-4.18,35.57-9.16,52.76-1.45-.16-1.83-3.41-2.08-4.59-2.56-11.68-.3-20.88-.55-32.41-.2-9.67-2.65-19.61-1.8-29.34.8-9.06,4.6-18.33,10.24-25.38,1.16,0,5.3,18.9,5.54,21.15.82,7.71-1.19,10.99-2.18,17.81ZM403.85,303.74c2.12,7.1.83,4.16-2.59,5.83-1.27.62-6.24,4.91-7.19,3.96-.7-.68,5.23-6.67,6.19-7.58,1.06-1.01,1.87-2.49,3.6-2.2ZM390.6,290.49l8.79,1.67c.69,3.49-10.25,5.79-10.68,5.34l1.88-7.01ZM402.96,294.83c-3.45,8.97-11.79,17.36-20.47,21.38-.61-.79,4.76-13.17,5.78-14.24,2.16-2.27,12.1-2.95,14.69-7.13ZM376.24,289.93c0-5.35,11.22-2.72,11.45-.02.05.64-3.41,8.64-4.33,9.82-1.52,1.95-4.59,4.43-7.12,4.9v-14.69ZM384.26,302.86l-12.47,26.7c2.15-10.51.53-22.39,12.47-26.7ZM368.36,283.83c.51-1.85,2.02-1.31,3.17-.29,2.23,1.98,2.17,5.46,2.08,8.2-.32,10.21-4.74,39.1-9.39,47.67-.67,1.23.07,2.19-2.23,1.73,2.95-9.58,1.09-19.31,1.74-28.98.64-9.56,4.13-18.74,4.63-28.34ZM365.6,284.55c.22,1.98-2.95,19.3-3.63,20.08-1.18,1.39-1.56-.38-1.98-1.14-2.96-5.39-2.66-10.26-.17-15.73,1.36-2.97,5.12-9.26,5.78-3.22ZM359.31,280.58c-.63,1.44-4.01,12.5-5.33,11.58-1.15-3.84-5.55-5.92-7.14-9.8,5.65,2.11,7.49-1.46,12.47-1.78ZM335.25,285.03c.33.32.06,7.85-.1,9.26-1.28,10.78-4.56-2.94-7.91-4.35,1.89-.79,5.85-6.98,8.01-4.91ZM317.44,294.83c3.29,1.72,5.24,2.98,4.45,7.12-3.42-.18-4.74-4.26-4.45-7.12ZM324.11,321.55c-4.6-3.85-9.65-8.97-13.8-13.35,3.29,1.62,4.36-2.59,4.88-2.65,4.84-.51,10.1,13.99,12.05,17.78-1.67.39-2.12-.93-3.13-1.77ZM338.43,344.7c-4.7-9.51-9.64-24.29-12.72-34.53-.65-2.14-2.65-16.48-2.03-17.12,1.55-.23,1.97-.06,3.09.91,1.05.92,6.1,8.54,6.75,10.18,4.92,12.32,5.29,29.19,7.09,42.34-2.38.46-1.55-.51-2.17-1.78ZM340.57,311.34c-2.86-9.59-.68-19.42-2.64-28.98,5.01-.47,11.86,7.86,12.3,12.23.14,1.39-7.14,17.36-7.85,18.04-1.49,1.43-1.5-.31-1.8-1.29ZM247.95,391.03c3.85-.99,4.55,3.5,8,1.77,1.3,6.33-3.68,2.4-6.34.53-1.05-.74-2.17-.03-1.66-2.3ZM218.55,386.58c2.21-1.56,1.92,10.35,1.76,11.57-6.09-3.64-4.73-6.19-1.76-11.57ZM214.23,407.35c-2.26-3.25-7.74-13.92-3.27-16.33,3.79,9.26,14.69,14.6,15.58,25.83-4.05-2.74-9.5-5.47-12.31-9.51ZM228.32,408.84c-4.46-1.53-8.66-22.97-4.9-23.13.28,0,2.84,1.52,2.96,2.36.82,7.34,3.97,13.22,1.93,20.76ZM230.13,388.36l7.11.89c-2.11,10.57-7.56,10.4-7.11-.89ZM234.16,424.83c-1.75-5.65-4.5-16.4-2.33-21.85.88-2.23,3.81-4.72,5.26-7.22.75-1.3,1.77-5.38,2.01-5.55,2.3-1.61,12.24,8.2,13.34,10.12,3.68,6.41-2.42,23.49-5.81,29.92-.62,1.19-4.87,7.85-5.39,7.98-2.16.54-6.41-11.24-7.08-13.4ZM130.88,336.1c-.25,5.86-8.62,35.1-11.18,41.2-.86,2.04-2.74,2.8-2.74.82,0-6.1-.61-13.76,0-19.6.56-5.25,9.31-35.27,12.03-38.74.33-.42,1.1-1.2,1.33-.89-.73,5.46.78,12.05.56,17.22ZM115.17,340.25c-1.37-.13-1.35-1.35-1.71-2.27-3.08-7.88-4.89-16.51-10.6-23.12.02-2.76,14.56-9.63,17.46-10.05,4.8-.71,5.6,2.4,9.12-2.85,1.21,4.91-2.18,7.18-3.73,10.96-3.71,9.01-7.88,18.03-10.54,27.34ZM136.66,323.02c-.47,1.39.79,2.54-1.88,2.09.81-4.73-1.1-13.21,0-17.37.24-.9,6.93-11.48,8-12.49,1.98-1.86,2.52-1.1,2.76,1.79.22,2.51-7.35,21.44-8.88,25.97ZM137.45,285.44c1.88-2.22,8.64.29,7.13,2.25-1.28.11-2.49.61-3.53,1.37-2.09,1.56-2.04,4.16-4.49,3.98.21-2.43-.8-5.63.88-7.6ZM152.18,297.53c-2.61,2.5-2.64-5-2.25-5.38l12.47-1.76-10.22,7.14ZM198.94,282.35l-14.25,3.57c3.15-6.21,8.57-9,14.25-3.57ZM182.89,279.69c1.22,1.11-3.71,5.07-5.34,4.45-1.04-1.01,3.38-5.52,5.34-4.45ZM170.42,279.26c1.27,4.42-14.68,9.31-17.81,10.23-.4-1.75.9-2.11,1.86-3.04,1.74-1.68,14.45-12.43,15.95-7.19ZM152.4,255.44c-1.38,1.12-12.15,3.42-12.25.65,6.23-10.94,11.62-22.47,20.46-31.63l-8.21,30.98ZM143.31,241.46c-2.11,3.25-3.66,7.89-6.01,10.91-.77.99-.89,1.85-2.51,1.48-.64-4.68-2.24-8.93-1.79-13.8.28-3.14,1.96-6.63,2.42-10.04,1.85-13.66,1.09-21.95,8.42-34.34,1.73-2.92,11.24-17.31,14.46-16.57.79.18,6.46,13.07,6.71,14.68,3.54,22.62-10.96,31.19-21.71,47.67ZM223.88,170.14c1.43,1.24-8.95,7.72-9.79,8.89,1.01-5.92,2.93-10.43,9.79-8.89ZM210.99,166.55c1.4-.13,2.63.85,3.99.92-5.73,7.86-5.39,17.31-12.9,24.06-4.89,4.41-9.74,5.18-14.99,8.17-5.76,3.28-10.15,8.84-16.65,10.51,3.09-10.37,13.46-14.69,20.5-21.8,3.55-3.56,16.74-21.56,20.05-21.87ZM187.35,165.68c.65,2.84-3.51,2.53-5.34,2.65.87-2.27,2.98-3.01,5.34-2.65ZM187.85,171.07c4.88-1.74,8.48-6.09,13.76-4.5.31,1.36-.32,2.09-.83,3.18-.86,1.81-9.31,11.76-11.19,13.75-5.67,5.99-13.72,11.48-20.05,16.92-.96-8.42,1.88-19.32,7.98-25.42,3.99-4,5.89-2.33,10.33-3.93ZM175.66,166.72c.37.29-.59,2.07,1.44,1.64.95-.2.19-1.51.45-1.78.41-.4,2.2-.44,1.74,1.28-.58,2.14-5.09,4.95-6.93,7.33-2.65,3.42-3.68,7.4-5.95,10.96l-4.9-9.77c4.24.93,12.43-11.01,14.14-9.67ZM166.42,167.47c.75-.12.52,1.65.43,1.76-.62.72-7.64,5.05-8.89,2.22-.88-1.99,7.72-1.88,8.46-3.99ZM152.22,172.75c6.95,3.23-1.86,6.42-4.07-.82,1.6-.26,2.66.17,4.07.82ZM134.57,187.29c.59-3.85-.05-14.74,1.89-17.53,3.08-4.42,11.65,5.42,11.46,9.58-.15,3.45-11.22,17.35-13.32,23.12-1.2,3.3-1.31,7.09-2.5,10.43l-1.75-7.57c-1.57-6.58,3.32-12.14,4.23-18.02ZM124.99,193.78c-2.34-1.17-6.16-8.05-8.48-10.28-2.99-2.86-7.82-4.49-10.24-8.01,2.59.12,4.88,1.27,7.59.95,2.1-.25,3.37-1.99,5.12-1.75,2.01.29,10,6.96,10.44,9.28.48,2.46-.7,11.68-4.43,9.82ZM123.6,173.75c-7.09-7.01,13.09-7.52,7.61,3.52-.49.44-6.83-2.74-7.61-3.52ZM121.95,284.2c.6-.14,5.93,2.6,8.37.83l-.89,13.36c-1.78.4-2.37-1.74-3.99-1.77-1.53-.03-2.96,1.83-5.27,1.75-1.03-.04-8.54-2.36-8.54-3.1,2.12-1.02,9.58-10.92,10.32-11.08ZM108.2,282.49c1.34-1.53,8.52-2.63,8.75,1.19l-6.64,5.81c-1.51-.35-3.09-5.91-2.11-7ZM98.26,281.48c2.08.64,6.4.38,6.22,3.56-1.66-.58-6.78-.82-6.22-3.56ZM91.13,283.26c5.91,1.81,13.6,4.01,15.15,10.68-6.57-.06-17.06-1.81-15.15-10.68ZM88.45,318.88l.89-8.02c10.5.62,7.76,7.09-.89,8.02ZM77.77,277.02c2.4.1,11.97,10.39,10.68,11.57-1.29,1.19-14.62-7.43-10.68-11.57ZM79.09,327.78c-3.48.74-1.85-11.51-3.12-14.24,2.16.9,9.3-1.91,9.77.49.45,2.31-4.17,12.02-6.65,13.75ZM60.85,277.46c-.08-1.82,2.69-.74,3.36-.71,1.96.09,6.73.15,7.99,1.38,1.6,1.57,3.99,7.68,6.45,9.57-2.47-.6-17.75-9.21-17.8-10.24ZM51.92,311.76c5.9,1.37,8.46,3.63,6.23,9.8-2.11-.6-7.45-8.46-6.23-9.8ZM36.77,321.55c-.77.64-7.51-.71-8-2.66,3.39-.25,7.41-2.39,8,2.66ZM26.52,327.81c-3.74-.18-9.36-4.23-10.23-8.04,1.51,3.51,10.71,5.4,11.57,6.25.89.88.14,1.86-1.34,1.79ZM43.01,331.35c-7.23-.6-13.25-5.51-17.82-10.68,3.22.71,5.15,3.44,8.4,4.5,2.09.68,5.72.56,6.56,1.03.25.15,3.32,4.72,2.85,5.15ZM63.95,344.69c-2.52.06-15.37-11.18-17.38-13.78-1.39-1.81-8.39-13.44-7.12-14.69,16.31-2.56,16.63,16.8,25.1,26.13,1.2.79-.05,2.32-.6,2.34ZM76.85,347.84c-1.9-1.42-5.1-1.37-6.65-3.15-1.23-1.4-7.74-14.5-8.25-16.68-1.18-4.99-.39-9.48-.22-14.47,1.6-.2,2.04,1.06,3.64,1.35,2.24.42,6.58-2.92,8.63.62.78,1.35-.03,8.24.29,10.85,1.04,8.37,5.99,16.9,6.13,25.47-1.76-.69-2.02-2.84-3.57-4ZM96.91,380.35c-5.24-13.32-12.1-21.85-13.79-36.99-.25-2.29-.98-9.7-.86-11.52.14-2.27,3.09-6.98,5-8.37.92-.67,10.13-5.28,10.72-5.34,2.44-.23,6.96,9.23,7.84,11.45,7.16,18,6.17,44.94,5.84,64.61-.04,2.52-1.88,19.1-2.71,20-1.46,1.57-1.52-.29-1.75-1.34-2.27-10-6.52-22.92-10.28-32.49ZM37.67,431.11c-.45.74-3.92,8.88-5.35,7.11v-7.12s5.35.01,5.35.01ZM37.73,434.71c.75-.52,2.77.87,3.85.67,1.62-.29,2.61-5.19,5-3.38.93.71-13.29,17.14-15.14,17.81-.54-2.02,5.61-14.63,6.29-15.1ZM27.86,433.78v13.81c0,.54-3.19,9.86-3.58,10.24-1.31,1.25-1.6-.08-1.76-1.31-.81-6.18,1.63-14.67,3.45-20.66.45-1.46-.71-2.49,1.89-2.07ZM23.4,432.89l-.89,6.23c-2.83-1.45-1.84-5.4.89-6.23ZM9.14,433.32c8.58-1.34,11.02,7.71,10.7,14.71-1.56.31-2.19-.81-3.13-1.77-1.86-1.92-5.99-7.8-7.56-10.25-.75-1.17-1.68-1.31-.01-2.69ZM6.45,443.97c-.06-1.78.61-3.19.93-4.85.96-.71,9.73,12.65,10.25,14.23.98,2.93,1.12,12.55-1.45,14.15-.39.24-2.19.25-2.49.06-1.05-.67-7.15-20.99-7.23-23.6Z"/>
      <g>
        <g>
          <path class="cls-1" d="M773.62,285.93c.01,1.06-1.14,1.31-1.78,1.77-.93.67-3.48-.08-2.66,3.56.5,1.07,1.73-4.5,1.77.01-.78.78-.73,2.27-2.66,1.77-.5-4.44.24-7.7,5.34-7.11Z"/>
          <path class="cls-1" d="M890.34,232.47c-1.67,1.76-2.05-3.88-3.14-.9-1.41,3.91,2.13,4.96-1.77,6.25.06-3.18-1.73-2.23-2.22-2.66-.59-.53-1.33-1.14-1.78-1.78l2.67-1.79v2.68c.48-.63,3.48-3.93,3.54-4.2.52-2.42-.88-5.57,1.81-7.38h.89c-2.95,3.95.35,9.42,0,9.79Z"/>
        </g>
        <g>
          <path class="cls-1" d="M471.58,387.46c-2.03,2-5.42,3.71-7.14,5.78-1.38,1.64-8.8,14.35-9.98,16.75-2.77,5.72-4.06,13.96-3.38,20.23-.91-2.94-.89-7.23-.34-11.44v-.02c.07-.52.14-1.04.23-1.56v-.02c.52-3.26,1.32-6.35,2.21-8.59.36-.89,9.27-15.73,9.87-16.48,1.13-1.41,6.86-5.42,8.52-4.65Z"/>
          <path class="cls-1" d="M471.58,387.46c-2.03,2-5.42,3.71-7.14,5.78-1.38,1.64-8.8,14.35-9.98,16.75-2.77,5.72-4.06,13.96-3.38,20.23-3.79-3.17-1.18-7.92-.34-11.44v-.02c.13-.53.21-1.03.23-1.49v-.09c-.01-.97-.8-1.88-.78-2.1.22-2.98,1.78-8.19,1.78-9.36v-18.7c0-.88-2.8-7.6-3.57-8.46.35-1.08.86-1.97,1.78-2.67-.45.42,3.14,6.77,4.45,7.13,1.45-2.31-1.67-8.69-4.08-7.39,3.1-2.02,4.38,1.54,6.76,3.83-2.99,8.31-2.24,17.23-3.56,25.83,2.78-3.16,6.81-9.27,7.62-13.32.41-2.08.1-8.03-.51-9.84.68-2.27,1.63-.88,1.78-.89.63,7.92,1.58,10.84,7.13,3.57.96.96,1.37,2.25,1.78,2.66Z"/>
        </g>
      </g>
    </g>
  </g>
</svg>