<?xml version="1.0" encoding="UTF-8"?>
<svg id="Layer_2" data-name="Layer 2" xmlns="http://www.w3.org/2000/svg" viewBox="0 0 1367.12 445.77">
  <defs>
    <style>
      .cls-1 {
        fill: #383531;
      }
    </style>
  </defs>
  <g id="Layer_1-2" data-name="Layer 1">
    <g id="ohhdVU.tif">
      <path class="cls-1" d="M1367.12,74.52v371.25H0V44.33c.79-.14,1.56-.4,2.31-.37,1.12.06,2.07-.48,3.07-.94,1.12-.51,2.3-.88,3.44-1.36.45-.19.9-.45,1.29-.78,1.39-1.18,2.88-1.87,4.62-1.67.78.09,1.57.06,2.35.01,1.74-.11,3.34.64,4.98,1.17.46.16.94.28,1.42.29,1.47.01,2.9.26,4.33.69,1.83.55,3.69.93,5.48,1.67.36.15.78.13,1.17.08,1.95-.23,3.72.74,5.57,1.19,2.51.6,4.71,2.14,7.09,3.18,1.23.53,2.52.85,3.76,1.36.73.3,1.46.7,2.11,1.2,1.02.81,2.05,1.53,3.19,2.11,1.2.61,2.27,1.58,3.45,2.23,2.03,1.11,4.1,2.08,6.16,3.11,3.73,1.86,7.51,3.6,11.04,5.98.84.57,1.68.87,2.64.53.22-.08.49-.07.73-.04,1.51.26,2.86-.55,4.25-.99,1.6-.51,3.13-1.26,4.78-1.56,1.67-.3,3.3-.95,4.97-1.31,2.01-.44,4.05-.63,6.05-1.12,2.51-.62,5.03-.68,7.58-.72.34-.01.67-.11,1.01-.17,1.06-.17,2.12-.35,3.18-.52.34-.05.69-.03,1.01-.12,1.52-.42,3.03-.87,4.54-1.31,1.79-.52,3.56-1.12,5.37-1.55,1.66-.4,3.36-.67,5.04-.91,2.47-.34,4.94-.65,7.42-.89,1.32-.13,2.64-.1,3.96-.12,1.71-.03,3.43-.01,5.14-.05.58-.01,1.16-.14,1.74-.21.34-.03.69-.14,1.01-.06,2.38.55,4.78.31,7.18.29,2.1-.03,4.03.73,6,1.4.51.18,1.04.3,1.56.36,1.51.14,3.01.28,4.52.35,3.32.16,6.64.38,9.96.37,1.55-.01,3.06-.65,4.16-2.12,1.45-1.94,3.18-3.17,5.37-3.61,1.74-.35,3.3-1.43,4.84-2.44,2.07-1.35,4.26-2.35,6.57-2.78,2.75-.51,5.5-.64,8.26.38,3.27,1.21,6.11,3.31,8.78,5.78,1.83,1.69,3.74,3.24,5.98,3.85,1.5.41,2.98,1.09,4.58.94,2.23-.2,4.34.53,6.45,1.33.32.12.65.32.98.32,1.86,0,3.68.46,5.51.71,1.25.17,2.37.6,3.5,1.11.64.29,1.27.62,1.93.8,2.12.61,4.24,1.22,6.45,1.41,1.54.14,3.08.49,4.61.85.78.19,1.42.03,2.1-.39,1.95-1.2,3.94-2.25,6.04-3,1.86-.67,3.68-1.49,5.54-2.16,1.16-.42,2.36-.66,3.55-1,1.03-.29,2.05-.63,3.11-.83,2.21-.41,4.39-1.02,6.56-1.67,1.51-.45,2.97-1.08,4.45-1.65,1.89-.73,3.77-1.5,5.67-2.22,2.08-.78,4.15-1.66,6.28-2.25,3.44-.96,6.57-2.89,9.84-4.38,2.4-1.1,4.77-2.31,7.14-3.52,3.58-1.83,7.15-3.71,10.73-5.53,1.7-.87,3.45-1.59,5.15-2.47,1.2-.63,2.4-1.31,3.49-2.17,2.43-1.91,5.09-3.17,7.78-4.4,4.22-1.93,8.49-3.75,12.59-6.06,1.43-.82,2.97-1.38,4.5-1.91,1.78-.61,3.58-1.08,5.38-1.58.38-.11.78-.13,1.16-.14,2.35-.02,4.7-.06,7.06-.01.86.02,1.72.34,2.58.46,1.31.19,2.61.37,3.92.48,1.02.08,2.06.13,3.08.05,1.75-.13,3.49-.37,5.23-.56.39-.04.78-.08,1.17-.11,1.46-.12,2.93-.12,4.38-.38.89-.17,1.75-.66,2.59-1.11,1.1-.61,2.14-1.4,3.26-1.98,2.22-1.17,4.52-2.1,6.94-2.58.24-.05.46-.18.51-.2,1.88.48,3.6.84,5.29,1.37,2.71.87,5.4,1.87,8.12,2.77,1.26.41,2.55.7,3.82,1.08.98.3,1.95.69,2.93,1.01,1.5.49,3.01.97,4.51,1.45,1.36.43,2.71.9,4.08,1.27.56.15,1.16.08,1.75.15,1.4.18,2.79.4,4.19.59.44.06.88.08,1.32.09,1.47.02,2.94-.02,4.4.04,1.82.06,3.6-.18,5.38-.55,1.68-.35,3.39-.48,5.03-.98,2.27-.69,4.51-1.55,6.24-3.63.72-.87,1.42-1.77,2.09-2.6,1.29-.11,2.44-.14,3.6.27,1.22.44,2.47.44,3.75.12,1.23-.31,2.51-.31,3.77-.45.73-.09,1.45-.19,2.18-.29.91-.14,1.83-.29,2.74-.45.53-.09,1.06-.18,1.57-.35,1.3-.43,2.65-.75,3.87-1.4,2.27-1.22,4.81-1.49,6.96-3.09.49-.37.97-.75,1.42-1.19,1.89-1.83,3.99-3.01,6.44-3.46,1.43-.26,2.63-.09,3.93.69,1.55.94,3.24,1.56,4.88,2.29,2.18.98,4.37,1.96,6.58,2.88,1.19.49,2.44.77,3.64,1.27,2.06.85,4.12,1.74,6.15,2.72,2.3,1.11,4.54,2.39,6.84,3.51,3.16,1.54,6.21,3.3,9.13,5.44,1.67,1.23,3.52,2.16,5.53,1.95,1.96-.21,3.63.58,5.27,1.65,1.81,1.19,3.41,2.68,4.61,4.76.72,1.24,1.56,2.39,2.41,3.52,1.81,2.39,3.9,4.42,6.12,6.27,3.61,2.99,7.24,5.97,10.92,8.84,3.8,2.96,7.66,5.83,11.54,8.63,1.32.94,2.79,1.62,4.24,2.25,1.86.81,3.77,1.45,5.66,2.15,1.14.42,2.28.66,3.45.19,1.66-.66,3.31-1.33,4.98-1.93,1.52-.54,3.05-.49,4.6-.01,1.54.49,3.07,1.13,4.7,1.12,1.76-.02,3.52-.01,5.11-.01,1.96-1.06,3.42-2.62,4.93-4.1,1.01-.99,2.09-1.88,3.4-2.29.3-.1.58-.42.82-.68.44-.48.84-1,1.26-1.48,1.66-1.9,3.75-2.9,5.79-3.99,1.19-.63,2.53-.86,3.72-1.49,1.77-.94,3.45-2.15,5.22-3.12,1.36-.74,2.79-1.31,4.21-1.89,1.15-.47,2.33-.85,3.49-1.26.51-.18,1.04-.29,1.54-.5,1.58-.67,3.05.08,4.57.39,1.94.39,3.63,1.63,5.5,2.21,2.02.63,4.07,1.16,6.13,1.58,2.84.58,5.59,1.46,8.25,2.83.97.5,1.91,1.14,3.05,1.14.72,0,2.73.15,3.37-.11.95-.38,1.85-.41,2.62.42,1.69,1.79,3.86,2.42,5.83,3.54,1.67.94,3.48,1.38,5.29,1.78,1.09.24,2.14.74,3.2,1.11,3.31,1.14,6.61,1.69,10.08.74,2.2-.6,4.26-1.54,6.37-2.43,1.1-.46,2.24-.8,3.38-1.12.73-.2,1.48-.13,2.08.5,2.13,2.23,4.74,3.44,7.21,4.98.78.48,1.58.94,2.32,1.49,1.23.9,2.64,1.14,3.95,1.71.92.39,1.91.54,2.79,1.01,1.9,1.03,3.86,1.61,5.94,1.53.25-.01.5-.02.73.05,2.93.99,5.93.56,8.9.53,1.25-.01,2.49-.49,3.72-.84,1.06-.31,2,0,2.98.47,1.02.49,2.1.97,3.18,1.12,1.5.21,2.98.49,4.46.89,1.7.45,3.45.63,5.19.93.48.08.95.22,1.44.27,1.55.16,3.11.27,4.66.43,1.79.19,3.58.5,5.38.59,2.14.11,4.3.13,6.45.04.81-.03,1.63-.38,2.4-.72,2.29-1.02,4.68-1.54,7.05-2.25.85-.25,1.72-.39,2.56-.68.67-.23,1.3-.08,1.85.26,3.05,1.89,6.36,2.94,9.58,4.26,1.01.41,2.07.67,3.12.89,1.96.41,3.94.73,5.91,1.11,2.2.43,4.4.96,6.62,1.32,2.41.38,4.8.94,7.28.84,2.78-.12,5.57-.09,8.37.03,2.03.09,3.94-.44,5.55-1.78,2.68-2.22,5.74-3.48,8.61-5.23,1.94-1.2,4.01-2.13,6.08-2.98,1.93-.79,3.94-1.32,5.92-1.93.37-.12.77-.12,1.16-.13,1.32-.02,2.65.05,3.96-.05,2.39-.19,4.65.54,6.93,1.21,1.65.48,3.32.85,4.98,1.32.89.26,1.76.62,2.64.94.75.28,1.52.48,2.22.87,1.32.74,2.78.57,4.15.96,1.06.3,2.11-.17,3.09-.73,1.36-.78,2.69-1.64,4.08-2.34,1.53-.76,3.07-1.66,4.67-1.98,2.09-.4,4.25-.72,6.32.5,1.49.86,3.04,1.59,4.6,2.23,1.26.51,2.56.57,3.83-.18,1.78-1.05,3.7-1.77,5.62-.96,1.53.64,3.05.6,4.6.69,1.26.07,2.54.11,3.78.4,1.67.41,3.29.19,4.93-.14,1.25-.26,2.44-.65,3.53-1.49.53-.4,1.18-.55,1.78-.81,1.73-.76,3.46-1.49,5.18-2.27,1.22-.56,2.47-.64,3.75-.62.83.02,1.66.01,2.54.01.29-.44.63-.81.82-1.26.97-2.44,3.03-3.16,5.23-2.33,1.3.49,2.6.99,3.87,1.54.54.23,1.01.17,1.56.06,2.68-.54,5.34-1.23,8.11-1.26,2.55-.03,4.92-.88,7.14-2.62,2.13-1.68,4.06-3.63,5.96-5.61,1.14-1.19,2.46-1.8,3.86-1.88,2.42-.15,4.85-.27,7.29.5,1.76.55,3.64.64,5.48.82.6.06,1.25-.18,1.83-.42,1.01-.42,1.97-.98,2.98-1.4.64-.27,1.31-.5,1.98-.55,1.53-.1,2.97-.63,4.39-1.21.6-.25,1.15-.29,1.67.13.98.76,1.98,1.51,2.91,2.35,1.42,1.27,2.96,2.21,4.61,2.95,2.04.92,4.05,1.96,6.13,2.81,1.7.69,3.44,1.25,5.19,1.73,2.46.67,5.01.99,7.42,1.86,2,.73,4.04.58,6.05,1.16,3.71,1.06,7.1,2.93,10.27,5.35,2.48,1.89,4.99,3.69,7.72,5,1.67.81,3.39,1.44,5.11,2.08,3.33,1.26,6.66,2.64,10.05,3.63,2.34.69,4.76,1.27,7.24.91,2.37-.35,4.66-.07,6.79,1.31,1.38.91,2.67.94,4.18.4,2.09-.75,4.26-1.14,6.41-1.65,1.71-.4,3.45-.7,5.15-1.15,2.58-.68,4.97-1.98,7.39-3.25,1.51-.79,3.14-1.25,4.69-1.91,2.61-1.12,5.22-2.25,7.81-3.45,1.99-.93,3.96-1.92,5.9-3,1.58-.87,3.1-1.93,4.66-2.86,1.66-.99,3.3-2.08,5.03-2.85,2.24-1.01,4.59-1.39,7.02-1.35,1.55.02,2.97.47,4.39,1.16,1.07.52,2.23.64,3.3.22.85-.33,1.7-.45,2.55-.69,1.91-.53,3.85-.65,5.77-.98,1.86-.31,3.76-.7,5.5-1.64.9-.48,1.82-.62,2.71-.41,2,.45,4.02.8,5.86,1.97.59.37,1.27.57,1.92.81,1.52.57,3.02,1.37,4.57,1.62,2.02.32,4,1.27,6.07.88,1.44-.28,2.88-.59,4.26-1.1,2.12-.8,4.17-1.3,6.46-.76,2.06.49,3.9,1.39,5.65,2.69,2.78,2.06,5.49,4.26,8.36,6.14,2.6,1.71,5.33,3.15,8.08,4.54,2.51,1.27,5.13,2.23,7.66,3.46,1.66.81,3.29.83,4.99.33,2.18-.65,4.39-.95,6.67-.91,2.7.04,5.11,1.1,7.25,2.91,3.33,2.83,6.87,5.14,10.71,6.78,1.74.73,3.48,1.46,5.25,2.08.83.3,1.72.35,2.68.53,1.07-.33,2.04-1.14,2.98-1.97,1.33-1.16,2.82-1.73,4.39-2.26,1.57-.53,3.06-1.46,4.54-2.35,1.59-.95,3.28-1.09,4.98-1.02,1.93.09,3.74.83,5.38,2.03,1.06.77,2.28.92,3.41,1.42,1.04.47,2.14.79,3.15,1.35,1.11.62,2.2,1.17,3.47,1.15.87-.01,1.75.28,2.62.25,2.34-.06,4.68-.21,7.03-.34.33-.02.67-.12,1.01-.17,1.88-.26,3.77-.45,5.65-.82,2.57-.5,5.16-.27,7.74-.43,2-.12,3.79-1.03,5.22-2.8,1.24-1.53,2.71-2.62,4.42-3.3,1.74-.7,3.41-.69,5.15,0,2.73,1.05,5.5,1.96,8.25,2.94.7.24,1.4.51,2.14.78Z"/>
    </g>
  </g>
</svg>