<?xml version="1.0" encoding="UTF-8"?>
<svg id="Layer_2" data-name="Layer 2" xmlns="http://www.w3.org/2000/svg" viewBox="0 0 108.49 108.54">
  <defs>
    <style>
      .cls-1 {
        fill: #fff;
        font-family: SuisseIntlMono, 'Suisse Int'l Mono';
        font-size: 7.79px;
      }
    </style>
  </defs>
  <g id="Layer_1-2" data-name="Layer 1">
    <text class="cls-1" transform="translate(29.73 24.13) rotate(-35.41)"><tspan x="0" y="0">H</tspan></text>
    <text class="cls-1" transform="translate(33.77 21.26) rotate(-28.02)"><tspan x="0" y="0">A</tspan></text>
    <text class="cls-1" transform="translate(38.12 18.94) rotate(-20.71)"><tspan x="0" y="0">M</tspan></text>
    <text class="cls-1" transform="translate(42.74 17.19) rotate(-13.58)"><tspan x="0" y="0">A</tspan></text>
    <text class="cls-1" transform="translate(47.56 16.02) rotate(-6.22)"><tspan x="0" y="0">B</tspan></text>
    <text class="cls-1" transform="translate(52.45 15.48) rotate(1.06)"><tspan x="0" y="0">R</tspan></text>
    <text class="cls-1" transform="translate(57.39 15.57) rotate(8.43)"><tspan x="0" y="0">I</tspan></text>
    <text class="cls-1" transform="translate(62.29 16.29) rotate(15.77)"><tspan x="0" y="0">C</tspan></text>
    <text class="cls-1" transform="translate(67.02 17.62) rotate(23.02)"><tspan x="0" y="0">H</tspan></text>
    <text class="cls-1" transform="translate(71.57 19.55) rotate(30.29)"><tspan x="0" y="0">O</tspan></text>
    <text class="cls-1" transform="translate(75.84 22.04) rotate(37.56)"><tspan x="0" y="0"> </tspan></text>
    <text class="cls-1" transform="translate(79.78 25.05) rotate(44.85)"><tspan x="0" y="0">C</tspan></text>
    <text class="cls-1" transform="translate(83.27 28.52) rotate(52.14)"><tspan x="0" y="0">O</tspan></text>
    <text class="cls-1" transform="translate(86.31 32.42) rotate(59.49)"><tspan x="0" y="0">F</tspan></text>
    <text class="cls-1" transform="translate(88.83 36.69) rotate(66.86)"><tspan x="0" y="0">F</tspan></text>
    <text class="cls-1" transform="translate(90.77 41.22) rotate(74.13)"><tspan x="0" y="0">E</tspan></text>
    <text class="cls-1" transform="translate(92.13 45.98) rotate(81.33)"><tspan x="0" y="0">E</tspan></text>
    <text class="cls-1" transform="translate(92.88 50.84) rotate(88.6)"><tspan x="0" y="0"> </tspan></text>
    <text class="cls-1" transform="translate(93.01 55.78) rotate(95.95)"><tspan x="0" y="0">&amp;</tspan></text>
    <text class="cls-1" transform="translate(92.5 60.69) rotate(103.29)"><tspan x="0" y="0"> </tspan></text>
    <text class="cls-1" transform="translate(91.37 65.51) rotate(110.61)"><tspan x="0" y="0">C</tspan></text>
    <text class="cls-1" transform="translate(89.64 70.12) rotate(117.86)"><tspan x="0" y="0">O</tspan></text>
    <text class="cls-1" transform="translate(87.33 74.5) rotate(125.12)"><tspan x="0" y="0"> </tspan></text>
    <text class="cls-1" transform="translate(84.49 78.55) rotate(132.4)"><tspan x="0" y="0">-</tspan></text>
    <text class="cls-1" transform="translate(81.16 82.2) rotate(139.7)"><tspan x="0" y="0"> </tspan></text>
    <text class="cls-1" transform="translate(77.41 85.39) rotate(147.01)"><tspan x="0" y="0">H</tspan></text>
    <text class="cls-1" transform="translate(73.28 88.08) rotate(154.35)"><tspan x="0" y="0">A</tspan></text>
    <text class="cls-1" transform="translate(68.82 90.23) rotate(161.68)"><tspan x="0" y="0">M</tspan></text>
    <text class="cls-1" transform="translate(64.13 91.79) rotate(168.89)"><tspan x="0" y="0">A</tspan></text>
    <text class="cls-1" transform="translate(59.3 92.74) rotate(176.12)"><tspan x="0" y="0">B</tspan></text>
    <text class="cls-1" transform="translate(54.36 93.08) rotate(-176.53)"><tspan x="0" y="0">R</tspan></text>
    <text class="cls-1" transform="translate(49.42 92.79) rotate(-169.16)"><tspan x="0" y="0">I</tspan></text>
    <text class="cls-1" transform="translate(44.57 91.87) rotate(-161.84)"><tspan x="0" y="0">C</tspan></text>
    <text class="cls-1" transform="translate(39.88 90.34) rotate(-154.58)"><tspan x="0" y="0">H</tspan></text>
    <text class="cls-1" transform="translate(35.41 88.22) rotate(-147.31)"><tspan x="0" y="0">O</tspan></text>
    <text class="cls-1" transform="translate(31.25 85.55) rotate(-140.05)"><tspan x="0" y="0"> </tspan></text>
    <text class="cls-1" transform="translate(27.46 82.39) rotate(-132.77)"><tspan x="0" y="0">C</tspan></text>
    <text class="cls-1" transform="translate(24.1 78.77) rotate(-125.45)"><tspan x="0" y="0">O</tspan></text>
    <text class="cls-1" transform="translate(21.24 74.75) rotate(-118.11)"><tspan x="0" y="0">F</tspan></text>
    <text class="cls-1" transform="translate(18.9 70.39) rotate(-110.76)"><tspan x="0" y="0">F</tspan></text>
    <text class="cls-1" transform="translate(17.15 65.77) rotate(-103.58)"><tspan x="0" y="0">E</tspan></text>
    <text class="cls-1" transform="translate(15.99 60.98) rotate(-96.31)"><tspan x="0" y="0">E</tspan></text>
    <text class="cls-1" transform="translate(15.44 56.06) rotate(-88.98)"><tspan x="0" y="0"> </tspan></text>
    <text class="cls-1" transform="translate(15.52 51.14) rotate(-81.66)"><tspan x="0" y="0">&amp;</tspan></text>
    <text class="cls-1" transform="translate(16.23 46.25) rotate(-74.32)"><tspan x="0" y="0"> </tspan></text>
    <text class="cls-1" transform="translate(17.56 41.49) rotate(-67.02)"><tspan x="0" y="0">C</tspan></text>
    <text class="cls-1" transform="translate(19.49 36.93) rotate(-59.75)"><tspan x="0" y="0">O</tspan></text>
    <text class="cls-1" transform="translate(21.96 32.68) rotate(-52.53)"><tspan x="0" y="0"> </tspan></text>
    <text class="cls-1" transform="translate(24.97 28.74) rotate(-45.23)"><tspan x="0" y="0">-</tspan></text>
    <text class="cls-1" transform="translate(28.45 25.22) rotate(-37.9)"><tspan x="0" y="0"> </tspan></text>
  </g>
</svg>