<?xml version="1.0" encoding="UTF-8"?>
<svg id="Layer_2" data-name="Layer 2" xmlns="http://www.w3.org/2000/svg" xmlns:xlink="http://www.w3.org/1999/xlink" viewBox="0 0 1399.06 718.77">
  <defs>
    <style>
      .cls-1 {
        fill: url(#radial-gradient);
      }
    </style>
    <radialGradient id="radial-gradient" cx="699.53" cy="355.28" fx="699.53" fy="355.28" r="557.39" gradientTransform="translate(0 -140.13) scale(1 1.41)" gradientUnits="userSpaceOnUse">
      <stop offset="0" stop-color="#232321" stop-opacity=".96"/>
      <stop offset=".76" stop-color="#232321"/>
    </radialGradient>
  </defs>
  <g id="Layer_1-2" data-name="Layer 1">
    <g id="ohhdVU.tif">
      <path class="cls-1" d="M1399.06,42.95v675.82H0v-149.15h2v-270.42H0V38.62c1.76.45,3.39,1.07,5.17,1.49,3.45.81,6.95,1.54,10.45,2.28,6.31,1.37,12.69,2.67,18.68,4.42,1.43.41,2.85.62,4.49.39.37-.05.82-.05,1.23-.03,2.56.19,4.86-.41,7.21-.74,2.71-.36,5.29-.92,8.1-1.14,2.85-.23,5.61-.71,8.43-.98,3.41-.32,6.87-.45,10.26-.82,4.26-.45,8.54-.49,12.84-.53.57,0,1.15-.08,1.71-.12,1.8-.12,3.59-.27,5.4-.39.56-.03,1.16-.02,1.71-.08,2.57-.32,5.14-.65,7.7-.98,3.04-.39,6.04-.82,9.11-1.15,2.82-.29,5.68-.48,8.56-.67,4.17-.25,8.36-.47,12.55-.65,2.24-.09,4.48-.07,6.72-.09,2.91-.02,5.8-.01,8.7-.03.99,0,1.96-.11,2.95-.15.58-.04,1.18-.11,1.73-.06,4.02.41,8.1.24,12.15.22,3.57-.01,6.84.53,10.16,1.04.86.13,1.75.22,2.65.26,2.55.11,5.11.21,7.66.27,5.62.11,11.25.27,16.87.27,2.63,0,5.18-.48,7.05-1.56,2.47-1.42,5.39-2.33,9.1-2.67,2.96-.25,5.61-1.05,8.22-1.79,3.51-.99,7.22-1.73,11.13-2.05,4.65-.39,9.34-.48,13.99.27,5.54.9,10.34,2.45,14.86,4.26,3.1,1.26,6.35,2.39,10.15,2.85,2.55.3,5.06.81,7.76.69,3.8-.14,7.38.4,10.93.98.55.09,1.1.24,1.65.24,3.17,0,6.24.35,9.35.52,2.11.13,4.01.44,5.95.82,1.07.21,2.15.46,3.26.59,3.59.44,7.19.9,10.91,1.05,2.63.09,5.25.35,7.83.62,1.32.14,2.41.02,3.55-.3,3.3-.88,6.7-1.65,10.25-2.22,3.16-.49,6.26-1.1,9.4-1.58,1.97-.31,4-.49,6.01-.73,1.76-.23,3.47-.48,5.28-.62,3.73-.3,7.43-.75,11.12-1.24,2.54-.33,5.02-.79,7.54-1.23,3.19-.52,6.39-1.1,9.6-1.63,3.54-.57,7.06-1.22,10.64-1.66,5.83-.7,11.12-2.14,16.66-3.23,4.08-.81,8.09-1.7,12.11-2.59,6.06-1.36,12.1-2.73,18.16-4.08,2.89-.63,5.86-1.17,8.73-1.83,2.05-.47,4.08-.95,5.93-1.58,4.1-1.41,8.62-2.34,13.17-3.24,7.16-1.44,14.39-2.78,21.33-4.49,2.44-.6,5.05-1.01,7.66-1.4,3-.45,6.07-.8,9.12-1.17.63-.09,1.3-.1,1.96-.1,3.98,0,7.96-.05,11.93,0,1.48.02,2.93.25,4.39.35,2.21.13,4.43.26,6.66.36,1.72.05,3.47.08,5.21.03,2.97-.1,5.92-.28,8.88-.42.65-.03,1.32-.05,1.98-.08,2.47-.08,4.98-.09,7.4-.29,1.54-.12,3-.48,4.4-.82,1.89-.45,3.65-1.04,5.55-1.45,3.76-.87,7.66-1.54,11.74-1.91.4-.04.79-.14.87-.15,3.19.37,6.11.62,8.96,1.01,4.62.65,9.16,1.39,13.77,2.06,2.13.3,4.32.51,6.47.8,1.67.22,3.3.49,4.98.73,2.53.37,5.08.71,7.63,1.08,2.31.32,4.59.65,6.92.93.96.11,1.98.07,2.97.11,2.37.14,4.74.3,7.11.45.75.04,1.5.06,2.24.06,2.48,0,4.97-.02,7.47.03,3.07.05,6.09-.13,9.13-.41,2.83-.27,5.73-.37,8.52-.72,3.83-.51,7.64-1.14,10.56-2.67,1.21-.65,2.42-1.32,3.55-1.92,2.17-.1,4.12-.11,6.09.19,2.07.33,4.19.33,6.36.1,2.1-.24,4.28-.24,6.4-.35,1.24-.06,2.47-.14,3.69-.21,1.56-.11,3.1-.21,4.64-.33.9-.08,1.81-.13,2.69-.27,2.2-.31,4.49-.55,6.55-1.03,3.84-.9,8.15-1.11,11.78-2.28.82-.26,1.65-.54,2.42-.87,3.21-1.36,6.76-2.24,10.89-2.56,2.42-.19,4.47-.06,6.65.51,2.66.68,5.52,1.14,8.29,1.69,3.7.71,7.42,1.44,11.15,2.12,2.02.38,4.14.57,6.15.94,3.51.63,7.01,1.3,10.45,2.02,3.89.82,7.69,1.76,11.59,2.58,5.34,1.15,10.52,2.43,15.45,4.02,2.83.91,5.99,1.59,9.37,1.43,3.33-.15,6.18.44,8.96,1.22,3.06.88,5.77,1.98,7.81,3.52,1.21.91,2.64,1.77,4.09,2.6,3.06,1.77,6.6,3.26,10.36,4.62,6.11,2.21,12.26,4.4,18.5,6.52,6.44,2.18,12.97,4.3,19.55,6.36,2.23.68,4.73,1.2,7.18,1.66,3.17.59,6.4,1.07,9.6,1.58,1.93.31,3.86.48,5.86.14,2.81-.48,5.61-.98,8.44-1.42,2.59-.4,5.17-.37,7.8-.01,2.61.37,5.21.85,7.97.83,2.98-.01,5.97,0,8.67,0,3.33-.78,5.8-1.94,8.35-3.04,1.71-.72,3.55-1.37,5.78-1.69.52-.06.98-.3,1.39-.49.73-.36,1.41-.73,2.13-1.1,2.8-1.39,6.37-2.14,9.83-2.94,2.01-.47,4.28-.63,6.29-1.1,3.03-.7,5.86-1.59,8.85-2.31,2.32-.53,4.74-.96,7.15-1.38,1.95-.35,3.94-.63,5.92-.93.87-.14,1.76-.22,2.6-.39,2.68-.47,5.18.06,7.76.3,3.29.29,6.16,1.21,9.32,1.64,3.43.45,6.9.85,10.39,1.16,4.83.44,9.48,1.07,13.98,2.09,1.65.38,3.24.85,5.17.85,1.23,0,4.64.11,5.72-.08,1.6-.3,3.15-.31,4.45.3,2.85,1.33,6.54,1.79,9.87,2.61,2.83.71,5.91,1.03,8.99,1.33,1.84.18,3.6.54,5.43.81,5.59.84,11.19,1.27,17.06.55,3.72-.44,7.22-1.14,10.79-1.79,1.86-.35,3.79-.58,5.72-.83,1.24-.15,2.52-.1,3.54.37,3.61,1.64,8.04,2.54,12.21,3.68,1.32.36,2.67.69,3.93,1.1,2.08.66,4.47.84,6.71,1.26,1.54.3,3.23.41,4.72.75,3.22.75,6.54,1.19,10.07,1.13.43,0,.87-.02,1.25.04,4.97.73,10.06.42,15.07.39,2.11-.01,4.22-.36,6.32-.62,1.79-.22,3.38,0,5.03.36,1.73.36,3.57.71,5.41.82,2.54.16,5.04.37,7.54.66,2.9.34,5.87.46,8.81.67.81.07,1.62.17,2.45.21,2.63.12,5.26.21,7.89.32,3.05.15,6.08.37,9.13.44,3.63.07,7.28.09,10.94.02,1.37-.02,2.77-.28,4.07-.53,3.89-.75,7.94-1.13,11.94-1.66,1.43-.18,2.92-.28,4.33-.48,1.15-.19,2.22-.07,3.14.19,5.18,1.39,10.79,2.16,16.24,3.14,1.7.31,3.51.5,5.29.66,3.33.31,6.67.53,10.02.82,3.73.31,7.45.7,11.2.98,4.1.28,8.15.69,12.32.61,4.73-.09,9.48-.07,14.18.02,3.46.07,6.69-.32,9.43-1.32,4.54-1.64,9.73-2.57,14.57-3.87,3.3-.88,6.81-1.57,10.33-2.19,3.28-.59,6.68-.97,10.03-1.43.64-.08,1.32-.08,1.96-.09,2.25,0,4.5.03,6.73-.04.37,0,.72-.02,1.08,0Z"/>
    </g>
  </g>
</svg>