<?xml version="1.0" encoding="UTF-8"?>
<svg id="Layer_2" data-name="Layer 2" xmlns="http://www.w3.org/2000/svg" viewBox="0 0 56.14 50.12">
  <defs>
    <style>
      .cls-1 {
        fill: #fff;
      }

      .cls-2 {
        fill: #94c35f;
      }
    </style>
  </defs>
  <g id="Layer_1-2" data-name="Layer 1">
    <g>
      <polygon class="cls-1" points="37.31 0 56.07 0 56.07 32.89 46.64 23.46 39.59 30.51 33.06 23.99 21.58 35.47 11.28 25.17 .09 36.35 0 0 19.42 0 25.08 0 25.08 10.93 31.24 10.93 31.24 0 37.31 0"/>
      <polygon class="cls-2" points="0 50.11 0 46.3 11.35 34.95 26.44 50.03 0 50.11"/>
      <polygon class="cls-2" points="26.44 40.46 33.06 33.84 49.35 50.12 36.12 50.12 26.44 40.46"/>
      <polygon class="cls-2" points="44.52 35.35 46.78 33.09 56.14 42.45 56.14 47.03 44.52 35.35"/>
    </g>
  </g>
</svg>