<?xml version="1.0" encoding="UTF-8"?>
<svg id="Layer_2" data-name="Layer 2" xmlns="http://www.w3.org/2000/svg" viewBox="0 0 53.94 73.11">
  <defs>
    <style>
      .cls-1 {
        fill: none;
        stroke: #94c35f;
        stroke-miterlimit: 10;
      }

      .cls-2 {
        fill: #94c35f;
      }
    </style>
  </defs>
  <g id="Layer_1-2" data-name="Layer 1">
    <g>
      <path class="cls-2" d="M1.31,43.88C-2.17,29.88.62,3.62,17.91.21c6.68-1.32,16.11,3.69,20.93,8.09,15.81,14.4,22.08,44.34,4.54,59.8C26.14,83.3,5.47,60.57,1.31,43.88ZM49.15,58.14c4.83-11.21.23-26.22-6.08-36.03C36.44,11.79,22.53,1.09,9.89,7.26c.09.8.54.81,1.12,1.08,2.12,1.01,4.6,1.1,6.76,2.63,9.65,6.84,10.51,24.51,15.03,34.37,2.67,5.83,10.38,10.88,16.36,12.79ZM5.56,43.42c5.36,13.73,24.5,33.18,39.37,20.13-5.9-3.54-12.54-6.87-15.49-13.58-1.77-4.02-2.1-8.52-3.31-12.62-3.01-10.19-7.53-22.72-19.58-24.04l1.22-3.61c-.76-.47-1.52,1.02-1.91,1.64-4.35,6.77-3.17,24.78-.31,32.08Z"/>
      <path class="cls-1" d="M11.01,8.35c2.12,1.01,4.6,1.1,6.76,2.63,9.65,6.84,10.51,24.51,15.03,34.37,2.67,5.83,10.38,10.88,16.36,12.79,4.83-11.21.23-26.22-6.08-36.03C36.44,11.79,22.53,1.09,9.89,7.26c.09.8.54.81,1.12,1.08Z"/>
    </g>
  </g>
</svg>