<?xml version="1.0" encoding="UTF-8"?>
<svg id="Layer_2" data-name="Layer 2" xmlns="http://www.w3.org/2000/svg" viewBox="0 0 1367.38 224.55">
  <defs>
    <style>
      .cls-1 {
        fill: #94c35f;
      }
    </style>
  </defs>
  <g id="Layer_1-2" data-name="Layer 1">
    <g id="ohhdVU.tif">
      <path class="cls-1" d="M622.26,53.14c1.96-.97,3.42-2.39,4.93-3.74,1.01-.9,2.1-1.72,3.41-2.09.31-.09.58-.38.83-.62.44-.43.83-.9,1.26-1.35,1.66-1.73,3.76-2.65,5.8-3.64,1.19-.58,2.53-.78,3.72-1.36,1.78-.86,3.45-1.96,5.22-2.84,1.36-.68,2.8-1.2,4.22-1.73,1.15-.43,2.32-.78,3.49-1.15.51-.16,1.04-.26,1.54-.46,1.58-.61,3.06.07,4.58.36,1.94.36,3.63,1.49,5.51,2.02,2.02.57,4.07,1.05,6.13,1.44,2.84.53,5.6,1.33,8.25,2.58.96.45,1.91,1.04,3.05,1.04.73,0,2.74.14,3.38-.1.95-.35,1.85-.38,2.62.38,1.69,1.64,3.86,2.22,5.83,3.23,1.68.86,3.48,1.26,5.3,1.63,1.09.22,2.13.67,3.2,1.01,3.31,1.04,6.6,1.55,10.07.68,2.2-.55,4.26-1.41,6.36-2.22,1.1-.43,2.24-.73,3.38-1.02.73-.19,1.49-.12,2.09.45,2.13,2.03,4.74,3.14,7.21,4.54.78.44,1.58.86,2.32,1.36,1.22.82,2.64,1.04,3.96,1.56.91.36,1.91.49,2.79.93,1.9.93,3.86,1.46,5.95,1.39.24,0,.5-.02.73.05,2.93.9,5.93.5,8.9.48,1.24,0,2.49-.45,3.72-.77,1.06-.28,2,0,2.98.43,1.03.45,2.1.89,3.19,1.02,1.5.19,2.98.45,4.46.81,1.7.42,3.46.57,5.19.85.48.08.96.2,1.44.25,1.55.15,3.11.25,4.66.4,1.8.17,3.59.45,5.38.54,2.15.1,4.31.11,6.46.04.81-.03,1.63-.35,2.4-.66,2.29-.93,4.69-1.41,7.05-2.05.85-.23,1.72-.36,2.56-.62.67-.21,1.3-.07,1.85.24,3.05,1.72,6.36,2.68,9.59,3.88,1.01.38,2.07.62,3.12.82,1.97.37,3.95.66,5.91,1.01,2.21.39,4.4.88,6.62,1.2,2.41.35,4.81.86,7.27.77,2.79-.11,5.58-.09,8.37.03,2.04.08,3.95-.4,5.56-1.62,2.68-2.03,5.74-3.17,8.6-4.77,1.95-1.09,4.02-1.94,6.09-2.72,1.93-.72,3.94-1.2,5.92-1.76.37-.11.78-.11,1.17-.11,1.32-.02,2.65.04,3.96-.05,2.39-.17,4.65.49,6.92,1.1,1.65.44,3.33.78,4.98,1.21.9.23,1.77.56,2.65.86.74.25,1.52.43,2.22.79,1.32.68,2.78.52,4.15.88,1.07.28,2.12-.15,3.1-.67,1.36-.71,2.69-1.5,4.08-2.13,1.53-.7,3.07-1.52,4.67-1.81,2.09-.37,4.25-.66,6.33.45,1.49.79,3.04,1.45,4.61,2.04,1.26.47,2.56.52,3.83-.16,1.78-.96,3.7-1.61,5.62-.88,1.54.59,3.05.54,4.6.63,1.27.07,2.55.1,3.78.37,1.68.37,3.3.17,4.94-.13,1.25-.23,2.44-.59,3.54-1.36.52-.36,1.18-.5,1.77-.74,1.73-.69,3.47-1.36,5.19-2.07,1.22-.5,2.47-.58,3.75-.56.83.01,1.66,0,2.55,0,.29-.4.63-.73.81-1.15.98-2.22,3.04-2.88,5.24-2.13,1.3.45,2.6.9,3.88,1.41.54.21,1,.15,1.55.05,2.69-.5,5.35-1.12,8.11-1.15,2.55-.03,4.92-.8,7.14-2.39,2.13-1.53,4.06-3.31,5.97-5.11,1.14-1.08,2.46-1.64,3.86-1.71,2.43-.13,4.86-.25,7.29.45,1.77.51,3.65.59,5.49.75.6.05,1.25-.17,1.83-.39,1.01-.38,1.97-.89,2.98-1.27.64-.24,1.31-.46,1.98-.5,1.53-.1,2.97-.57,4.39-1.11.61-.23,1.15-.26,1.68.12.98.7,1.97,1.38,2.91,2.14,1.42,1.16,2.96,2.01,4.61,2.69,2.05.84,4.06,1.79,6.13,2.56,1.7.63,3.44,1.14,5.19,1.58,2.47.61,5.01.9,7.42,1.7,2,.66,4.04.53,6.05,1.05,3.72.97,7.1,2.67,10.28,4.88,2.48,1.72,4.99,3.37,7.71,4.56,1.67.73,3.4,1.31,5.11,1.9,3.34,1.14,6.66,2.41,10.05,3.31,2.35.62,4.77,1.16,7.24.82,2.37-.32,4.67-.06,6.79,1.2,1.38.82,2.67.85,4.19.36,2.09-.68,4.27-1.04,6.41-1.5,1.72-.37,3.45-.64,5.16-1.05,2.58-.62,4.97-1.81,7.39-2.97,1.51-.72,3.14-1.14,4.7-1.75,2.61-1.02,5.22-2.05,7.81-3.15,1.99-.85,3.96-1.75,5.9-2.73,1.59-.8,3.1-1.77,4.67-2.62,1.66-.9,3.3-1.89,5.03-2.6,2.24-.92,4.6-1.27,7.01-1.23,1.55.02,2.98.43,4.4,1.06,1.07.47,2.23.58,3.31.2.85-.3,1.7-.41,2.55-.63,1.91-.48,3.86-.59,5.78-.89,1.86-.29,3.76-.64,5.5-1.5.9-.45,1.82-.57,2.72-.38,1.99.41,4.02.74,5.86,1.8.6.34,1.27.52,1.92.74,1.52.52,3.02,1.25,4.58,1.48,2.02.29,4,1.16,6.07.8,1.44-.25,2.88-.53,4.27-1,2.12-.72,4.18-1.18,6.45-.69,2.06.44,3.91,1.26,5.66,2.45,2.78,1.88,5.5,3.89,8.36,5.6,2.6,1.56,5.33,2.87,8.07,4.13,2.51,1.16,5.13,2.04,7.66,3.16,1.66.74,3.29.76,4.99.3,2.19-.59,4.4-.86,6.67-.83,2.7.04,5.12,1.01,7.25,2.66,3.33,2.58,6.86,4.68,10.71,6.17,1.74.67,3.49,1.33,5.26,1.9.83.27,1.72.32,2.68.48,1.08-.31,2.05-1.05,2.99-1.8,1.33-1.06,2.82-1.58,4.39-2.06,1.58-.48,3.07-1.34,4.54-2.14,1.59-.87,3.28-1,4.99-.93,1.93.08,3.74.75,5.38,1.85,1.06.71,2.28.84,3.41,1.3,1.05.43,2.14.72,3.15,1.23,1.12.57,2.21,1.06,3.48,1.04.87-.01,1.75.25,2.61.23,2.34-.06,4.69-.2,7.03-.31.34-.02.67-.11,1.01-.15,1.89-.25,3.78-.42,5.65-.75,2.58-.46,5.17-.25,7.75-.39,2-.11,3.79-.94,5.22-2.55,1.25-1.4,2.71-2.39,4.42-3.01,1.74-.64,3.41-.63,5.16-.01,2.73.96,5.5,1.79,8.25,2.68.7.23,1.39.46,2.14.71v156.43s-.05.06-.09.1c-.04.03-.08.08-.12.08-455.57.01-911.13.03-1366.7.03-.14,0-.27-.06-.47-.11V40.4c.8-.12,1.56-.36,2.32-.33,1.13.05,2.07-.44,3.07-.86,1.13-.47,2.31-.8,3.45-1.24.45-.17.9-.41,1.29-.71,1.39-1.08,2.88-1.71,4.63-1.53.78.08,1.57.06,2.35.01,1.75-.1,3.35.58,4.98,1.07.46.14.95.25,1.43.26,1.47.01,2.9.24,4.34.63,1.83.5,3.7.85,5.49,1.53.36.13.78.12,1.17.07,1.96-.21,3.72.68,5.57,1.08,2.51.55,4.72,1.95,7.09,2.9,1.23.49,2.52.78,3.76,1.24.73.27,1.46.64,2.11,1.1,1.02.73,2.06,1.4,3.19,1.92,1.2.56,2.27,1.44,3.46,2.04,2.03,1.01,4.1,1.9,6.16,2.83,3.73,1.7,7.5,3.29,11.03,5.45.84.51,1.68.79,2.64.48.23-.07.49-.07.73-.04,1.52.23,2.87-.51,4.26-.91,1.6-.46,3.12-1.14,4.78-1.42,1.67-.28,3.3-.87,4.97-1.2,2.01-.4,4.06-.57,6.06-1.02,2.51-.56,5.04-.61,7.58-.65.34,0,.67-.1,1.01-.15,1.06-.16,2.12-.32,3.18-.47.34-.05.69-.03,1.02-.11,1.52-.38,3.03-.79,4.54-1.19,1.79-.48,3.57-1.02,5.37-1.42,1.67-.36,3.36-.61,5.05-.83,2.47-.31,4.94-.59,7.42-.81,1.31-.12,2.64-.1,3.96-.11,1.71-.02,3.43,0,5.14-.04.58-.01,1.16-.13,1.74-.19.34-.03.69-.13,1.02-.06,2.38.5,4.78.28,7.17.26,2.1-.02,4.03.67,6,1.28.51.16,1.04.27,1.57.32,1.51.14,3.01.26,4.52.33,3.32.14,6.64.34,9.96.33,1.55,0,3.06-.59,4.16-1.93,1.46-1.77,3.18-2.89,5.37-3.29,1.74-.32,3.31-1.3,4.85-2.22,2.07-1.23,4.26-2.14,6.57-2.54,2.75-.47,5.51-.58,8.26.35,3.27,1.11,6.11,3.02,8.77,5.27,1.83,1.55,3.74,2.96,5.99,3.51,1.5.37,2.99,1,4.58.86,2.23-.19,4.34.48,6.44,1.21.33.11.66.3.99.3,1.86,0,3.68.42,5.52.64,1.24.15,2.37.54,3.5,1.01.64.26,1.27.56,1.92.73,2.13.56,4.25,1.11,6.45,1.29,1.55.13,3.09.44,4.62.77.78.17,1.42.02,2.1-.36,1.95-1.09,3.94-2.05,6.05-2.74,1.86-.61,3.68-1.36,5.54-1.96,1.16-.38,2.36-.61,3.55-.91,1.04-.27,2.05-.58,3.12-.76,2.21-.37,4.39-.93,6.56-1.52,1.5-.41,2.97-.99,4.45-1.51,1.9-.67,3.78-1.37,5.68-2.02,2.08-.72,4.15-1.52,6.28-2.06,3.44-.88,6.57-2.64,9.83-3.99,2.41-1,4.78-2.11,7.14-3.21,3.58-1.66,7.14-3.38,10.72-5.04,1.7-.79,3.46-1.45,5.16-2.25,1.2-.57,2.41-1.19,3.5-1.97,2.43-1.74,5.09-2.9,7.77-4.01,4.23-1.76,8.49-3.42,12.59-5.53,1.44-.74,2.98-1.25,4.51-1.74,1.77-.56,3.59-.98,5.39-1.44.38-.1.77-.12,1.16-.12,2.35-.02,4.7-.06,7.05,0,.86.02,1.72.3,2.59.42,1.3.17,2.61.34,3.92.44,1.02.08,2.06.12,3.08.05,1.75-.12,3.49-.34,5.24-.51.39-.04.78-.07,1.17-.1,1.46-.11,2.94-.11,4.38-.35.89-.15,1.76-.6,2.6-1.01,1.11-.55,2.15-1.28,3.26-1.81,2.23-1.06,4.53-1.91,6.94-2.35.24-.04.46-.16.51-.18,1.88.44,3.61.76,5.29,1.25,2.72.79,5.41,1.7,8.12,2.52,1.26.38,2.55.64,3.82.99.99.27,1.96.62,2.94.92,1.5.45,3.01.89,4.51,1.33,1.36.39,2.71.81,4.08,1.15.56.14,1.17.07,1.75.14,1.4.17,2.8.36,4.2.54.44.05.88.08,1.32.08,1.47.02,2.94-.02,4.41.03,1.82.06,3.6-.16,5.39-.5,1.68-.32,3.39-.44,5.03-.89,2.27-.63,4.51-1.42,6.23-3.31.72-.8,1.43-1.61,2.1-2.37,1.29-.1,2.44-.13,3.6.25,1.23.4,2.47.4,3.76.11,1.23-.28,2.52-.28,3.78-.41.73-.08,1.45-.17,2.18-.27.92-.13,1.83-.26,2.74-.41.53-.09,1.06-.16,1.58-.32,1.3-.39,2.65-.68,3.87-1.28,2.27-1.11,4.81-1.36,6.95-2.81.49-.33.98-.69,1.43-1.08,1.89-1.67,3.99-2.75,6.44-3.16,1.43-.24,2.63-.08,3.93.63,1.55.86,3.25,1.42,4.89,2.09,2.19.89,4.37,1.79,6.58,2.62,1.19.45,2.44.71,3.64,1.16,2.07.78,4.13,1.59,6.16,2.49,2.3,1.01,4.54,2.17,6.84,3.2,3.16,1.41,6.21,3.01,9.12,4.96,1.68,1.13,3.53,1.97,5.53,1.78,1.97-.19,3.64.53,5.28,1.51,1.82,1.08,3.41,2.44,4.61,4.34.72,1.14,1.56,2.19,2.41,3.21,1.81,2.18,3.9,4.04,6.11,5.71,3.61,2.73,7.24,5.44,10.92,8.06,3.8,2.7,7.65,5.32,11.54,7.86,1.32.86,2.79,1.48,4.24,2.06,1.86.74,3.77,1.32,5.67,1.96,1.14.39,2.28.61,3.46.18,1.66-.6,3.31-1.21,4.98-1.76,1.52-.5,3.05-.45,4.61,0,1.54.44,3.07,1.03,4.7,1.02,1.76-.02,3.52,0,5.12,0Z"/>
    </g>
  </g>
</svg>