<?xml version="1.0" encoding="UTF-8"?>
<svg id="Layer_2" data-name="Layer 2" xmlns="http://www.w3.org/2000/svg" viewBox="0 0 129.97 62.52">
  <defs>
    <style>
      .cls-1 {
        fill: #94c35f;
      }
    </style>
  </defs>
  <g id="Layer_1-2" data-name="Layer 1">
    <g>
      <path class="cls-1" d="M66.19,39.62c-.35.48-9.88,2.12-11.52,2.59-8.07,2.34-13.08,6.83-17.55,13.81.58,1.13,1.9,1.58,1.58,3.13-2.66.22-4.17-.07-6.03,2.05-.42.47-.33,1.13-1.08,1.32-1.46-1.18-.3-4.04-1.19-5.06-.4-.45-4.04-2.56-4.79-2.93-6.39-3.13-11.67-2.25-18.13.04-2.48.88-4.82,2.32-7.35,2.9-.84-.86,3.09-5.41,3.85-6.15,6.26-6.05,13.56-6.65,21.66-4.05,1.01.32,6.01,2.65,6.35,2.61,1.36-.14,4.82-4.51,6.12-5.68,7-6.35,14.75-8.87,24.2-6.58.48.12,4.53,1.15,3.9,2Z"/>
      <path class="cls-1" d="M129.94.48s.1.69-.15.74c-7.78,3.35-15.73,5.97-22.03,11.92.94.87,2.34,1.46,2.17,3.01-1.84.13-3.84.31-5.29,1.58-.78.69-1.01,2.09-2.32,1.32-.85-.5-1.18-1.79-1.02-2.72.1-.58.67-1.2.67-1.27,0-.38-6.12-2.89-6.92-3.2-4.55-1.77-9.37-2.71-13.94-4.39-.88-.32-1.91-.62-2.52-1.33,0-.92,7.19-.89,8.07-.84,4.05.23,8.08,1.22,11.7,3.01,2.05,1.01,3.78,3.19,6,1.67C111.66,4.97,113.82.21,124.03,0c.73-.02,5.7.27,5.91.48Z"/>
    </g>
  </g>
</svg>