<?xml version="1.0" encoding="UTF-8"?>
<svg id="Layer_2" data-name="Layer 2" xmlns="http://www.w3.org/2000/svg" viewBox="0 0 226.42 101.98">
  <defs>
    <style>
      .cls-1 {
        fill: #94c35f;
      }
    </style>
  </defs>
  <g id="Layer_1-2" data-name="Layer 1">
    <g>
      <path class="cls-1" d="M68.31,85.95c-.43.4-10.1.23-11.8.39-8.37.79-14.12,4.26-19.82,10.29.36,1.22,1.57,1.91.97,3.37-2.66-.28-4.08-.84-6.31.88-.5.39-.54,1.05-1.31,1.09-1.22-1.43.46-4.03-.23-5.19-.3-.52-3.49-3.27-4.16-3.77-5.69-4.27-11.04-4.39-17.82-3.35-2.61.4-5.17,1.38-7.76,1.47-.67-1,4.04-4.74,4.94-5.32,7.28-4.77,14.56-4,22.03.07.93.51,5.41,3.72,5.75,3.75,1.36.11,5.58-3.53,7.07-4.44,8.06-4.93,16.15-5.96,25-1.94.45.2,4.23,1.98,3.46,2.7Z"/>
      <path class="cls-1" d="M226.41,5.75s-.05.69-.31.69c-8.32,1.61-16.65,2.46-24.08,6.92.73,1.06,1.98,1.93,1.47,3.41-1.83-.26-3.82-.52-5.51.41-.91.5-1.43,1.82-2.55.8-.73-.67-.77-2-.41-2.88.22-.54.91-1.02.92-1.09.07-.38-5.36-4.13-6.08-4.61-4.07-2.71-8.57-4.66-12.67-7.28-.79-.5-1.74-1.01-2.18-1.84.19-.9,7.22.67,8.06.91,3.91,1.1,7.63,2.93,10.79,5.45,1.79,1.43,3.01,3.93,5.5,2.92,8.21-3.33,11.34-7.51,21.36-5.53.72.14,5.51,1.49,5.67,1.73Z"/>
    </g>
  </g>
</svg>